<svg xmlns="http://www.w3.org/2000/svg" width="1200" height="1200" viewBox="0 0 1200 1200"><title>IPO-1073 Common Director research desk</title><desc>An architectural IPO research workspace with no people or company affiliation.</desc><rect width="1200" height="1200" fill="#070908"/><rect x="42" y="42" width="1116" height="1116" rx="18" fill="#0c0f0e" stroke="#27302d" stroke-width="6"/><path d="M48 810L380 494h440l332 316v344H48z" fill="#101412" opacity=".92"/><path d="M82 170h230M888 170h230" stroke="#343c38" stroke-width="6" opacity=".55"/><rect x="144" y="140" width="12" height="28" fill="#f2bd55" opacity=".5"/><rect x="946" y="140" width="12" height="28" fill="#6d746f" opacity=".45"/><path d="M82 218h230M888 218h230" stroke="#343c38" stroke-width="6" opacity=".55"/><rect x="124" y="188" width="12" height="28" fill="#6d746f" opacity=".5"/><rect x="963" y="188" width="12" height="28" fill="#f2bd55" opacity=".45"/><path d="M82 266h230M888 266h230" stroke="#343c38" stroke-width="6" opacity=".55"/><rect x="117" y="236" width="12" height="28" fill="#6d746f" opacity=".5"/><rect x="986" y="236" width="12" height="28" fill="#6d746f" opacity=".45"/><path d="M82 314h230M888 314h230" stroke="#343c38" stroke-width="6" opacity=".55"/><rect x="129" y="284" width="12" height="28" fill="#f2bd55" opacity=".5"/><rect x="957" y="284" width="12" height="28" fill="#f2bd55" opacity=".45"/><path d="M82 362h230M888 362h230" stroke="#343c38" stroke-width="6" opacity=".55"/><rect x="155" y="332" width="12" height="28" fill="#6d746f" opacity=".5"/><rect x="976" y="332" width="12" height="28" fill="#6d746f" opacity=".45"/><path d="M82 410h230M888 410h230" stroke="#343c38" stroke-width="6" opacity=".55"/><rect x="164" y="380" width="12" height="28" fill="#6d746f" opacity=".5"/><rect x="976" y="380" width="12" height="28" fill="#f2bd55" opacity=".45"/><path d="M76 742h1048" stroke="#f2bd55" stroke-width="3" opacity=".2"/><rect x="92" y="770" width="1016" height="12" fill="#f2bd55" opacity=".08"/><ellipse cx="600" cy="570" rx="420" ry="210" fill="#f2bd55" opacity=".055"/><path d="M48 890h1110M210 1154l170-336M990 1154L820 818" stroke="#252d2a" stroke-width="4" opacity=".58"/><g><rect x="88" y="154" width="238" height="184" rx="8" fill="#070a09" stroke="#3b4541" stroke-width="6"/><rect x="100" y="166" width="214" height="160" rx="3" fill="#0b100e"/><rect x="110" y="184" width="129" height="5" fill="#f2bd55" opacity=".62"/><rect x="110" y="204" width="100" height="5" fill="#87918c" opacity=".34"/><rect x="110" y="224" width="157" height="5" fill="#f2bd55" opacity=".62"/><rect x="110" y="244" width="117" height="5" fill="#87918c" opacity=".34"/><polyline points="112.0,231.4 139.1,233.4 166.3,264.4 193.4,222.4 220.6,272.4 247.7,249.4 274.9,227.4 302.0,242.4" fill="none" stroke="#f2bd55" stroke-width="5" stroke-linejoin="miter" opacity=".82"/><rect x="200" y="338" width="14" height="42" fill="#2b312f"/><rect x="163" y="376" width="88" height="8" fill="#343c39"/></g><g><rect x="346" y="154" width="238" height="184" rx="8" fill="#070a09" stroke="#3b4541" stroke-width="6"/><rect x="358" y="166" width="214" height="160" rx="3" fill="#0b100e"/><rect x="368" y="184" width="117" height="5" fill="#f2bd55" opacity=".62"/><rect x="368" y="204" width="62" height="5" fill="#87918c" opacity=".34"/><rect x="368" y="224" width="67" height="5" fill="#f2bd55" opacity=".62"/><rect x="368" y="244" width="106" height="5" fill="#87918c" opacity=".34"/><polyline points="370.0,222.4 397.1,272.4 424.3,249.4 451.4,227.4 478.6,242.4 505.7,269.4 532.9,224.4 560.0,214.4" fill="none" stroke="#f2bd55" stroke-width="5" stroke-linejoin="miter" opacity=".82"/><rect x="458" y="338" width="14" height="42" fill="#2b312f"/><rect x="421" y="376" width="88" height="8" fill="#343c39"/></g><g><rect x="604" y="154" width="238" height="184" rx="8" fill="#070a09" stroke="#3b4541" stroke-width="6"/><rect x="616" y="166" width="214" height="160" rx="3" fill="#0b100e"/><rect x="626" y="184" width="106" height="5" fill="#f2bd55" opacity=".62"/><rect x="626" y="204" width="113" height="5" fill="#87918c" opacity=".34"/><rect x="626" y="224" width="168" height="5" fill="#f2bd55" opacity=".62"/><rect x="626" y="244" width="172" height="5" fill="#87918c" opacity=".34"/><polyline points="628.0,227.4 655.1,242.4 682.3,269.4 709.4,224.4 736.6,214.4 763.7,265.4 790.9,214.4 818.0,265.4" fill="none" stroke="#f2bd55" stroke-width="5" stroke-linejoin="miter" opacity=".82"/><rect x="716" y="338" width="14" height="42" fill="#2b312f"/><rect x="679" y="376" width="88" height="8" fill="#343c39"/></g><g><rect x="862" y="154" width="238" height="184" rx="8" fill="#070a09" stroke="#3b4541" stroke-width="6"/><rect x="874" y="166" width="214" height="160" rx="3" fill="#0b100e"/><rect x="884" y="184" width="172" height="5" fill="#f2bd55" opacity=".62"/><rect x="884" y="204" width="46" height="5" fill="#87918c" opacity=".34"/><rect x="884" y="224" width="64" height="5" fill="#f2bd55" opacity=".62"/><rect x="884" y="244" width="142" height="5" fill="#87918c" opacity=".34"/><polyline points="886.0,224.4 913.1,214.4 940.3,265.4 967.4,214.4 994.6,265.4 1021.7,222.4 1048.9,235.4 1076.0,229.4" fill="none" stroke="#f2bd55" stroke-width="5" stroke-linejoin="miter" opacity=".82"/><rect x="974" y="338" width="14" height="42" fill="#2b312f"/><rect x="937" y="376" width="88" height="8" fill="#343c39"/></g><g><rect x="218" y="390" width="270" height="194" rx="8" fill="#070a09" stroke="#3b4541" stroke-width="6"/><rect x="230" y="402" width="246" height="170" rx="3" fill="#0b100e"/><rect x="240" y="420" width="154" height="5" fill="#f2bd55" opacity=".62"/><rect x="240" y="440" width="172" height="5" fill="#87918c" opacity=".34"/><rect x="240" y="460" width="145" height="5" fill="#f2bd55" opacity=".62"/><rect x="240" y="480" width="174" height="5" fill="#87918c" opacity=".34"/><polyline points="242.0,518.0 273.7,510.0 305.4,482.0 337.1,456.0 368.9,502.0 400.6,475.0 432.3,483.0 464.0,518.0" fill="none" stroke="#f2bd55" stroke-width="5" stroke-linejoin="miter" opacity=".82"/><rect x="346" y="584" width="14" height="42" fill="#2b312f"/><rect x="309" y="622" width="88" height="8" fill="#343c39"/></g><g><rect x="508" y="390" width="270" height="194" rx="8" fill="#070a09" stroke="#3b4541" stroke-width="6"/><rect x="520" y="402" width="246" height="170" rx="3" fill="#0b100e"/><rect x="530" y="420" width="174" height="5" fill="#f2bd55" opacity=".62"/><rect x="530" y="440" width="83" height="5" fill="#87918c" opacity=".34"/><rect x="530" y="460" width="37" height="5" fill="#f2bd55" opacity=".62"/><rect x="530" y="480" width="82" height="5" fill="#87918c" opacity=".34"/><polyline points="532.0,456.0 563.7,502.0 595.4,475.0 627.1,483.0 658.9,518.0 690.6,495.0 722.3,497.0 754.0,468.0" fill="none" stroke="#f2bd55" stroke-width="5" stroke-linejoin="miter" opacity=".82"/><rect x="636" y="584" width="14" height="42" fill="#2b312f"/><rect x="599" y="622" width="88" height="8" fill="#343c39"/></g><g><path d="M116 754H1084l70 300H16z" fill="#111514" stroke="#252d2a" stroke-width="10"/><path d="M148 790H1052l34 176H84z" fill="#151a18" stroke="#343c38" stroke-width="4"/><path d="M182 816H1018" stroke="#f2bd55" stroke-width="5" opacity=".55"/><rect x="450" y="840" width="300" height="94" rx="8" fill="#080b0a" stroke="#3a423f" stroke-width="6"/><rect x="478" y="868" width="13" height="8" fill="#f2bd55" opacity=".65"/><rect x="499" y="883" width="13" height="8" fill="#69716d" opacity=".65"/><rect x="520" y="898" width="13" height="8" fill="#69716d" opacity=".65"/><rect x="541" y="868" width="13" height="8" fill="#69716d" opacity=".65"/><rect x="562" y="883" width="13" height="8" fill="#f2bd55" opacity=".65"/><rect x="583" y="898" width="13" height="8" fill="#69716d" opacity=".65"/><rect x="604" y="868" width="13" height="8" fill="#69716d" opacity=".65"/><rect x="625" y="883" width="13" height="8" fill="#69716d" opacity=".65"/><rect x="646" y="898" width="13" height="8" fill="#f2bd55" opacity=".65"/><rect x="667" y="868" width="13" height="8" fill="#69716d" opacity=".65"/><rect x="688" y="883" width="13" height="8" fill="#69716d" opacity=".65"/><rect x="709" y="898" width="13" height="8" fill="#69716d" opacity=".65"/><g transform="rotate(2 232 900)"><rect x="232" y="878" width="96" height="68" fill="#d8d5ca" stroke="#171a18" stroke-width="4"/><path d="M246 900h62m-62 16h46" stroke="#545954" stroke-width="4"/></g><g transform="rotate(-2 326 900)"><rect x="326" y="900" width="96" height="68" fill="#d8d5ca" stroke="#171a18" stroke-width="4"/><path d="M340 922h62m-62 16h46" stroke="#545954" stroke-width="4"/></g><g transform="rotate(3 445 900)"><rect x="445" y="878" width="96" height="68" fill="#d8d5ca" stroke="#171a18" stroke-width="4"/><path d="M459 900h62m-62 16h46" stroke="#545954" stroke-width="4"/></g><g transform="rotate(4 553 900)"><rect x="553" y="900" width="96" height="68" fill="#d8d5ca" stroke="#171a18" stroke-width="4"/><path d="M567 922h62m-62 16h46" stroke="#545954" stroke-width="4"/></g><g transform="rotate(3 679 900)"><rect x="679" y="878" width="96" height="68" fill="#d8d5ca" stroke="#171a18" stroke-width="4"/><path d="M693 900h62m-62 16h46" stroke="#545954" stroke-width="4"/></g><rect x="948" y="864" width="78" height="116" rx="7" fill="#111715" stroke="#414a46" stroke-width="5"/><circle cx="987" cy="890" r="8" fill="#f2bd55" opacity=".7"/><path d="M154 994h238" stroke="#727a75" stroke-width="7"/><circle cx="178" cy="1025" r="18" fill="#f2bd55" opacity=".28"/><rect x="966" y="988" width="128" height="72" fill="#0a0e0c" stroke="#f2bd55" stroke-width="3"/><path d="M984 1016h82m-82 18h54" stroke="#f2bd55" stroke-width="4" opacity=".55"/><text x="82" y="1110" font-family="ui-monospace, SFMono-Regular, Menlo, monospace" font-size="18" fill="#8e9691">MATTE BLACK / CANTILEVER</text></g><rect x="834" y="623" width="4" height="4" fill="#f2bd55" opacity=".10"/><rect x="70" y="757" width="4" height="4" fill="#f2bd55" opacity=".10"/><rect x="735" y="122" width="4" height="4" fill="#f2bd55" opacity=".10"/><rect x="27" y="475" width="4" height="4" fill="#f2bd55" opacity=".10"/><rect x="605" y="498" width="4" height="4" fill="#f2bd55" opacity=".10"/><rect x="590" y="181" width="4" height="4" fill="#f2bd55" opacity=".10"/><rect x="878" y="992" width="4" height="4" fill="#f2bd55" opacity=".10"/><rect x="379" y="296" width="4" height="4" fill="#f2bd55" opacity=".10"/><rect x="1146" y="1068" width="4" height="4" fill="#f2bd55" opacity=".10"/><rect x="623" y="890" width="4" height="4" fill="#f2bd55" opacity=".10"/><rect x="757" y="770" width="4" height="4" fill="#f2bd55" opacity=".10"/><rect x="122" y="1058" width="4" height="4" fill="#f2bd55" opacity=".10"/><rect x="475" y="281" width="4" height="4" fill="#f2bd55" opacity=".10"/><rect x="498" y="650" width="4" height="4" fill="#f2bd55" opacity=".10"/><rect x="181" y="1159" width="4" height="4" fill="#f2bd55" opacity=".10"/><rect x="992" y="173" width="4" height="4" fill="#f2bd55" opacity=".10"/><rect x="296" y="1098" width="4" height="4" fill="#f2bd55" opacity=".10"/><rect x="1068" y="763" width="4" height="4" fill="#f2bd55" opacity=".10"/><rect x="890" y="599" width="4" height="4" fill="#f2bd55" opacity=".10"/><rect x="770" y="834" width="4" height="4" fill="#f2bd55" opacity=".10"/><rect x="1058" y="70" width="4" height="4" fill="#f2bd55" opacity=".10"/><rect x="281" y="735" width="4" height="4" fill="#f2bd55" opacity=".10"/><rect x="650" y="27" width="4" height="4" fill="#f2bd55" opacity=".10"/><rect x="1159" y="605" width="4" height="4" fill="#f2bd55" opacity=".10"/><rect x="173" y="590" width="4" height="4" fill="#f2bd55" opacity=".10"/><rect x="1098" y="878" width="4" height="4" fill="#f2bd55" opacity=".10"/><rect x="763" y="379" width="4" height="4" fill="#f2bd55" opacity=".10"/><rect x="599" y="1146" width="4" height="4" fill="#f2bd55" opacity=".10"/><rect x="834" y="623" width="4" height="4" fill="#f2bd55" opacity=".10"/><rect x="70" y="757" width="4" height="4" fill="#f2bd55" opacity=".10"/><rect x="735" y="122" width="4" height="4" fill="#f2bd55" opacity=".10"/><rect x="27" y="475" width="4" height="4" fill="#f2bd55" opacity=".10"/><rect x="605" y="498" width="4" height="4" fill="#f2bd55" opacity=".10"/><rect x="590" y="181" width="4" height="4" fill="#f2bd55" opacity=".10"/><rect x="878" y="992" width="4" height="4" fill="#f2bd55" opacity=".10"/><rect x="379" y="296" width="4" height="4" fill="#f2bd55" opacity=".10"/><rect x="1146" y="1068" width="4" height="4" fill="#f2bd55" opacity=".10"/><rect x="623" y="890" width="4" height="4" fill="#f2bd55" opacity=".10"/><g><rect x="58" y="62" width="188" height="52" rx="5" fill="#090c0b" stroke="#f2bd55" stroke-width="3"/><text x="82" y="96" font-family="ui-monospace, SFMono-Regular, Menlo, monospace" font-weight="800" font-size="22" fill="#f1efe7">IPO #1073</text></g><g><rect x="956" y="62" width="186" height="52" rx="5" fill="#090c0b" stroke="#39423e" stroke-width="3"/><text x="1049" y="95" text-anchor="middle" font-family="ui-monospace, SFMono-Regular, Menlo, monospace" font-size="17" fill="#f2bd55">9669C642</text></g></svg>