<svg xmlns="http://www.w3.org/2000/svg" width="1200" height="1200" viewBox="0 0 1200 1200"><title>IPO-0365 Common Director research desk</title><desc>An architectural IPO research workspace with no people or company affiliation.</desc><rect width="1200" height="1200" fill="#070908"/><rect x="42" y="42" width="1116" height="1116" rx="18" fill="#0c0f0e" stroke="#27302d" stroke-width="6"/><path d="M48 810L380 494h440l332 316v344H48z" fill="#101412" opacity=".92"/><rect x="332" y="104" width="536" height="384" fill="#090d0c" stroke="#303936" stroke-width="7"/><rect x="350" y="163" width="42" height="307" fill="#121817" stroke="#28312e" stroke-width="3"/><rect x="422" y="216" width="42" height="254" fill="#121817" stroke="#28312e" stroke-width="3"/><rect x="494" y="288" width="42" height="182" fill="#121817" stroke="#28312e" stroke-width="3"/><rect x="566" y="168" width="42" height="302" fill="#121817" stroke="#28312e" stroke-width="3"/><rect x="638" y="220" width="42" height="250" fill="#121817" stroke="#28312e" stroke-width="3"/><rect x="710" y="171" width="42" height="299" fill="#121817" stroke="#28312e" stroke-width="3"/><rect x="782" y="237" width="42" height="233" fill="#121817" stroke="#28312e" stroke-width="3"/><path d="M76 742h1048" stroke="#65d9e8" stroke-width="3" opacity=".2"/><rect x="92" y="770" width="1016" height="12" fill="#65d9e8" opacity=".08"/><ellipse cx="600" cy="570" rx="420" ry="210" fill="#65d9e8" opacity=".055"/><path d="M48 890h1110M210 1154l170-336M990 1154L820 818" stroke="#252d2a" stroke-width="4" opacity=".58"/><g><rect x="88" y="154" width="238" height="184" rx="8" fill="#070a09" stroke="#3b4541" stroke-width="6"/><rect x="100" y="166" width="214" height="160" rx="3" fill="#0b100e"/><rect x="110" y="184" width="59" height="5" fill="#65d9e8" opacity=".62"/><rect x="110" y="204" width="147" height="5" fill="#87918c" opacity=".34"/><rect x="110" y="224" width="188" height="5" fill="#65d9e8" opacity=".62"/><rect x="110" y="244" width="103" height="5" fill="#87918c" opacity=".34"/><polyline points="112.0,217.4 139.1,246.4 166.3,244.4 193.4,229.4 220.6,225.4 247.7,259.4 274.9,245.4 302.0,258.4" fill="none" stroke="#65d9e8" stroke-width="5" stroke-linejoin="miter" opacity=".82"/><rect x="200" y="338" width="14" height="42" fill="#2b312f"/><rect x="163" y="376" width="88" height="8" fill="#343c39"/></g><g><rect x="346" y="154" width="238" height="184" rx="8" fill="#070a09" stroke="#3b4541" stroke-width="6"/><rect x="358" y="166" width="214" height="160" rx="3" fill="#0b100e"/><rect x="368" y="184" width="103" height="5" fill="#65d9e8" opacity=".62"/><rect x="368" y="204" width="36" height="5" fill="#87918c" opacity=".34"/><rect x="368" y="224" width="80" height="5" fill="#65d9e8" opacity=".62"/><rect x="368" y="244" width="135" height="5" fill="#87918c" opacity=".34"/><polyline points="370.0,229.4 397.1,225.4 424.3,259.4 451.4,245.4 478.6,258.4 505.7,226.4 532.9,265.4 560.0,272.4" fill="none" stroke="#65d9e8" stroke-width="5" stroke-linejoin="miter" opacity=".82"/><rect x="458" y="338" width="14" height="42" fill="#2b312f"/><rect x="421" y="376" width="88" height="8" fill="#343c39"/></g><g><rect x="604" y="154" width="238" height="184" rx="8" fill="#070a09" stroke="#3b4541" stroke-width="6"/><rect x="616" y="166" width="214" height="160" rx="3" fill="#0b100e"/><rect x="626" y="184" width="135" height="5" fill="#65d9e8" opacity=".62"/><rect x="626" y="204" width="84" height="5" fill="#87918c" opacity=".34"/><rect x="626" y="224" width="183" height="5" fill="#65d9e8" opacity=".62"/><rect x="626" y="244" width="70" height="5" fill="#87918c" opacity=".34"/><polyline points="628.0,245.4 655.1,258.4 682.3,226.4 709.4,265.4 736.6,272.4 763.7,241.4 790.9,271.4 818.0,248.4" fill="none" stroke="#65d9e8" stroke-width="5" stroke-linejoin="miter" opacity=".82"/><rect x="716" y="338" width="14" height="42" fill="#2b312f"/><rect x="679" y="376" width="88" height="8" fill="#343c39"/></g><g><rect x="862" y="154" width="238" height="184" rx="8" fill="#070a09" stroke="#3b4541" stroke-width="6"/><rect x="874" y="166" width="214" height="160" rx="3" fill="#0b100e"/><rect x="884" y="184" width="70" height="5" fill="#65d9e8" opacity=".62"/><rect x="884" y="204" width="38" height="5" fill="#87918c" opacity=".34"/><rect x="884" y="224" width="129" height="5" fill="#65d9e8" opacity=".62"/><rect x="884" y="244" width="140" height="5" fill="#87918c" opacity=".34"/><polyline points="886.0,265.4 913.1,272.4 940.3,241.4 967.4,271.4 994.6,248.4 1021.7,261.4 1048.9,234.4 1076.0,243.4" fill="none" stroke="#65d9e8" stroke-width="5" stroke-linejoin="miter" opacity=".82"/><rect x="974" y="338" width="14" height="42" fill="#2b312f"/><rect x="937" y="376" width="88" height="8" fill="#343c39"/></g><g><rect x="218" y="390" width="270" height="194" rx="8" fill="#070a09" stroke="#3b4541" stroke-width="6"/><rect x="230" y="402" width="246" height="170" rx="3" fill="#0b100e"/><rect x="240" y="420" width="56" height="5" fill="#65d9e8" opacity=".62"/><rect x="240" y="440" width="186" height="5" fill="#87918c" opacity=".34"/><rect x="240" y="460" width="60" height="5" fill="#65d9e8" opacity=".62"/><rect x="240" y="480" width="179" height="5" fill="#87918c" opacity=".34"/><polyline points="242.0,487.0 273.7,489.0 305.4,489.0 337.1,482.0 368.9,506.0 400.6,491.0 432.3,476.0 464.0,486.0" fill="none" stroke="#65d9e8" stroke-width="5" stroke-linejoin="miter" opacity=".82"/><rect x="346" y="584" width="14" height="42" fill="#2b312f"/><rect x="309" y="622" width="88" height="8" fill="#343c39"/></g><g><rect x="508" y="390" width="270" height="194" rx="8" fill="#070a09" stroke="#3b4541" stroke-width="6"/><rect x="520" y="402" width="246" height="170" rx="3" fill="#0b100e"/><rect x="530" y="420" width="179" height="5" fill="#65d9e8" opacity=".62"/><rect x="530" y="440" width="148" height="5" fill="#87918c" opacity=".34"/><rect x="530" y="460" width="38" height="5" fill="#65d9e8" opacity=".62"/><rect x="530" y="480" width="35" height="5" fill="#87918c" opacity=".34"/><polyline points="532.0,482.0 563.7,506.0 595.4,491.0 627.1,476.0 658.9,486.0 690.6,506.0 722.3,462.0 754.0,473.0" fill="none" stroke="#65d9e8" stroke-width="5" stroke-linejoin="miter" opacity=".82"/><rect x="636" y="584" width="14" height="42" fill="#2b312f"/><rect x="599" y="622" width="88" height="8" fill="#343c39"/></g><g><path d="M150 754H1050l70 300H16z" fill="#10191a" stroke="#496164" stroke-width="10"/><path d="M182 790H1018l34 176H84z" fill="#151a18" stroke="#343c38" stroke-width="4"/><path d="M216 816H984" stroke="#65d9e8" stroke-width="5" opacity=".55"/><rect x="450" y="840" width="300" height="94" rx="8" fill="#080b0a" stroke="#3a423f" stroke-width="6"/><rect x="478" y="868" width="13" height="8" fill="#65d9e8" opacity=".65"/><rect x="499" y="883" width="13" height="8" fill="#69716d" opacity=".65"/><rect x="520" y="898" width="13" height="8" fill="#69716d" opacity=".65"/><rect x="541" y="868" width="13" height="8" fill="#69716d" opacity=".65"/><rect x="562" y="883" width="13" height="8" fill="#65d9e8" opacity=".65"/><rect x="583" y="898" width="13" height="8" fill="#69716d" opacity=".65"/><rect x="604" y="868" width="13" height="8" fill="#69716d" opacity=".65"/><rect x="625" y="883" width="13" height="8" fill="#69716d" opacity=".65"/><rect x="646" y="898" width="13" height="8" fill="#65d9e8" opacity=".65"/><rect x="667" y="868" width="13" height="8" fill="#69716d" opacity=".65"/><rect x="688" y="883" width="13" height="8" fill="#69716d" opacity=".65"/><rect x="709" y="898" width="13" height="8" fill="#69716d" opacity=".65"/><g transform="rotate(2 226 900)"><rect x="226" y="878" width="96" height="68" fill="#d8d5ca" stroke="#171a18" stroke-width="4"/><path d="M240 900h62m-62 16h46" stroke="#545954" stroke-width="4"/></g><g transform="rotate(3 341 900)"><rect x="341" y="900" width="96" height="68" fill="#d8d5ca" stroke="#171a18" stroke-width="4"/><path d="M355 922h62m-62 16h46" stroke="#545954" stroke-width="4"/></g><g transform="rotate(-4 459 900)"><rect x="459" y="878" width="96" height="68" fill="#d8d5ca" stroke="#171a18" stroke-width="4"/><path d="M473 900h62m-62 16h46" stroke="#545954" stroke-width="4"/></g><g transform="rotate(0 550 900)"><rect x="550" y="900" width="96" height="68" fill="#d8d5ca" stroke="#171a18" stroke-width="4"/><path d="M564 922h62m-62 16h46" stroke="#545954" stroke-width="4"/></g><g transform="rotate(1 676 900)"><rect x="676" y="878" width="96" height="68" fill="#d8d5ca" stroke="#171a18" stroke-width="4"/><path d="M690 900h62m-62 16h46" stroke="#545954" stroke-width="4"/></g><rect x="924" y="864" width="78" height="116" rx="7" fill="#111715" stroke="#414a46" stroke-width="5"/><circle cx="963" cy="890" r="8" fill="#65d9e8" opacity=".7"/><path d="M154 994h238" stroke="#727a75" stroke-width="7"/><circle cx="178" cy="1025" r="18" fill="#65d9e8" opacity=".28"/><rect x="966" y="988" width="128" height="72" fill="#0a0e0c" stroke="#65d9e8" stroke-width="3"/><path d="M984 1016h82m-82 18h54" stroke="#65d9e8" stroke-width="4" opacity=".55"/><text x="82" y="1110" font-family="ui-monospace, SFMono-Regular, Menlo, monospace" font-size="18" fill="#8e9691">SMOKED GLASS / CRESCENT</text></g><rect x="186" y="1180" width="4" height="4" fill="#65d9e8" opacity=".10"/><rect x="1023" y="435" width="4" height="4" fill="#65d9e8" opacity=".10"/><rect x="527" y="652" width="4" height="4" fill="#65d9e8" opacity=".10"/><rect x="774" y="506" width="4" height="4" fill="#65d9e8" opacity=".10"/><rect x="1002" y="349" width="4" height="4" fill="#65d9e8" opacity=".10"/><rect x="972" y="1114" width="4" height="4" fill="#65d9e8" opacity=".10"/><rect x="1070" y="191" width="4" height="4" fill="#65d9e8" opacity=".10"/><rect x="119" y="1112" width="4" height="4" fill="#65d9e8" opacity=".10"/><rect x="303" y="1092" width="4" height="4" fill="#65d9e8" opacity=".10"/><rect x="1180" y="1037" width="4" height="4" fill="#65d9e8" opacity=".10"/><rect x="435" y="1092" width="4" height="4" fill="#65d9e8" opacity=".10"/><rect x="652" y="72" width="4" height="4" fill="#65d9e8" opacity=".10"/><rect x="506" y="246" width="4" height="4" fill="#65d9e8" opacity=".10"/><rect x="349" y="75" width="4" height="4" fill="#65d9e8" opacity=".10"/><rect x="1114" y="1044" width="4" height="4" fill="#65d9e8" opacity=".10"/><rect x="191" y="1034" width="4" height="4" fill="#65d9e8" opacity=".10"/><rect x="1112" y="671" width="4" height="4" fill="#65d9e8" opacity=".10"/><rect x="1092" y="1001" width="4" height="4" fill="#65d9e8" opacity=".10"/><rect x="1037" y="1013" width="4" height="4" fill="#65d9e8" opacity=".10"/><rect x="1092" y="186" width="4" height="4" fill="#65d9e8" opacity=".10"/><rect x="72" y="1023" width="4" height="4" fill="#65d9e8" opacity=".10"/><rect x="246" y="527" width="4" height="4" fill="#65d9e8" opacity=".10"/><rect x="75" y="774" width="4" height="4" fill="#65d9e8" opacity=".10"/><rect x="1044" y="1002" width="4" height="4" fill="#65d9e8" opacity=".10"/><rect x="1034" y="972" width="4" height="4" fill="#65d9e8" opacity=".10"/><rect x="671" y="1070" width="4" height="4" fill="#65d9e8" opacity=".10"/><rect x="1001" y="119" width="4" height="4" fill="#65d9e8" opacity=".10"/><rect x="1013" y="303" width="4" height="4" fill="#65d9e8" opacity=".10"/><rect x="186" y="1180" width="4" height="4" fill="#65d9e8" opacity=".10"/><rect x="1023" y="435" width="4" height="4" fill="#65d9e8" opacity=".10"/><rect x="527" y="652" width="4" height="4" fill="#65d9e8" opacity=".10"/><rect x="774" y="506" width="4" height="4" fill="#65d9e8" opacity=".10"/><rect x="1002" y="349" width="4" height="4" fill="#65d9e8" opacity=".10"/><rect x="972" y="1114" width="4" height="4" fill="#65d9e8" opacity=".10"/><rect x="1070" y="191" width="4" height="4" fill="#65d9e8" opacity=".10"/><rect x="119" y="1112" width="4" height="4" fill="#65d9e8" opacity=".10"/><rect x="303" y="1092" width="4" height="4" fill="#65d9e8" opacity=".10"/><rect x="1180" y="1037" width="4" height="4" fill="#65d9e8" opacity=".10"/><g><rect x="58" y="62" width="188" height="52" rx="5" fill="#090c0b" stroke="#65d9e8" stroke-width="3"/><text x="82" y="96" font-family="ui-monospace, SFMono-Regular, Menlo, monospace" font-weight="800" font-size="22" fill="#f1efe7">IPO #0365</text></g><g><rect x="956" y="62" width="186" height="52" rx="5" fill="#090c0b" stroke="#39423e" stroke-width="3"/><text x="1049" y="95" text-anchor="middle" font-family="ui-monospace, SFMono-Regular, Menlo, monospace" font-size="17" fill="#65d9e8">BF85DC7A</text></g></svg>