<svg xmlns="http://www.w3.org/2000/svg" width="1200" height="1200" viewBox="0 0 1200 1200"><title>IPO-0540 Common Director research desk</title><desc>An architectural IPO research workspace with no people or company affiliation.</desc><rect width="1200" height="1200" fill="#070908"/><rect x="42" y="42" width="1116" height="1116" rx="18" fill="#0c0f0e" stroke="#27302d" stroke-width="6"/><path d="M48 810L380 494h440l332 316v344H48z" fill="#101412" opacity=".92"/><rect x="332" y="104" width="536" height="384" fill="#090d0c" stroke="#303936" stroke-width="7"/><rect x="350" y="201" width="42" height="269" fill="#121817" stroke="#28312e" stroke-width="3"/><rect x="422" y="277" width="42" height="193" fill="#121817" stroke="#28312e" stroke-width="3"/><rect x="494" y="191" width="42" height="279" fill="#121817" stroke="#28312e" stroke-width="3"/><rect x="566" y="216" width="42" height="254" fill="#121817" stroke="#28312e" stroke-width="3"/><rect x="638" y="208" width="42" height="262" fill="#121817" stroke="#28312e" stroke-width="3"/><rect x="710" y="175" width="42" height="295" fill="#121817" stroke="#28312e" stroke-width="3"/><rect x="782" y="189" width="42" height="281" fill="#121817" stroke="#28312e" stroke-width="3"/><path d="M76 742h1048" stroke="#e8eadf" stroke-width="3" opacity=".2"/><rect x="92" y="770" width="1016" height="12" fill="#e8eadf" opacity=".08"/><ellipse cx="600" cy="570" rx="420" ry="210" fill="#e8eadf" opacity=".055"/><path d="M48 890h1110M210 1154l170-336M990 1154L820 818" stroke="#252d2a" stroke-width="4" opacity=".58"/><g><rect x="88" y="154" width="238" height="184" rx="8" fill="#070a09" stroke="#3b4541" stroke-width="6"/><rect x="100" y="166" width="214" height="160" rx="3" fill="#0b100e"/><rect x="110" y="184" width="161" height="5" fill="#e8eadf" opacity=".62"/><rect x="110" y="204" width="73" height="5" fill="#87918c" opacity=".34"/><rect x="110" y="224" width="38" height="5" fill="#e8eadf" opacity=".62"/><rect x="110" y="244" width="89" height="5" fill="#87918c" opacity=".34"/><polyline points="112.0,274.4 139.1,234.4 166.3,258.4 193.4,252.4 220.6,232.4 247.7,257.4 274.9,245.4 302.0,246.4" fill="none" stroke="#e8eadf" stroke-width="5" stroke-linejoin="miter" opacity=".82"/><rect x="200" y="338" width="14" height="42" fill="#2b312f"/><rect x="163" y="376" width="88" height="8" fill="#343c39"/></g><g><rect x="346" y="154" width="238" height="184" rx="8" fill="#070a09" stroke="#3b4541" stroke-width="6"/><rect x="358" y="166" width="214" height="160" rx="3" fill="#0b100e"/><rect x="368" y="184" width="89" height="5" fill="#e8eadf" opacity=".62"/><rect x="368" y="204" width="167" height="5" fill="#87918c" opacity=".34"/><rect x="368" y="224" width="103" height="5" fill="#e8eadf" opacity=".62"/><rect x="368" y="244" width="79" height="5" fill="#87918c" opacity=".34"/><polyline points="370.0,252.4 397.1,232.4 424.3,257.4 451.4,245.4 478.6,246.4 505.7,248.4 532.9,233.4 560.0,248.4" fill="none" stroke="#e8eadf" stroke-width="5" stroke-linejoin="miter" opacity=".82"/><rect x="458" y="338" width="14" height="42" fill="#2b312f"/><rect x="421" y="376" width="88" height="8" fill="#343c39"/></g><g><rect x="604" y="154" width="238" height="184" rx="8" fill="#070a09" stroke="#3b4541" stroke-width="6"/><rect x="616" y="166" width="214" height="160" rx="3" fill="#0b100e"/><rect x="626" y="184" width="79" height="5" fill="#e8eadf" opacity=".62"/><rect x="626" y="204" width="169" height="5" fill="#87918c" opacity=".34"/><rect x="626" y="224" width="89" height="5" fill="#e8eadf" opacity=".62"/><rect x="626" y="244" width="109" height="5" fill="#87918c" opacity=".34"/><polyline points="628.0,245.4 655.1,246.4 682.3,248.4 709.4,233.4 736.6,248.4 763.7,270.4 790.9,232.4 818.0,272.4" fill="none" stroke="#e8eadf" stroke-width="5" stroke-linejoin="miter" opacity=".82"/><rect x="716" y="338" width="14" height="42" fill="#2b312f"/><rect x="679" y="376" width="88" height="8" fill="#343c39"/></g><g><rect x="862" y="154" width="238" height="184" rx="8" fill="#070a09" stroke="#3b4541" stroke-width="6"/><rect x="874" y="166" width="214" height="160" rx="3" fill="#0b100e"/><rect x="884" y="184" width="109" height="5" fill="#e8eadf" opacity=".62"/><rect x="884" y="204" width="65" height="5" fill="#87918c" opacity=".34"/><rect x="884" y="224" width="85" height="5" fill="#e8eadf" opacity=".62"/><rect x="884" y="244" width="177" height="5" fill="#87918c" opacity=".34"/><polyline points="886.0,233.4 913.1,248.4 940.3,270.4 967.4,232.4 994.6,272.4 1021.7,222.4 1048.9,244.4 1076.0,266.4" fill="none" stroke="#e8eadf" stroke-width="5" stroke-linejoin="miter" opacity=".82"/><rect x="974" y="338" width="14" height="42" fill="#2b312f"/><rect x="937" y="376" width="88" height="8" fill="#343c39"/></g><g><rect x="218" y="390" width="270" height="194" rx="8" fill="#070a09" stroke="#3b4541" stroke-width="6"/><rect x="230" y="402" width="246" height="170" rx="3" fill="#0b100e"/><rect x="240" y="420" width="115" height="5" fill="#e8eadf" opacity=".62"/><rect x="240" y="440" width="179" height="5" fill="#87918c" opacity=".34"/><rect x="240" y="460" width="71" height="5" fill="#e8eadf" opacity=".62"/><rect x="240" y="480" width="208" height="5" fill="#87918c" opacity=".34"/><polyline points="242.0,494.0 273.7,504.0 305.4,509.0 337.1,510.0 368.9,487.0 400.6,481.0 432.3,495.0 464.0,517.0" fill="none" stroke="#e8eadf" stroke-width="5" stroke-linejoin="miter" opacity=".82"/><rect x="346" y="584" width="14" height="42" fill="#2b312f"/><rect x="309" y="622" width="88" height="8" fill="#343c39"/></g><g><rect x="508" y="390" width="270" height="194" rx="8" fill="#070a09" stroke="#3b4541" stroke-width="6"/><rect x="520" y="402" width="246" height="170" rx="3" fill="#0b100e"/><rect x="530" y="420" width="208" height="5" fill="#e8eadf" opacity=".62"/><rect x="530" y="440" width="215" height="5" fill="#87918c" opacity=".34"/><rect x="530" y="460" width="123" height="5" fill="#e8eadf" opacity=".62"/><rect x="530" y="480" width="140" height="5" fill="#87918c" opacity=".34"/><polyline points="532.0,510.0 563.7,487.0 595.4,481.0 627.1,495.0 658.9,517.0 690.6,483.0 722.3,461.0 754.0,509.0" fill="none" stroke="#e8eadf" stroke-width="5" stroke-linejoin="miter" opacity=".82"/><rect x="636" y="584" width="14" height="42" fill="#2b312f"/><rect x="599" y="622" width="88" height="8" fill="#343c39"/></g><g><path d="M86 754H1114l70 300H16z" fill="#111514" stroke="#252d2a" stroke-width="10"/><path d="M118 790H1082l34 176H84z" fill="#151a18" stroke="#343c38" stroke-width="4"/><path d="M152 816H1048" stroke="#e8eadf" stroke-width="5" opacity=".55"/><rect x="450" y="840" width="300" height="94" rx="8" fill="#080b0a" stroke="#3a423f" stroke-width="6"/><rect x="478" y="868" width="13" height="8" fill="#e8eadf" opacity=".65"/><rect x="499" y="883" width="13" height="8" fill="#69716d" opacity=".65"/><rect x="520" y="898" width="13" height="8" fill="#69716d" opacity=".65"/><rect x="541" y="868" width="13" height="8" fill="#69716d" opacity=".65"/><rect x="562" y="883" width="13" height="8" fill="#e8eadf" opacity=".65"/><rect x="583" y="898" width="13" height="8" fill="#69716d" opacity=".65"/><rect x="604" y="868" width="13" height="8" fill="#69716d" opacity=".65"/><rect x="625" y="883" width="13" height="8" fill="#69716d" opacity=".65"/><rect x="646" y="898" width="13" height="8" fill="#e8eadf" opacity=".65"/><rect x="667" y="868" width="13" height="8" fill="#69716d" opacity=".65"/><rect x="688" y="883" width="13" height="8" fill="#69716d" opacity=".65"/><rect x="709" y="898" width="13" height="8" fill="#69716d" opacity=".65"/><g transform="rotate(3 229 900)"><rect x="229" y="878" width="96" height="68" fill="#d8d5ca" stroke="#171a18" stroke-width="4"/><path d="M243 900h62m-62 16h46" stroke="#545954" stroke-width="4"/></g><g transform="rotate(2 329 900)"><rect x="329" y="900" width="96" height="68" fill="#d8d5ca" stroke="#171a18" stroke-width="4"/><path d="M343 922h62m-62 16h46" stroke="#545954" stroke-width="4"/></g><g transform="rotate(-1 463 900)"><rect x="463" y="878" width="96" height="68" fill="#d8d5ca" stroke="#171a18" stroke-width="4"/><path d="M477 900h62m-62 16h46" stroke="#545954" stroke-width="4"/></g><g transform="rotate(3 563 900)"><rect x="563" y="900" width="96" height="68" fill="#d8d5ca" stroke="#171a18" stroke-width="4"/><path d="M577 922h62m-62 16h46" stroke="#545954" stroke-width="4"/></g><g transform="rotate(4 655 900)"><rect x="655" y="878" width="96" height="68" fill="#d8d5ca" stroke="#171a18" stroke-width="4"/><path d="M669 900h62m-62 16h46" stroke="#545954" stroke-width="4"/></g><rect x="944" y="864" width="78" height="116" rx="7" fill="#111715" stroke="#414a46" stroke-width="5"/><circle cx="983" cy="890" r="8" fill="#e8eadf" opacity=".7"/><path d="M154 994h238" stroke="#727a75" stroke-width="7"/><circle cx="178" cy="1025" r="18" fill="#e8eadf" opacity=".28"/><rect x="966" y="988" width="128" height="72" fill="#0a0e0c" stroke="#e8eadf" stroke-width="3"/><path d="M984 1016h82m-82 18h54" stroke="#e8eadf" stroke-width="4" opacity=".55"/><text x="82" y="1110" font-family="ui-monospace, SFMono-Regular, Menlo, monospace" font-size="18" fill="#8e9691">MATTE BLACK / MODULAR</text></g><rect x="887" y="816" width="4" height="4" fill="#e8eadf" opacity=".10"/><rect x="805" y="291" width="4" height="4" fill="#e8eadf" opacity=".10"/><rect x="189" y="343" width="4" height="4" fill="#e8eadf" opacity=".10"/><rect x="1163" y="599" width="4" height="4" fill="#e8eadf" opacity=".10"/><rect x="449" y="299" width="4" height="4" fill="#e8eadf" opacity=".10"/><rect x="324" y="549" width="4" height="4" fill="#e8eadf" opacity=".10"/><rect x="682" y="1133" width="4" height="4" fill="#e8eadf" opacity=".10"/><rect x="215" y="341" width="4" height="4" fill="#e8eadf" opacity=".10"/><rect x="451" y="487" width="4" height="4" fill="#e8eadf" opacity=".10"/><rect x="816" y="1133" width="4" height="4" fill="#e8eadf" opacity=".10"/><rect x="291" y="431" width="4" height="4" fill="#e8eadf" opacity=".10"/><rect x="343" y="395" width="4" height="4" fill="#e8eadf" opacity=".10"/><rect x="599" y="747" width="4" height="4" fill="#e8eadf" opacity=".10"/><rect x="299" y="634" width="4" height="4" fill="#e8eadf" opacity=".10"/><rect x="549" y="641" width="4" height="4" fill="#e8eadf" opacity=".10"/><rect x="1133" y="909" width="4" height="4" fill="#e8eadf" opacity=".10"/><rect x="341" y="1026" width="4" height="4" fill="#e8eadf" opacity=".10"/><rect x="487" y="161" width="4" height="4" fill="#e8eadf" opacity=".10"/><rect x="1133" y="754" width="4" height="4" fill="#e8eadf" opacity=".10"/><rect x="431" y="887" width="4" height="4" fill="#e8eadf" opacity=".10"/><rect x="395" y="805" width="4" height="4" fill="#e8eadf" opacity=".10"/><rect x="747" y="189" width="4" height="4" fill="#e8eadf" opacity=".10"/><rect x="634" y="1163" width="4" height="4" fill="#e8eadf" opacity=".10"/><rect x="641" y="449" width="4" height="4" fill="#e8eadf" opacity=".10"/><rect x="909" y="324" width="4" height="4" fill="#e8eadf" opacity=".10"/><rect x="1026" y="682" width="4" height="4" fill="#e8eadf" opacity=".10"/><rect x="161" y="215" width="4" height="4" fill="#e8eadf" opacity=".10"/><rect x="754" y="451" width="4" height="4" fill="#e8eadf" opacity=".10"/><rect x="887" y="816" width="4" height="4" fill="#e8eadf" opacity=".10"/><rect x="805" y="291" width="4" height="4" fill="#e8eadf" opacity=".10"/><rect x="189" y="343" width="4" height="4" fill="#e8eadf" opacity=".10"/><rect x="1163" y="599" width="4" height="4" fill="#e8eadf" opacity=".10"/><rect x="449" y="299" width="4" height="4" fill="#e8eadf" opacity=".10"/><rect x="324" y="549" width="4" height="4" fill="#e8eadf" opacity=".10"/><rect x="682" y="1133" width="4" height="4" fill="#e8eadf" opacity=".10"/><rect x="215" y="341" width="4" height="4" fill="#e8eadf" opacity=".10"/><rect x="451" y="487" width="4" height="4" fill="#e8eadf" opacity=".10"/><rect x="816" y="1133" width="4" height="4" fill="#e8eadf" opacity=".10"/><g><rect x="58" y="62" width="188" height="52" rx="5" fill="#090c0b" stroke="#e8eadf" stroke-width="3"/><text x="82" y="96" font-family="ui-monospace, SFMono-Regular, Menlo, monospace" font-weight="800" font-size="22" fill="#f1efe7">IPO #0540</text></g><g><rect x="956" y="62" width="186" height="52" rx="5" fill="#090c0b" stroke="#39423e" stroke-width="3"/><text x="1049" y="95" text-anchor="middle" font-family="ui-monospace, SFMono-Regular, Menlo, monospace" font-size="17" fill="#e8eadf">F6AB69D7</text></g></svg>