<svg xmlns="http://www.w3.org/2000/svg" width="1200" height="1200" viewBox="0 0 1200 1200"><title>IPO-1075 Rare Analyst launch console</title><desc>An architectural IPO launch chamber and research workspace with no people or company affiliation.</desc><defs><linearGradient id="wall" x1="0" y1="0" x2="0" y2="1"><stop stop-color="#050706"/><stop offset="1" stop-color="#17201c"/></linearGradient><linearGradient id="desk" x1="0" y1="0" x2="1" y2="1"><stop stop-color="#ffffff" stop-opacity=".34"/><stop offset=".16" stop-color="#d9d7ce"/><stop offset="1" stop-color="#1c201e"/></linearGradient><radialGradient id="pool"><stop stop-color="#63dec1" stop-opacity=".28"/><stop offset="1" stop-color="#63dec1" stop-opacity="0"/></radialGradient><filter id="glow"><feGaussianBlur stdDeviation="10" result="b"/><feMerge><feMergeNode in="b"/><feMergeNode in="SourceGraphic"/></feMerge></filter></defs><rect width="1200" height="1200" fill="#050706"/><rect x="34" y="34" width="1132" height="1132" fill="url(#wall)" stroke="#303a35" stroke-width="7"/><path d="M34 728L412 470h376l378 258v438H34z" fill="#0b100e"/><path d="M94 116L407.72 546" stroke="#323b37" stroke-width="9" opacity=".58"/><path d="M220 116L455.6 546" stroke="#323b37" stroke-width="5" opacity=".58"/><path d="M346 116L503.48 546" stroke="#323b37" stroke-width="9" opacity=".58"/><path d="M472 116L551.36 546" stroke="#323b37" stroke-width="5" opacity=".58"/><path d="M598 116L599.24 546" stroke="#323b37" stroke-width="9" opacity=".58"/><path d="M724 116L647.12 546" stroke="#323b37" stroke-width="5" opacity=".58"/><path d="M850 116L695 546" stroke="#323b37" stroke-width="9" opacity=".58"/><path d="M976 116L742.88 546" stroke="#323b37" stroke-width="5" opacity=".58"/><path d="M1102 116L790.76 546" stroke="#323b37" stroke-width="9" opacity=".58"/><path d="M70 188h270M860 188h270" stroke="#4a4035" stroke-width="6"/><rect x="95" y="160" width="16" height="25" fill="#b9ff39" opacity=".38"/><path d="M70 234h270M860 234h270" stroke="#4a4035" stroke-width="6"/><rect x="126" y="206" width="16" height="25" fill="#63dec1" opacity=".38"/><path d="M70 280h270M860 280h270" stroke="#4a4035" stroke-width="6"/><rect x="157" y="252" width="16" height="25" fill="#b9ff39" opacity=".38"/><path d="M70 326h270M860 326h270" stroke="#4a4035" stroke-width="6"/><rect x="188" y="298" width="16" height="25" fill="#63dec1" opacity=".38"/><path d="M70 372h270M860 372h270" stroke="#4a4035" stroke-width="6"/><rect x="219" y="344" width="16" height="25" fill="#b9ff39" opacity=".38"/><path d="M70 418h270M860 418h270" stroke="#4a4035" stroke-width="6"/><rect x="250" y="390" width="16" height="25" fill="#63dec1" opacity=".38"/><ellipse cx="600" cy="650" rx="470" ry="260" fill="url(#pool)"/><path d="M34 772h1132M78 1166L414 486M1122 1166L786 486" stroke="#34403a" stroke-width="4" opacity=".48"/><path d="M122 1114L600 758l478 356" fill="none" stroke="#b9ff39" stroke-width="3" opacity=".16"/><g transform="translate(112 360) scale(0.78 0.78)"><path d="M0 24L220 0V168L0 192Z" fill="#070a09" stroke="#5b6560" stroke-width="6"/><path d="M14 34L206 14V154L14 174Z" fill="#0d1512" stroke="#63dec1" stroke-width="2" opacity=".96"/><path d="M26 48H116" stroke="#b9ff39" stroke-width="6" opacity=".7"/><path d="M26 57H82" stroke="#88908b" stroke-width="4" opacity=".38"/><polyline points="26,71 50,110 74,93 98,76 122,117 146,113 170,87 194,102" fill="none" stroke="#63dec1" stroke-width="5" stroke-linejoin="bevel"/><rect x="30" y="129" width="12" height="13" fill="#63dec1" opacity=".58"/><rect x="55" y="110" width="12" height="32" fill="#b9ff39" opacity=".32"/><rect x="80" y="131" width="12" height="11" fill="#63dec1" opacity=".58"/><rect x="105" y="110" width="12" height="32" fill="#b9ff39" opacity=".32"/><rect x="130" y="109" width="12" height="33" fill="#63dec1" opacity=".58"/><rect x="155" y="97" width="12" height="45" fill="#b9ff39" opacity=".32"/><path d="M84 184h54l18 45H62z" fill="#1f2522" stroke="#4f5954" stroke-width="4"/></g><g transform="translate(1088 360) scale(-0.78 0.78)"><path d="M0 24L220 0V168L0 192Z" fill="#070a09" stroke="#5b6560" stroke-width="6"/><path d="M14 34L206 14V154L14 174Z" fill="#0d1512" stroke="#63dec1" stroke-width="2" opacity=".96"/><path d="M26 48H116" stroke="#b9ff39" stroke-width="6" opacity=".7"/><path d="M26 57H82" stroke="#88908b" stroke-width="4" opacity=".38"/><polyline points="26,76 50,117 74,113 98,87 122,102 146,67 170,94 194,81" fill="none" stroke="#63dec1" stroke-width="5" stroke-linejoin="bevel"/><rect x="30" y="110" width="12" height="32" fill="#63dec1" opacity=".58"/><rect x="55" y="131" width="12" height="11" fill="#b9ff39" opacity=".32"/><rect x="80" y="110" width="12" height="32" fill="#63dec1" opacity=".58"/><rect x="105" y="109" width="12" height="33" fill="#b9ff39" opacity=".32"/><rect x="130" y="97" width="12" height="45" fill="#63dec1" opacity=".58"/><rect x="155" y="112" width="12" height="30" fill="#b9ff39" opacity=".32"/><path d="M84 184h54l18 45H62z" fill="#1f2522" stroke="#4f5954" stroke-width="4"/></g><g transform="translate(250 238) scale(0.66 0.66)"><path d="M0 24L220 0V168L0 192Z" fill="#070a09" stroke="#5b6560" stroke-width="6"/><path d="M14 34L206 14V154L14 174Z" fill="#0d1512" stroke="#63dec1" stroke-width="2" opacity=".96"/><path d="M26 48H116" stroke="#b9ff39" stroke-width="6" opacity=".7"/><path d="M26 57H82" stroke="#88908b" stroke-width="4" opacity=".38"/><polyline points="26,87 50,102 74,67 98,94 122,81 146,101 170,82 194,101" fill="none" stroke="#63dec1" stroke-width="5" stroke-linejoin="bevel"/><rect x="30" y="131" width="12" height="11" fill="#63dec1" opacity=".58"/><rect x="55" y="110" width="12" height="32" fill="#b9ff39" opacity=".32"/><rect x="80" y="109" width="12" height="33" fill="#63dec1" opacity=".58"/><rect x="105" y="97" width="12" height="45" fill="#b9ff39" opacity=".32"/><rect x="130" y="112" width="12" height="30" fill="#63dec1" opacity=".58"/><rect x="155" y="103" width="12" height="39" fill="#b9ff39" opacity=".32"/><path d="M84 184h54l18 45H62z" fill="#1f2522" stroke="#4f5954" stroke-width="4"/></g><g transform="translate(950 238) scale(-0.66 0.66)"><path d="M0 24L220 0V168L0 192Z" fill="#070a09" stroke="#5b6560" stroke-width="6"/><path d="M14 34L206 14V154L14 174Z" fill="#0d1512" stroke="#63dec1" stroke-width="2" opacity=".96"/><path d="M26 48H116" stroke="#b9ff39" stroke-width="6" opacity=".7"/><path d="M26 57H82" stroke="#88908b" stroke-width="4" opacity=".38"/><polyline points="26,94 50,81 74,101 98,82 122,101 146,113 170,99 194,91" fill="none" stroke="#63dec1" stroke-width="5" stroke-linejoin="bevel"/><rect x="30" y="110" width="12" height="32" fill="#63dec1" opacity=".58"/><rect x="55" y="109" width="12" height="33" fill="#b9ff39" opacity=".32"/><rect x="80" y="97" width="12" height="45" fill="#63dec1" opacity=".58"/><rect x="105" y="112" width="12" height="30" fill="#b9ff39" opacity=".32"/><rect x="130" y="103" width="12" height="39" fill="#63dec1" opacity=".58"/><rect x="155" y="107" width="12" height="35" fill="#b9ff39" opacity=".32"/><path d="M84 184h54l18 45H62z" fill="#1f2522" stroke="#4f5954" stroke-width="4"/></g><g><path d="M600 646C688 584 796 346 1014 156" fill="none" stroke="#202724" stroke-width="38"/><path d="M600 646C688 584 796 346 1014 156" fill="none" stroke="#63dec1" stroke-width="10" filter="url(#glow)"/><path d="M600 646C512 584 404 346 186 156" fill="none" stroke="#202724" stroke-width="30"/><path d="M600 646C512 584 404 346 186 156" fill="none" stroke="#b9ff39" stroke-width="7" opacity=".82"/><g transform="translate(646 602)"><ellipse rx="24" ry="10" fill="#111613" stroke="#63dec1" stroke-width="4"/><path d="M0-18v36" stroke="#63dec1" stroke-width="3" opacity=".75"/></g><g transform="translate(723.5 517)"><ellipse rx="24" ry="10" fill="#111613" stroke="#63dec1" stroke-width="4"/><path d="M0-18v36" stroke="#63dec1" stroke-width="3" opacity=".75"/></g><g transform="translate(801 432)"><ellipse rx="24" ry="10" fill="#111613" stroke="#63dec1" stroke-width="4"/><path d="M0-18v36" stroke="#63dec1" stroke-width="3" opacity=".75"/></g><g transform="translate(878.5 347)"><ellipse rx="24" ry="10" fill="#111613" stroke="#63dec1" stroke-width="4"/><path d="M0-18v36" stroke="#63dec1" stroke-width="3" opacity=".75"/></g><g transform="translate(956 262)"><ellipse rx="24" ry="10" fill="#111613" stroke="#63dec1" stroke-width="4"/><path d="M0-18v36" stroke="#63dec1" stroke-width="3" opacity=".75"/></g></g><g><path d="M104 688L600 566l496 122 76 392H28z" fill="url(#desk)" stroke="#817f77" stroke-width="10"/><path d="M142 742L600 632l458 110 42 252H100z" fill="#1c201e" stroke="#3c4540" stroke-width="5"/><path d="M92 822h86l28 168H70zM1022 822h86l22 168h-108z" fill="#1c201e" stroke="#817f77" stroke-width="6"/><path d="M107 862h65M1036 862h58" stroke="#63dec1" stroke-width="8"/><ellipse cx="600" cy="700" rx="274" ry="162.36" fill="#070a09" stroke="#817f77" stroke-width="8"/><ellipse cx="600" cy="690" rx="220" ry="74" fill="none" stroke="#63dec1" stroke-width="8" opacity="0.52"/><ellipse cx="600" cy="680" rx="244" ry="85" fill="none" stroke="#b9ff39" stroke-width="7" opacity="0.44"/><ellipse cx="600" cy="670" rx="268" ry="96" fill="none" stroke="#63dec1" stroke-width="6" opacity="0.36"/><ellipse cx="600" cy="676" rx="178" ry="96.12" fill="#0c1511" stroke="#63dec1" stroke-width="9" filter="url(#glow)"/><ellipse cx="600" cy="664" rx="140" ry="60.52" fill="#63dec1" opacity=".12"/><g transform="translate(600 646)"><ellipse rx="58" ry="24" fill="#dfe4dc" fill-opacity=".16" stroke="#eff5ee" stroke-width="5"/><path d="M-46 0h92M0-22v44" stroke="#63dec1" stroke-width="5"/><ellipse cy="-18" rx="38" ry="15" fill="#63dec1" opacity=".18"/></g><path d="M420 834h360l34 102H386z" fill="#090c0b" stroke="#56605b" stroke-width="6"/><rect x="430" y="858" width="15" height="10" fill="#63dec1" opacity=".72"/><rect x="454" y="876" width="15" height="10" fill="#707873" opacity=".72"/><rect x="478" y="894" width="15" height="10" fill="#707873" opacity=".72"/><rect x="502" y="858" width="15" height="10" fill="#707873" opacity=".72"/><rect x="526" y="876" width="15" height="10" fill="#707873" opacity=".72"/><rect x="550" y="894" width="15" height="10" fill="#63dec1" opacity=".72"/><rect x="574" y="858" width="15" height="10" fill="#707873" opacity=".72"/><rect x="598" y="876" width="15" height="10" fill="#707873" opacity=".72"/><rect x="622" y="894" width="15" height="10" fill="#707873" opacity=".72"/><rect x="646" y="858" width="15" height="10" fill="#707873" opacity=".72"/><rect x="670" y="876" width="15" height="10" fill="#63dec1" opacity=".72"/><rect x="694" y="894" width="15" height="10" fill="#707873" opacity=".72"/><rect x="718" y="858" width="15" height="10" fill="#707873" opacity=".72"/><rect x="742" y="876" width="15" height="10" fill="#707873" opacity=".72"/><g transform="translate(182 904) rotate(-4)"><path d="M0 0h88l16 58H14z" fill="#dedbd0" stroke="#292d2a" stroke-width="4"/><path d="M17 18h52M21 31h61M25 44h37" stroke="#626862" stroke-width="4"/></g><g transform="translate(290 924) rotate(2)"><path d="M0 0h88l16 58H14z" fill="#dedbd0" stroke="#292d2a" stroke-width="4"/><path d="M17 18h52M21 31h61M25 44h37" stroke="#626862" stroke-width="4"/></g><g transform="translate(398 904) rotate(2)"><path d="M0 0h88l16 58H14z" fill="#dedbd0" stroke="#292d2a" stroke-width="4"/><path d="M17 18h52M21 31h61M25 44h37" stroke="#626862" stroke-width="4"/></g><g transform="translate(506 924) rotate(-2)"><path d="M0 0h88l16 58H14z" fill="#dedbd0" stroke="#292d2a" stroke-width="4"/><path d="M17 18h52M21 31h61M25 44h37" stroke="#626862" stroke-width="4"/></g><g transform="translate(918 888)"><path d="M0 0h104l20 126H16z" fill="#101714" stroke="#b9ff39" stroke-width="5"/><circle cx="58" cy="38" r="12" fill="#63dec1" opacity=".72"/><path d="M32 72h58M38 89h42" stroke="#8d9690" stroke-width="5"/></g></g><rect x="1019" y="311" width="8" height="4" fill="#b9ff39" opacity=".12"/><rect x="678" y="1016" width="4" height="4" fill="#63dec1" opacity=".12"/><rect x="686" y="475" width="4" height="4" fill="#63dec1" opacity=".12"/><rect x="471" y="866" width="4" height="4" fill="#b9ff39" opacity=".12"/><rect x="592" y="1069" width="8" height="4" fill="#63dec1" opacity=".12"/><rect x="805" y="485" width="4" height="4" fill="#63dec1" opacity=".12"/><rect x="450" y="928" width="4" height="4" fill="#b9ff39" opacity=".12"/><rect x="379" y="673" width="4" height="4" fill="#63dec1" opacity=".12"/><rect x="345" y="405" width="8" height="4" fill="#63dec1" opacity=".12"/><rect x="311" y="1053" width="4" height="4" fill="#b9ff39" opacity=".12"/><rect x="1016" y="201" width="4" height="4" fill="#63dec1" opacity=".12"/><rect x="475" y="524" width="4" height="4" fill="#63dec1" opacity=".12"/><rect x="866" y="863" width="8" height="4" fill="#b9ff39" opacity=".12"/><rect x="1069" y="133" width="4" height="4" fill="#63dec1" opacity=".12"/><rect x="485" y="564" width="4" height="4" fill="#63dec1" opacity=".12"/><rect x="928" y="993" width="4" height="4" fill="#b9ff39" opacity=".12"/><rect x="673" y="365" width="8" height="4" fill="#63dec1" opacity=".12"/><rect x="405" y="375" width="4" height="4" fill="#63dec1" opacity=".12"/><rect x="1053" y="1026" width="4" height="4" fill="#b9ff39" opacity=".12"/><rect x="201" y="1019" width="4" height="4" fill="#63dec1" opacity=".12"/><rect x="524" y="678" width="8" height="4" fill="#63dec1" opacity=".12"/><rect x="863" y="686" width="4" height="4" fill="#b9ff39" opacity=".12"/><rect x="133" y="471" width="4" height="4" fill="#63dec1" opacity=".12"/><rect x="564" y="592" width="4" height="4" fill="#63dec1" opacity=".12"/><rect x="993" y="805" width="8" height="4" fill="#b9ff39" opacity=".12"/><rect x="365" y="450" width="4" height="4" fill="#63dec1" opacity=".12"/><rect x="375" y="379" width="4" height="4" fill="#63dec1" opacity=".12"/><rect x="1026" y="345" width="4" height="4" fill="#b9ff39" opacity=".12"/><rect x="1019" y="311" width="8" height="4" fill="#63dec1" opacity=".12"/><rect x="678" y="1016" width="4" height="4" fill="#63dec1" opacity=".12"/><rect x="686" y="475" width="4" height="4" fill="#b9ff39" opacity=".12"/><rect x="471" y="866" width="4" height="4" fill="#63dec1" opacity=".12"/><rect x="592" y="1069" width="8" height="4" fill="#63dec1" opacity=".12"/><rect x="805" y="485" width="4" height="4" fill="#b9ff39" opacity=".12"/><rect x="450" y="928" width="4" height="4" fill="#63dec1" opacity=".12"/><rect x="379" y="673" width="4" height="4" fill="#63dec1" opacity=".12"/><rect x="345" y="405" width="8" height="4" fill="#b9ff39" opacity=".12"/><rect x="311" y="1053" width="4" height="4" fill="#63dec1" opacity=".12"/><rect x="1016" y="201" width="4" height="4" fill="#63dec1" opacity=".12"/><rect x="475" y="524" width="4" height="4" fill="#b9ff39" opacity=".12"/><rect x="866" y="863" width="8" height="4" fill="#63dec1" opacity=".12"/><rect x="1069" y="133" width="4" height="4" fill="#63dec1" opacity=".12"/><rect x="485" y="564" width="4" height="4" fill="#b9ff39" opacity=".12"/><rect x="928" y="993" width="4" height="4" fill="#63dec1" opacity=".12"/><g><path d="M58 58h216v58H58z" fill="#070a09" stroke="#63dec1" stroke-width="3"/><text x="82" y="96" font-family="ui-monospace, SFMono-Regular, Menlo, monospace" font-weight="800" font-size="22" fill="#f1efe7">IPO #1075</text></g><g><path d="M942 58h200v58H942z" fill="#070a09" stroke="#46504b" stroke-width="3"/><text x="1042" y="95" text-anchor="middle" font-family="ui-monospace, SFMono-Regular, Menlo, monospace" font-size="17" fill="#63dec1">A7164B9B</text></g><text x="82" y="1130" font-family="ui-monospace, SFMono-Regular, Menlo, monospace" font-size="17" fill="#89918c">WHITE CERAMIC / SPLIT ARC</text></svg>