<svg xmlns="http://www.w3.org/2000/svg" width="1200" height="1200" viewBox="0 0 1200 1200"><title>IPO-0903 Common Member research desk</title><desc>An architectural IPO research workspace with no people or company affiliation.</desc><rect width="1200" height="1200" fill="#070908"/><rect x="42" y="42" width="1116" height="1116" rx="18" fill="#0c0f0e" stroke="#27302d" stroke-width="6"/><path d="M48 810L380 494h440l332 316v344H48z" fill="#101412" opacity=".92"/><rect x="332" y="104" width="536" height="384" fill="#090d0c" stroke="#303936" stroke-width="7"/><rect x="350" y="343" width="42" height="127" fill="#121817" stroke="#28312e" stroke-width="3"/><rect x="422" y="349" width="42" height="121" fill="#121817" stroke="#28312e" stroke-width="3"/><rect x="494" y="230" width="42" height="240" fill="#121817" stroke="#28312e" stroke-width="3"/><rect x="566" y="297" width="42" height="173" fill="#121817" stroke="#28312e" stroke-width="3"/><rect x="638" y="218" width="42" height="252" fill="#121817" stroke="#28312e" stroke-width="3"/><rect x="710" y="321" width="42" height="149" fill="#121817" stroke="#28312e" stroke-width="3"/><rect x="782" y="157" width="42" height="313" fill="#121817" stroke="#28312e" stroke-width="3"/><path d="M350 231l-18 54" stroke="#a9c7c1" stroke-width="3" opacity=".18"/><path d="M393 202l-18 54" stroke="#a9c7c1" stroke-width="3" opacity=".18"/><path d="M436 207l-18 54" stroke="#a9c7c1" stroke-width="3" opacity=".18"/><path d="M479 121l-18 54" stroke="#a9c7c1" stroke-width="3" opacity=".18"/><path d="M522 270l-18 54" stroke="#a9c7c1" stroke-width="3" opacity=".18"/><path d="M565 243l-18 54" stroke="#a9c7c1" stroke-width="3" opacity=".18"/><path d="M608 252l-18 54" stroke="#a9c7c1" stroke-width="3" opacity=".18"/><path d="M651 129l-18 54" stroke="#a9c7c1" stroke-width="3" opacity=".18"/><path d="M694 203l-18 54" stroke="#a9c7c1" stroke-width="3" opacity=".18"/><path d="M737 135l-18 54" stroke="#a9c7c1" stroke-width="3" opacity=".18"/><path d="M780 244l-18 54" stroke="#a9c7c1" stroke-width="3" opacity=".18"/><path d="M823 302l-18 54" stroke="#a9c7c1" stroke-width="3" opacity=".18"/><path d="M366 250l-18 54" stroke="#a9c7c1" stroke-width="3" opacity=".18"/><path d="M409 179l-18 54" stroke="#a9c7c1" stroke-width="3" opacity=".18"/><path d="M452 152l-18 54" stroke="#a9c7c1" stroke-width="3" opacity=".18"/><path d="M495 170l-18 54" stroke="#a9c7c1" stroke-width="3" opacity=".18"/><path d="M538 258l-18 54" stroke="#a9c7c1" stroke-width="3" opacity=".18"/><path d="M581 251l-18 54" stroke="#a9c7c1" stroke-width="3" opacity=".18"/><path d="M624 132l-18 54" stroke="#a9c7c1" stroke-width="3" opacity=".18"/><path d="M667 219l-18 54" stroke="#a9c7c1" stroke-width="3" opacity=".18"/><path d="M710 149l-18 54" stroke="#a9c7c1" stroke-width="3" opacity=".18"/><path d="M753 227l-18 54" stroke="#a9c7c1" stroke-width="3" opacity=".18"/><path d="M796 226l-18 54" stroke="#a9c7c1" stroke-width="3" opacity=".18"/><path d="M839 183l-18 54" stroke="#a9c7c1" stroke-width="3" opacity=".18"/><ellipse cx="600" cy="570" rx="308" ry="210" fill="#65d9e8" opacity=".055"/><path d="M48 890h1110M210 1154l170-336M990 1154L820 818" stroke="#252d2a" stroke-width="4" opacity=".58"/><g><rect x="350" y="280" width="500" height="300" rx="8" fill="#070a09" stroke="#3b4541" stroke-width="6"/><rect x="362" y="292" width="476" height="276" rx="3" fill="#0b100e"/><rect x="372" y="310" width="327" height="5" fill="#65d9e8" opacity=".62"/><rect x="372" y="330" width="49" height="5" fill="#87918c" opacity=".34"/><rect x="372" y="350" width="158" height="5" fill="#65d9e8" opacity=".62"/><rect x="372" y="370" width="216" height="5" fill="#87918c" opacity=".34"/><polyline points="374.0,432.0 438.6,445.0 503.1,459.0 567.7,478.0 632.3,445.0 696.9,436.0 761.4,463.0 826.0,425.0" fill="none" stroke="#65d9e8" stroke-width="5" stroke-linejoin="miter" opacity=".82"/><rect x="593" y="580" width="14" height="42" fill="#2b312f"/><rect x="556" y="618" width="88" height="8" fill="#343c39"/></g><g><rect x="842" y="350" width="230" height="170" rx="8" fill="#070a09" stroke="#3b4541" stroke-width="6"/><rect x="854" y="362" width="206" height="146" rx="3" fill="#0b100e"/><rect x="864" y="380" width="93" height="5" fill="#65d9e8" opacity=".62"/><rect x="864" y="400" width="36" height="5" fill="#87918c" opacity=".34"/><rect x="864" y="420" width="114" height="5" fill="#65d9e8" opacity=".62"/><rect x="864" y="440" width="172" height="5" fill="#87918c" opacity=".34"/><polyline points="866.0,435.2 892.0,438.2 918.0,418.2 944.0,411.2 970.0,425.2 996.0,424.2 1022.0,407.2 1048.0,406.2" fill="none" stroke="#65d9e8" stroke-width="5" stroke-linejoin="miter" opacity=".82"/><rect x="950" y="520" width="14" height="42" fill="#2b312f"/><rect x="913" y="558" width="88" height="8" fill="#343c39"/></g><g><path d="M86 754H1114l70 300H16z" fill="#231b17" stroke="#6d4c37" stroke-width="10"/><path d="M118 790H1082l34 176H84z" fill="#151a18" stroke="#343c38" stroke-width="4"/><path d="M152 816H1048" stroke="#65d9e8" stroke-width="5" opacity=".55"/><rect x="450" y="840" width="300" height="94" rx="8" fill="#080b0a" stroke="#3a423f" stroke-width="6"/><rect x="478" y="868" width="13" height="8" fill="#65d9e8" opacity=".65"/><rect x="499" y="883" width="13" height="8" fill="#69716d" opacity=".65"/><rect x="520" y="898" width="13" height="8" fill="#69716d" opacity=".65"/><rect x="541" y="868" width="13" height="8" fill="#69716d" opacity=".65"/><rect x="562" y="883" width="13" height="8" fill="#65d9e8" opacity=".65"/><rect x="583" y="898" width="13" height="8" fill="#69716d" opacity=".65"/><rect x="604" y="868" width="13" height="8" fill="#69716d" opacity=".65"/><rect x="625" y="883" width="13" height="8" fill="#69716d" opacity=".65"/><rect x="646" y="898" width="13" height="8" fill="#65d9e8" opacity=".65"/><rect x="667" y="868" width="13" height="8" fill="#69716d" opacity=".65"/><rect x="688" y="883" width="13" height="8" fill="#69716d" opacity=".65"/><rect x="709" y="898" width="13" height="8" fill="#69716d" opacity=".65"/><g transform="rotate(-2 233 900)"><rect x="233" y="878" width="96" height="68" fill="#d8d5ca" stroke="#171a18" stroke-width="4"/><path d="M247 900h62m-62 16h46" stroke="#545954" stroke-width="4"/></g><rect x="952" y="864" width="78" height="116" rx="7" fill="#111715" stroke="#414a46" stroke-width="5"/><circle cx="991" cy="890" r="8" fill="#65d9e8" opacity=".7"/><text x="82" y="1110" font-family="ui-monospace, SFMono-Regular, Menlo, monospace" font-size="18" fill="#8e9691">DARK WALNUT / CONSOLE</text></g><rect x="801" y="1035" width="4" height="4" fill="#65d9e8" opacity=".10"/><rect x="922" y="724" width="4" height="4" fill="#65d9e8" opacity=".10"/><rect x="897" y="962" width="4" height="4" fill="#65d9e8" opacity=".10"/><rect x="91" y="460" width="4" height="4" fill="#65d9e8" opacity=".10"/><rect x="360" y="209" width="4" height="4" fill="#65d9e8" opacity=".10"/><rect x="843" y="152" width="4" height="4" fill="#65d9e8" opacity=".10"/><rect x="522" y="230" width="4" height="4" fill="#65d9e8" opacity=".10"/><rect x="669" y="588" width="4" height="4" fill="#65d9e8" opacity=".10"/><rect x="833" y="461" width="4" height="4" fill="#65d9e8" opacity=".10"/><rect x="1035" y="582" width="4" height="4" fill="#65d9e8" opacity=".10"/><rect x="724" y="729" width="4" height="4" fill="#65d9e8" opacity=".10"/><rect x="962" y="149" width="4" height="4" fill="#65d9e8" opacity=".10"/><rect x="460" y="1007" width="4" height="4" fill="#65d9e8" opacity=".10"/><rect x="209" y="226" width="4" height="4" fill="#65d9e8" opacity=".10"/><rect x="152" y="93" width="4" height="4" fill="#65d9e8" opacity=".10"/><rect x="230" y="284" width="4" height="4" fill="#65d9e8" opacity=".10"/><rect x="588" y="644" width="4" height="4" fill="#65d9e8" opacity=".10"/><rect x="461" y="703" width="4" height="4" fill="#65d9e8" opacity=".10"/><rect x="582" y="502" width="4" height="4" fill="#65d9e8" opacity=".10"/><rect x="729" y="801" width="4" height="4" fill="#65d9e8" opacity=".10"/><rect x="149" y="922" width="4" height="4" fill="#65d9e8" opacity=".10"/><rect x="1007" y="897" width="4" height="4" fill="#65d9e8" opacity=".10"/><rect x="226" y="91" width="4" height="4" fill="#65d9e8" opacity=".10"/><rect x="93" y="360" width="4" height="4" fill="#65d9e8" opacity=".10"/><rect x="284" y="843" width="4" height="4" fill="#65d9e8" opacity=".10"/><rect x="644" y="522" width="4" height="4" fill="#65d9e8" opacity=".10"/><rect x="703" y="669" width="4" height="4" fill="#65d9e8" opacity=".10"/><rect x="502" y="833" width="4" height="4" fill="#65d9e8" opacity=".10"/><rect x="801" y="1035" width="4" height="4" fill="#65d9e8" opacity=".10"/><rect x="922" y="724" width="4" height="4" fill="#65d9e8" opacity=".10"/><rect x="897" y="962" width="4" height="4" fill="#65d9e8" opacity=".10"/><rect x="91" y="460" width="4" height="4" fill="#65d9e8" opacity=".10"/><rect x="360" y="209" width="4" height="4" fill="#65d9e8" opacity=".10"/><rect x="843" y="152" width="4" height="4" fill="#65d9e8" opacity=".10"/><rect x="522" y="230" width="4" height="4" fill="#65d9e8" opacity=".10"/><rect x="669" y="588" width="4" height="4" fill="#65d9e8" opacity=".10"/><rect x="833" y="461" width="4" height="4" fill="#65d9e8" opacity=".10"/><rect x="1035" y="582" width="4" height="4" fill="#65d9e8" opacity=".10"/><g><rect x="58" y="62" width="188" height="52" rx="5" fill="#090c0b" stroke="#65d9e8" stroke-width="3"/><text x="82" y="96" font-family="ui-monospace, SFMono-Regular, Menlo, monospace" font-weight="800" font-size="22" fill="#f1efe7">IPO #0903</text></g><g><rect x="956" y="62" width="186" height="52" rx="5" fill="#090c0b" stroke="#39423e" stroke-width="3"/><text x="1049" y="95" text-anchor="middle" font-family="ui-monospace, SFMono-Regular, Menlo, monospace" font-size="17" fill="#65d9e8">31C440B1</text></g></svg>