<svg xmlns="http://www.w3.org/2000/svg" width="1200" height="1200" viewBox="0 0 1200 1200"><title>IPO-0021 Uncommon Member research desk</title><desc>An architectural IPO research workspace with no people or company affiliation.</desc><rect width="1200" height="1200" fill="#070908"/><rect x="42" y="42" width="1116" height="1116" rx="18" fill="#0c0f0e" stroke="#27302d" stroke-width="6"/><path d="M48 810L380 494h440l332 316v344H48z" fill="#101412" opacity=".92"/><path d="M82 170h230M888 170h230" stroke="#343c38" stroke-width="6" opacity=".55"/><rect x="141" y="140" width="12" height="28" fill="#b8ff38" opacity=".5"/><rect x="978" y="140" width="12" height="28" fill="#6d746f" opacity=".45"/><path d="M82 218h230M888 218h230" stroke="#343c38" stroke-width="6" opacity=".55"/><rect x="125" y="188" width="12" height="28" fill="#6d746f" opacity=".5"/><rect x="961" y="188" width="12" height="28" fill="#b8ff38" opacity=".45"/><path d="M82 266h230M888 266h230" stroke="#343c38" stroke-width="6" opacity=".55"/><rect x="136" y="236" width="12" height="28" fill="#6d746f" opacity=".5"/><rect x="972" y="236" width="12" height="28" fill="#6d746f" opacity=".45"/><path d="M82 314h230M888 314h230" stroke="#343c38" stroke-width="6" opacity=".55"/><rect x="171" y="284" width="12" height="28" fill="#b8ff38" opacity=".5"/><rect x="974" y="284" width="12" height="28" fill="#b8ff38" opacity=".45"/><path d="M82 362h230M888 362h230" stroke="#343c38" stroke-width="6" opacity=".55"/><rect x="121" y="332" width="12" height="28" fill="#6d746f" opacity=".5"/><rect x="936" y="332" width="12" height="28" fill="#6d746f" opacity=".45"/><path d="M82 410h230M888 410h230" stroke="#343c38" stroke-width="6" opacity=".55"/><rect x="162" y="380" width="12" height="28" fill="#6d746f" opacity=".5"/><rect x="942" y="380" width="12" height="28" fill="#b8ff38" opacity=".45"/><path d="M82 458h230M888 458h230" stroke="#343c38" stroke-width="6" opacity=".55"/><rect x="172" y="428" width="12" height="28" fill="#b8ff38" opacity=".5"/><rect x="934" y="428" width="12" height="28" fill="#6d746f" opacity=".45"/><ellipse cx="600" cy="570" rx="308" ry="210" fill="#b8ff38" opacity=".055"/><path d="M48 890h1110M210 1154l170-336M990 1154L820 818" stroke="#252d2a" stroke-width="4" opacity=".58"/><g><rect x="350" y="280" width="500" height="300" rx="8" fill="#070a09" stroke="#3b4541" stroke-width="6"/><rect x="362" y="292" width="476" height="276" rx="3" fill="#0b100e"/><rect x="372" y="310" width="103" height="5" fill="#b8ff38" opacity=".62"/><rect x="372" y="330" width="239" height="5" fill="#87918c" opacity=".34"/><rect x="372" y="350" width="53" height="5" fill="#b8ff38" opacity=".62"/><rect x="372" y="370" width="80" height="5" fill="#87918c" opacity=".34"/><polyline points="374.0,455.0 438.6,414.0 503.1,385.0 567.7,447.0 632.3,388.0 696.9,420.0 761.4,478.0 826.0,397.0" fill="none" stroke="#b8ff38" stroke-width="5" stroke-linejoin="miter" opacity=".82"/><rect x="593" y="580" width="14" height="42" fill="#2b312f"/><rect x="556" y="618" width="88" height="8" fill="#343c39"/></g><g><rect x="842" y="350" width="230" height="170" rx="8" fill="#070a09" stroke="#3b4541" stroke-width="6"/><rect x="854" y="362" width="206" height="146" rx="3" fill="#0b100e"/><rect x="864" y="380" width="44" height="5" fill="#b8ff38" opacity=".62"/><rect x="864" y="400" width="34" height="5" fill="#87918c" opacity=".34"/><rect x="864" y="420" width="62" height="5" fill="#b8ff38" opacity=".62"/><rect x="864" y="440" width="110" height="5" fill="#87918c" opacity=".34"/><polyline points="866.0,461.2 892.0,408.2 918.0,444.2 944.0,407.2 970.0,416.2 996.0,443.2 1022.0,439.2 1048.0,428.2" fill="none" stroke="#b8ff38" stroke-width="5" stroke-linejoin="miter" opacity=".82"/><rect x="950" y="520" width="14" height="42" fill="#2b312f"/><rect x="913" y="558" width="88" height="8" fill="#343c39"/></g><g><path d="M86 754H1114l70 300H16z" fill="#10191a" stroke="#496164" stroke-width="10"/><path d="M118 790H1082l34 176H84z" fill="#151a18" stroke="#343c38" stroke-width="4"/><path d="M152 816H1048" stroke="#b8ff38" stroke-width="5" opacity=".55"/><rect x="450" y="840" width="300" height="94" rx="8" fill="#080b0a" stroke="#3a423f" stroke-width="6"/><rect x="478" y="868" width="13" height="8" fill="#b8ff38" opacity=".65"/><rect x="499" y="883" width="13" height="8" fill="#69716d" opacity=".65"/><rect x="520" y="898" width="13" height="8" fill="#69716d" opacity=".65"/><rect x="541" y="868" width="13" height="8" fill="#69716d" opacity=".65"/><rect x="562" y="883" width="13" height="8" fill="#b8ff38" opacity=".65"/><rect x="583" y="898" width="13" height="8" fill="#69716d" opacity=".65"/><rect x="604" y="868" width="13" height="8" fill="#69716d" opacity=".65"/><rect x="625" y="883" width="13" height="8" fill="#69716d" opacity=".65"/><rect x="646" y="898" width="13" height="8" fill="#b8ff38" opacity=".65"/><rect x="667" y="868" width="13" height="8" fill="#69716d" opacity=".65"/><rect x="688" y="883" width="13" height="8" fill="#69716d" opacity=".65"/><rect x="709" y="898" width="13" height="8" fill="#69716d" opacity=".65"/><g transform="rotate(-1 215 900)"><rect x="215" y="878" width="96" height="68" fill="#d8d5ca" stroke="#171a18" stroke-width="4"/><path d="M229 900h62m-62 16h46" stroke="#545954" stroke-width="4"/></g><rect x="956" y="864" width="78" height="116" rx="7" fill="#111715" stroke="#414a46" stroke-width="5"/><circle cx="995" cy="890" r="8" fill="#b8ff38" opacity=".7"/><text x="82" y="1110" font-family="ui-monospace, SFMono-Regular, Menlo, monospace" font-size="18" fill="#8e9691">SMOKED GLASS / MODULAR</text></g><rect x="999" y="25" width="4" height="4" fill="#b8ff38" opacity=".10"/><rect x="383" y="19" width="4" height="4" fill="#b8ff38" opacity=".10"/><rect x="418" y="226" width="4" height="4" fill="#b8ff38" opacity=".10"/><rect x="381" y="449" width="4" height="4" fill="#b8ff38" opacity=".10"/><rect x="67" y="460" width="4" height="4" fill="#b8ff38" opacity=".10"/><rect x="804" y="750" width="4" height="4" fill="#b8ff38" opacity=".10"/><rect x="526" y="328" width="4" height="4" fill="#b8ff38" opacity=".10"/><rect x="534" y="526" width="4" height="4" fill="#b8ff38" opacity=".10"/><rect x="609" y="638" width="4" height="4" fill="#b8ff38" opacity=".10"/><rect x="25" y="598" width="4" height="4" fill="#b8ff38" opacity=".10"/><rect x="19" y="1160" width="4" height="4" fill="#b8ff38" opacity=".10"/><rect x="226" y="508" width="4" height="4" fill="#b8ff38" opacity=".10"/><rect x="449" y="156" width="4" height="4" fill="#b8ff38" opacity=".10"/><rect x="460" y="108" width="4" height="4" fill="#b8ff38" opacity=".10"/><rect x="750" y="336" width="4" height="4" fill="#b8ff38" opacity=".10"/><rect x="328" y="719" width="4" height="4" fill="#b8ff38" opacity=".10"/><rect x="526" y="837" width="4" height="4" fill="#b8ff38" opacity=".10"/><rect x="638" y="541" width="4" height="4" fill="#b8ff38" opacity=".10"/><rect x="598" y="727" width="4" height="4" fill="#b8ff38" opacity=".10"/><rect x="1160" y="999" width="4" height="4" fill="#b8ff38" opacity=".10"/><rect x="508" y="383" width="4" height="4" fill="#b8ff38" opacity=".10"/><rect x="156" y="418" width="4" height="4" fill="#b8ff38" opacity=".10"/><rect x="108" y="381" width="4" height="4" fill="#b8ff38" opacity=".10"/><rect x="336" y="67" width="4" height="4" fill="#b8ff38" opacity=".10"/><rect x="719" y="804" width="4" height="4" fill="#b8ff38" opacity=".10"/><rect x="837" y="526" width="4" height="4" fill="#b8ff38" opacity=".10"/><rect x="541" y="534" width="4" height="4" fill="#b8ff38" opacity=".10"/><rect x="727" y="609" width="4" height="4" fill="#b8ff38" opacity=".10"/><rect x="999" y="25" width="4" height="4" fill="#b8ff38" opacity=".10"/><rect x="383" y="19" width="4" height="4" fill="#b8ff38" opacity=".10"/><rect x="418" y="226" width="4" height="4" fill="#b8ff38" opacity=".10"/><rect x="381" y="449" width="4" height="4" fill="#b8ff38" opacity=".10"/><rect x="67" y="460" width="4" height="4" fill="#b8ff38" opacity=".10"/><rect x="804" y="750" width="4" height="4" fill="#b8ff38" opacity=".10"/><rect x="526" y="328" width="4" height="4" fill="#b8ff38" opacity=".10"/><rect x="534" y="526" width="4" height="4" fill="#b8ff38" opacity=".10"/><rect x="609" y="638" width="4" height="4" fill="#b8ff38" opacity=".10"/><rect x="25" y="598" width="4" height="4" fill="#b8ff38" opacity=".10"/><g><rect x="58" y="62" width="188" height="52" rx="5" fill="#090c0b" stroke="#b8ff38" stroke-width="3"/><text x="82" y="96" font-family="ui-monospace, SFMono-Regular, Menlo, monospace" font-weight="800" font-size="22" fill="#f1efe7">IPO #0021</text></g><g><rect x="956" y="62" width="186" height="52" rx="5" fill="#090c0b" stroke="#39423e" stroke-width="3"/><text x="1049" y="95" text-anchor="middle" font-family="ui-monospace, SFMono-Regular, Menlo, monospace" font-size="17" fill="#b8ff38">914C63C7</text></g></svg>