<svg xmlns="http://www.w3.org/2000/svg" width="1200" height="1200" viewBox="0 0 1200 1200"><title>IPO-1094 Common Director research desk</title><desc>An architectural IPO research workspace with no people or company affiliation.</desc><rect width="1200" height="1200" fill="#070908"/><rect x="42" y="42" width="1116" height="1116" rx="18" fill="#0c0f0e" stroke="#27302d" stroke-width="6"/><path d="M48 810L380 494h440l332 316v344H48z" fill="#101412" opacity=".92"/><rect x="332" y="104" width="536" height="384" fill="#090d0c" stroke="#303936" stroke-width="7"/><rect x="350" y="142" width="42" height="328" fill="#121817" stroke="#28312e" stroke-width="3"/><rect x="422" y="219" width="42" height="251" fill="#121817" stroke="#28312e" stroke-width="3"/><rect x="494" y="167" width="42" height="303" fill="#121817" stroke="#28312e" stroke-width="3"/><rect x="566" y="323" width="42" height="147" fill="#121817" stroke="#28312e" stroke-width="3"/><rect x="638" y="376" width="42" height="94" fill="#121817" stroke="#28312e" stroke-width="3"/><rect x="710" y="155" width="42" height="315" fill="#121817" stroke="#28312e" stroke-width="3"/><rect x="782" y="303" width="42" height="167" fill="#121817" stroke="#28312e" stroke-width="3"/><path d="M76 742h1048" stroke="#f2bd55" stroke-width="3" opacity=".2"/><rect x="92" y="770" width="1016" height="12" fill="#f2bd55" opacity=".08"/><ellipse cx="600" cy="570" rx="420" ry="210" fill="#f2bd55" opacity=".055"/><path d="M48 890h1110M210 1154l170-336M990 1154L820 818" stroke="#252d2a" stroke-width="4" opacity=".58"/><g><rect x="88" y="154" width="238" height="184" rx="8" fill="#070a09" stroke="#3b4541" stroke-width="6"/><rect x="100" y="166" width="214" height="160" rx="3" fill="#0b100e"/><rect x="110" y="184" width="89" height="5" fill="#f2bd55" opacity=".62"/><rect x="110" y="204" width="35" height="5" fill="#87918c" opacity=".34"/><rect x="110" y="224" width="176" height="5" fill="#f2bd55" opacity=".62"/><rect x="110" y="244" width="39" height="5" fill="#87918c" opacity=".34"/><polyline points="112.0,222.4 139.1,273.4 166.3,239.4 193.4,248.4 220.6,268.4 247.7,268.4 274.9,223.4 302.0,234.4" fill="none" stroke="#f2bd55" stroke-width="5" stroke-linejoin="miter" opacity=".82"/><rect x="200" y="338" width="14" height="42" fill="#2b312f"/><rect x="163" y="376" width="88" height="8" fill="#343c39"/></g><g><rect x="346" y="154" width="238" height="184" rx="8" fill="#070a09" stroke="#3b4541" stroke-width="6"/><rect x="358" y="166" width="214" height="160" rx="3" fill="#0b100e"/><rect x="368" y="184" width="39" height="5" fill="#f2bd55" opacity=".62"/><rect x="368" y="204" width="92" height="5" fill="#87918c" opacity=".34"/><rect x="368" y="224" width="51" height="5" fill="#f2bd55" opacity=".62"/><rect x="368" y="244" width="154" height="5" fill="#87918c" opacity=".34"/><polyline points="370.0,248.4 397.1,268.4 424.3,268.4 451.4,223.4 478.6,234.4 505.7,218.4 532.9,229.4 560.0,218.4" fill="none" stroke="#f2bd55" stroke-width="5" stroke-linejoin="miter" opacity=".82"/><rect x="458" y="338" width="14" height="42" fill="#2b312f"/><rect x="421" y="376" width="88" height="8" fill="#343c39"/></g><g><rect x="604" y="154" width="238" height="184" rx="8" fill="#070a09" stroke="#3b4541" stroke-width="6"/><rect x="616" y="166" width="214" height="160" rx="3" fill="#0b100e"/><rect x="626" y="184" width="154" height="5" fill="#f2bd55" opacity=".62"/><rect x="626" y="204" width="104" height="5" fill="#87918c" opacity=".34"/><rect x="626" y="224" width="137" height="5" fill="#f2bd55" opacity=".62"/><rect x="626" y="244" width="141" height="5" fill="#87918c" opacity=".34"/><polyline points="628.0,223.4 655.1,234.4 682.3,218.4 709.4,229.4 736.6,218.4 763.7,251.4 790.9,222.4 818.0,237.4" fill="none" stroke="#f2bd55" stroke-width="5" stroke-linejoin="miter" opacity=".82"/><rect x="716" y="338" width="14" height="42" fill="#2b312f"/><rect x="679" y="376" width="88" height="8" fill="#343c39"/></g><g><rect x="862" y="154" width="238" height="184" rx="8" fill="#070a09" stroke="#3b4541" stroke-width="6"/><rect x="874" y="166" width="214" height="160" rx="3" fill="#0b100e"/><rect x="884" y="184" width="141" height="5" fill="#f2bd55" opacity=".62"/><rect x="884" y="204" width="129" height="5" fill="#87918c" opacity=".34"/><rect x="884" y="224" width="145" height="5" fill="#f2bd55" opacity=".62"/><rect x="884" y="244" width="171" height="5" fill="#87918c" opacity=".34"/><polyline points="886.0,229.4 913.1,218.4 940.3,251.4 967.4,222.4 994.6,237.4 1021.7,263.4 1048.9,222.4 1076.0,272.4" fill="none" stroke="#f2bd55" stroke-width="5" stroke-linejoin="miter" opacity=".82"/><rect x="974" y="338" width="14" height="42" fill="#2b312f"/><rect x="937" y="376" width="88" height="8" fill="#343c39"/></g><g><rect x="218" y="390" width="270" height="194" rx="8" fill="#070a09" stroke="#3b4541" stroke-width="6"/><rect x="230" y="402" width="246" height="170" rx="3" fill="#0b100e"/><rect x="240" y="420" width="129" height="5" fill="#f2bd55" opacity=".62"/><rect x="240" y="440" width="208" height="5" fill="#87918c" opacity=".34"/><rect x="240" y="460" width="108" height="5" fill="#f2bd55" opacity=".62"/><rect x="240" y="480" width="177" height="5" fill="#87918c" opacity=".34"/><polyline points="242.0,459.0 273.7,486.0 305.4,475.0 337.1,467.0 368.9,516.0 400.6,518.0 432.3,506.0 464.0,503.0" fill="none" stroke="#f2bd55" stroke-width="5" stroke-linejoin="miter" opacity=".82"/><rect x="346" y="584" width="14" height="42" fill="#2b312f"/><rect x="309" y="622" width="88" height="8" fill="#343c39"/></g><g><rect x="508" y="390" width="270" height="194" rx="8" fill="#070a09" stroke="#3b4541" stroke-width="6"/><rect x="520" y="402" width="246" height="170" rx="3" fill="#0b100e"/><rect x="530" y="420" width="177" height="5" fill="#f2bd55" opacity=".62"/><rect x="530" y="440" width="222" height="5" fill="#87918c" opacity=".34"/><rect x="530" y="460" width="177" height="5" fill="#f2bd55" opacity=".62"/><rect x="530" y="480" width="151" height="5" fill="#87918c" opacity=".34"/><polyline points="532.0,467.0 563.7,516.0 595.4,518.0 627.1,506.0 658.9,503.0 690.6,459.0 722.3,494.0 754.0,505.0" fill="none" stroke="#f2bd55" stroke-width="5" stroke-linejoin="miter" opacity=".82"/><rect x="636" y="584" width="14" height="42" fill="#2b312f"/><rect x="599" y="622" width="88" height="8" fill="#343c39"/></g><g><path d="M150 754H1050l70 300H16z" fill="#10191a" stroke="#496164" stroke-width="10"/><path d="M182 790H1018l34 176H84z" fill="#151a18" stroke="#343c38" stroke-width="4"/><path d="M216 816H984" stroke="#f2bd55" stroke-width="5" opacity=".55"/><rect x="450" y="840" width="300" height="94" rx="8" fill="#080b0a" stroke="#3a423f" stroke-width="6"/><rect x="478" y="868" width="13" height="8" fill="#f2bd55" opacity=".65"/><rect x="499" y="883" width="13" height="8" fill="#69716d" opacity=".65"/><rect x="520" y="898" width="13" height="8" fill="#69716d" opacity=".65"/><rect x="541" y="868" width="13" height="8" fill="#69716d" opacity=".65"/><rect x="562" y="883" width="13" height="8" fill="#f2bd55" opacity=".65"/><rect x="583" y="898" width="13" height="8" fill="#69716d" opacity=".65"/><rect x="604" y="868" width="13" height="8" fill="#69716d" opacity=".65"/><rect x="625" y="883" width="13" height="8" fill="#69716d" opacity=".65"/><rect x="646" y="898" width="13" height="8" fill="#f2bd55" opacity=".65"/><rect x="667" y="868" width="13" height="8" fill="#69716d" opacity=".65"/><rect x="688" y="883" width="13" height="8" fill="#69716d" opacity=".65"/><rect x="709" y="898" width="13" height="8" fill="#69716d" opacity=".65"/><g transform="rotate(4 217 900)"><rect x="217" y="878" width="96" height="68" fill="#d8d5ca" stroke="#171a18" stroke-width="4"/><path d="M231 900h62m-62 16h46" stroke="#545954" stroke-width="4"/></g><g transform="rotate(-2 348 900)"><rect x="348" y="900" width="96" height="68" fill="#d8d5ca" stroke="#171a18" stroke-width="4"/><path d="M362 922h62m-62 16h46" stroke="#545954" stroke-width="4"/></g><g transform="rotate(0 436 900)"><rect x="436" y="878" width="96" height="68" fill="#d8d5ca" stroke="#171a18" stroke-width="4"/><path d="M450 900h62m-62 16h46" stroke="#545954" stroke-width="4"/></g><g transform="rotate(1 563 900)"><rect x="563" y="900" width="96" height="68" fill="#d8d5ca" stroke="#171a18" stroke-width="4"/><path d="M577 922h62m-62 16h46" stroke="#545954" stroke-width="4"/></g><g transform="rotate(-2 675 900)"><rect x="675" y="878" width="96" height="68" fill="#d8d5ca" stroke="#171a18" stroke-width="4"/><path d="M689 900h62m-62 16h46" stroke="#545954" stroke-width="4"/></g><rect x="916" y="864" width="78" height="116" rx="7" fill="#111715" stroke="#414a46" stroke-width="5"/><circle cx="955" cy="890" r="8" fill="#f2bd55" opacity=".7"/><path d="M154 994h238" stroke="#727a75" stroke-width="7"/><circle cx="178" cy="1025" r="18" fill="#f2bd55" opacity=".28"/><rect x="966" y="988" width="128" height="72" fill="#0a0e0c" stroke="#f2bd55" stroke-width="3"/><path d="M984 1016h82m-82 18h54" stroke="#f2bd55" stroke-width="4" opacity=".55"/><text x="82" y="1110" font-family="ui-monospace, SFMono-Regular, Menlo, monospace" font-size="18" fill="#8e9691">SMOKED GLASS / CRESCENT</text></g><rect x="617" y="20" width="4" height="4" fill="#f2bd55" opacity=".10"/><rect x="428" y="355" width="4" height="4" fill="#f2bd55" opacity=".10"/><rect x="1098" y="362" width="4" height="4" fill="#f2bd55" opacity=".10"/><rect x="121" y="479" width="4" height="4" fill="#f2bd55" opacity=".10"/><rect x="773" y="622" width="4" height="4" fill="#f2bd55" opacity=".10"/><rect x="867" y="888" width="4" height="4" fill="#f2bd55" opacity=".10"/><rect x="414" y="811" width="4" height="4" fill="#f2bd55" opacity=".10"/><rect x="135" y="497" width="4" height="4" fill="#f2bd55" opacity=".10"/><rect x="737" y="145" width="4" height="4" fill="#f2bd55" opacity=".10"/><rect x="20" y="237" width="4" height="4" fill="#f2bd55" opacity=".10"/><rect x="355" y="5" width="4" height="4" fill="#f2bd55" opacity=".10"/><rect x="362" y="274" width="4" height="4" fill="#f2bd55" opacity=".10"/><rect x="479" y="434" width="4" height="4" fill="#f2bd55" opacity=".10"/><rect x="622" y="563" width="4" height="4" fill="#f2bd55" opacity=".10"/><rect x="888" y="648" width="4" height="4" fill="#f2bd55" opacity=".10"/><rect x="811" y="173" width="4" height="4" fill="#f2bd55" opacity=".10"/><rect x="497" y="287" width="4" height="4" fill="#f2bd55" opacity=".10"/><rect x="145" y="176" width="4" height="4" fill="#f2bd55" opacity=".10"/><rect x="237" y="864" width="4" height="4" fill="#f2bd55" opacity=".10"/><rect x="5" y="617" width="4" height="4" fill="#f2bd55" opacity=".10"/><rect x="274" y="428" width="4" height="4" fill="#f2bd55" opacity=".10"/><rect x="434" y="1098" width="4" height="4" fill="#f2bd55" opacity=".10"/><rect x="563" y="121" width="4" height="4" fill="#f2bd55" opacity=".10"/><rect x="648" y="773" width="4" height="4" fill="#f2bd55" opacity=".10"/><rect x="173" y="867" width="4" height="4" fill="#f2bd55" opacity=".10"/><rect x="287" y="414" width="4" height="4" fill="#f2bd55" opacity=".10"/><rect x="176" y="135" width="4" height="4" fill="#f2bd55" opacity=".10"/><rect x="864" y="737" width="4" height="4" fill="#f2bd55" opacity=".10"/><rect x="617" y="20" width="4" height="4" fill="#f2bd55" opacity=".10"/><rect x="428" y="355" width="4" height="4" fill="#f2bd55" opacity=".10"/><rect x="1098" y="362" width="4" height="4" fill="#f2bd55" opacity=".10"/><rect x="121" y="479" width="4" height="4" fill="#f2bd55" opacity=".10"/><rect x="773" y="622" width="4" height="4" fill="#f2bd55" opacity=".10"/><rect x="867" y="888" width="4" height="4" fill="#f2bd55" opacity=".10"/><rect x="414" y="811" width="4" height="4" fill="#f2bd55" opacity=".10"/><rect x="135" y="497" width="4" height="4" fill="#f2bd55" opacity=".10"/><rect x="737" y="145" width="4" height="4" fill="#f2bd55" opacity=".10"/><rect x="20" y="237" width="4" height="4" fill="#f2bd55" opacity=".10"/><g><rect x="58" y="62" width="188" height="52" rx="5" fill="#090c0b" stroke="#f2bd55" stroke-width="3"/><text x="82" y="96" font-family="ui-monospace, SFMono-Regular, Menlo, monospace" font-weight="800" font-size="22" fill="#f1efe7">IPO #1094</text></g><g><rect x="956" y="62" width="186" height="52" rx="5" fill="#090c0b" stroke="#39423e" stroke-width="3"/><text x="1049" y="95" text-anchor="middle" font-family="ui-monospace, SFMono-Regular, Menlo, monospace" font-size="17" fill="#f2bd55">08E06BE9</text></g></svg>