<svg xmlns="http://www.w3.org/2000/svg" width="1200" height="1200" viewBox="0 0 1200 1200"><title>IPO-0830 Common Analyst research desk</title><desc>An architectural IPO research workspace with no people or company affiliation.</desc><rect width="1200" height="1200" fill="#070908"/><rect x="42" y="42" width="1116" height="1116" rx="18" fill="#0c0f0e" stroke="#27302d" stroke-width="6"/><path d="M48 810L380 494h440l332 316v344H48z" fill="#101412" opacity=".92"/><rect x="332" y="104" width="536" height="384" fill="#090d0c" stroke="#303936" stroke-width="7"/><rect x="350" y="358" width="42" height="112" fill="#121817" stroke="#28312e" stroke-width="3"/><rect x="422" y="379" width="42" height="91" fill="#121817" stroke="#28312e" stroke-width="3"/><rect x="494" y="381" width="42" height="89" fill="#121817" stroke="#28312e" stroke-width="3"/><rect x="566" y="198" width="42" height="272" fill="#121817" stroke="#28312e" stroke-width="3"/><rect x="638" y="283" width="42" height="187" fill="#121817" stroke="#28312e" stroke-width="3"/><rect x="710" y="322" width="42" height="148" fill="#121817" stroke="#28312e" stroke-width="3"/><rect x="782" y="273" width="42" height="197" fill="#121817" stroke="#28312e" stroke-width="3"/><ellipse cx="600" cy="570" rx="364" ry="210" fill="#f2bd55" opacity=".055"/><path d="M48 890h1110M210 1154l170-336M990 1154L820 818" stroke="#252d2a" stroke-width="4" opacity=".58"/><g><rect x="164" y="322" width="276" height="210" rx="8" fill="#070a09" stroke="#3b4541" stroke-width="6"/><rect x="176" y="334" width="252" height="186" rx="3" fill="#0b100e"/><rect x="186" y="352" width="160" height="5" fill="#f2bd55" opacity=".62"/><rect x="186" y="372" width="107" height="5" fill="#87918c" opacity=".34"/><rect x="186" y="392" width="208" height="5" fill="#f2bd55" opacity=".62"/><rect x="186" y="412" width="80" height="5" fill="#87918c" opacity=".34"/><polyline points="188.0,414.6 220.6,399.6 253.1,396.6 285.7,455.6 318.3,429.6 350.9,395.6 383.4,395.6 416.0,410.6" fill="none" stroke="#f2bd55" stroke-width="5" stroke-linejoin="miter" opacity=".82"/><rect x="295" y="532" width="14" height="42" fill="#2b312f"/><rect x="258" y="570" width="88" height="8" fill="#343c39"/></g><g><rect x="458" y="288" width="276" height="210" rx="8" fill="#070a09" stroke="#3b4541" stroke-width="6"/><rect x="470" y="300" width="252" height="186" rx="3" fill="#0b100e"/><rect x="480" y="318" width="139" height="5" fill="#f2bd55" opacity=".62"/><rect x="480" y="338" width="97" height="5" fill="#87918c" opacity=".34"/><rect x="480" y="358" width="208" height="5" fill="#f2bd55" opacity=".62"/><rect x="480" y="378" width="66" height="5" fill="#87918c" opacity=".34"/><polyline points="482.0,395.6 514.6,361.6 547.1,361.6 579.7,376.6 612.3,377.6 644.9,395.6 677.4,362.6 710.0,407.6" fill="none" stroke="#f2bd55" stroke-width="5" stroke-linejoin="miter" opacity=".82"/><rect x="589" y="498" width="14" height="42" fill="#2b312f"/><rect x="552" y="536" width="88" height="8" fill="#343c39"/></g><g><rect x="752" y="322" width="276" height="210" rx="8" fill="#070a09" stroke="#3b4541" stroke-width="6"/><rect x="764" y="334" width="252" height="186" rx="3" fill="#0b100e"/><rect x="774" y="352" width="160" height="5" fill="#f2bd55" opacity=".62"/><rect x="774" y="372" width="40" height="5" fill="#87918c" opacity=".34"/><rect x="774" y="392" width="171" height="5" fill="#f2bd55" opacity=".62"/><rect x="774" y="412" width="76" height="5" fill="#87918c" opacity=".34"/><polyline points="776.0,411.6 808.6,429.6 841.1,396.6 873.7,441.6 906.3,397.6 938.9,411.6 971.4,434.6 1004.0,429.6" fill="none" stroke="#f2bd55" stroke-width="5" stroke-linejoin="miter" opacity=".82"/><rect x="883" y="532" width="14" height="42" fill="#2b312f"/><rect x="846" y="570" width="88" height="8" fill="#343c39"/></g><g><rect x="460" y="118" width="280" height="150" rx="8" fill="#070a09" stroke="#3b4541" stroke-width="6"/><rect x="472" y="130" width="256" height="126" rx="3" fill="#0b100e"/><rect x="482" y="148" width="157" height="5" fill="#f2bd55" opacity=".62"/><rect x="482" y="168" width="209" height="5" fill="#87918c" opacity=".34"/><rect x="482" y="188" width="153" height="5" fill="#f2bd55" opacity=".62"/><rect x="482" y="208" width="172" height="5" fill="#87918c" opacity=".34"/><polyline points="484.0,211.0 517.1,189.0 550.3,186.0 583.4,183.0 616.6,199.0 649.7,199.0 682.9,171.0 716.0,193.0" fill="none" stroke="#f2bd55" stroke-width="5" stroke-linejoin="miter" opacity=".82"/><rect x="593" y="268" width="14" height="42" fill="#2b312f"/><rect x="556" y="306" width="88" height="8" fill="#343c39"/></g><g><path d="M150 754H1050l70 300H16z" fill="#252b2b" stroke="#737b77" stroke-width="10"/><path d="M182 790H1018l34 176H84z" fill="#151a18" stroke="#343c38" stroke-width="4"/><path d="M216 816H984" stroke="#f2bd55" stroke-width="5" opacity=".55"/><rect x="450" y="840" width="300" height="94" rx="8" fill="#080b0a" stroke="#3a423f" stroke-width="6"/><rect x="478" y="868" width="13" height="8" fill="#f2bd55" opacity=".65"/><rect x="499" y="883" width="13" height="8" fill="#69716d" opacity=".65"/><rect x="520" y="898" width="13" height="8" fill="#69716d" opacity=".65"/><rect x="541" y="868" width="13" height="8" fill="#69716d" opacity=".65"/><rect x="562" y="883" width="13" height="8" fill="#f2bd55" opacity=".65"/><rect x="583" y="898" width="13" height="8" fill="#69716d" opacity=".65"/><rect x="604" y="868" width="13" height="8" fill="#69716d" opacity=".65"/><rect x="625" y="883" width="13" height="8" fill="#69716d" opacity=".65"/><rect x="646" y="898" width="13" height="8" fill="#f2bd55" opacity=".65"/><rect x="667" y="868" width="13" height="8" fill="#69716d" opacity=".65"/><rect x="688" y="883" width="13" height="8" fill="#69716d" opacity=".65"/><rect x="709" y="898" width="13" height="8" fill="#69716d" opacity=".65"/><g transform="rotate(-1 214 900)"><rect x="214" y="878" width="96" height="68" fill="#d8d5ca" stroke="#171a18" stroke-width="4"/><path d="M228 900h62m-62 16h46" stroke="#545954" stroke-width="4"/></g><g transform="rotate(-1 335 900)"><rect x="335" y="900" width="96" height="68" fill="#d8d5ca" stroke="#171a18" stroke-width="4"/><path d="M349 922h62m-62 16h46" stroke="#545954" stroke-width="4"/></g><g transform="rotate(1 458 900)"><rect x="458" y="878" width="96" height="68" fill="#d8d5ca" stroke="#171a18" stroke-width="4"/><path d="M472 900h62m-62 16h46" stroke="#545954" stroke-width="4"/></g><rect x="937" y="864" width="78" height="116" rx="7" fill="#111715" stroke="#414a46" stroke-width="5"/><circle cx="976" cy="890" r="8" fill="#f2bd55" opacity=".7"/><path d="M154 994h238" stroke="#727a75" stroke-width="7"/><circle cx="178" cy="1025" r="18" fill="#f2bd55" opacity=".28"/><text x="82" y="1110" font-family="ui-monospace, SFMono-Regular, Menlo, monospace" font-size="18" fill="#8e9691">BRUSHED STEEL / CRESCENT</text></g><rect x="1138" y="486" width="4" height="4" fill="#f2bd55" opacity=".10"/><rect x="1191" y="494" width="4" height="4" fill="#f2bd55" opacity=".10"/><rect x="532" y="49" width="4" height="4" fill="#f2bd55" opacity=".10"/><rect x="1011" y="1103" width="4" height="4" fill="#f2bd55" opacity=".10"/><rect x="409" y="350" width="4" height="4" fill="#f2bd55" opacity=".10"/><rect x="492" y="892" width="4" height="4" fill="#f2bd55" opacity=".10"/><rect x="1107" y="1114" width="4" height="4" fill="#f2bd55" opacity=".10"/><rect x="818" y="1190" width="4" height="4" fill="#f2bd55" opacity=".10"/><rect x="717" y="225" width="4" height="4" fill="#f2bd55" opacity=".10"/><rect x="486" y="582" width="4" height="4" fill="#f2bd55" opacity=".10"/><rect x="494" y="304" width="4" height="4" fill="#f2bd55" opacity=".10"/><rect x="49" y="79" width="4" height="4" fill="#f2bd55" opacity=".10"/><rect x="1103" y="772" width="4" height="4" fill="#f2bd55" opacity=".10"/><rect x="350" y="915" width="4" height="4" fill="#f2bd55" opacity=".10"/><rect x="892" y="393" width="4" height="4" fill="#f2bd55" opacity=".10"/><rect x="1114" y="556" width="4" height="4" fill="#f2bd55" opacity=".10"/><rect x="1190" y="123" width="4" height="4" fill="#f2bd55" opacity=".10"/><rect x="225" y="175" width="4" height="4" fill="#f2bd55" opacity=".10"/><rect x="582" y="119" width="4" height="4" fill="#f2bd55" opacity=".10"/><rect x="304" y="1138" width="4" height="4" fill="#f2bd55" opacity=".10"/><rect x="79" y="1191" width="4" height="4" fill="#f2bd55" opacity=".10"/><rect x="772" y="532" width="4" height="4" fill="#f2bd55" opacity=".10"/><rect x="915" y="1011" width="4" height="4" fill="#f2bd55" opacity=".10"/><rect x="393" y="409" width="4" height="4" fill="#f2bd55" opacity=".10"/><rect x="556" y="492" width="4" height="4" fill="#f2bd55" opacity=".10"/><rect x="123" y="1107" width="4" height="4" fill="#f2bd55" opacity=".10"/><rect x="175" y="818" width="4" height="4" fill="#f2bd55" opacity=".10"/><rect x="119" y="717" width="4" height="4" fill="#f2bd55" opacity=".10"/><rect x="1138" y="486" width="4" height="4" fill="#f2bd55" opacity=".10"/><rect x="1191" y="494" width="4" height="4" fill="#f2bd55" opacity=".10"/><rect x="532" y="49" width="4" height="4" fill="#f2bd55" opacity=".10"/><rect x="1011" y="1103" width="4" height="4" fill="#f2bd55" opacity=".10"/><rect x="409" y="350" width="4" height="4" fill="#f2bd55" opacity=".10"/><rect x="492" y="892" width="4" height="4" fill="#f2bd55" opacity=".10"/><rect x="1107" y="1114" width="4" height="4" fill="#f2bd55" opacity=".10"/><rect x="818" y="1190" width="4" height="4" fill="#f2bd55" opacity=".10"/><rect x="717" y="225" width="4" height="4" fill="#f2bd55" opacity=".10"/><rect x="486" y="582" width="4" height="4" fill="#f2bd55" opacity=".10"/><g><rect x="58" y="62" width="188" height="52" rx="5" fill="#090c0b" stroke="#f2bd55" stroke-width="3"/><text x="82" y="96" font-family="ui-monospace, SFMono-Regular, Menlo, monospace" font-weight="800" font-size="22" fill="#f1efe7">IPO #0830</text></g><g><rect x="956" y="62" width="186" height="52" rx="5" fill="#090c0b" stroke="#39423e" stroke-width="3"/><text x="1049" y="95" text-anchor="middle" font-family="ui-monospace, SFMono-Regular, Menlo, monospace" font-size="17" fill="#f2bd55">578E6A62</text></g></svg>