<svg xmlns="http://www.w3.org/2000/svg" width="1200" height="1200" viewBox="0 0 1200 1200"><title>IPO-1076 Rare Director research desk</title><desc>An architectural IPO research workspace with no people or company affiliation.</desc><rect width="1200" height="1200" fill="#070908"/><rect x="42" y="42" width="1116" height="1116" rx="18" fill="#0c0f0e" stroke="#27302d" stroke-width="6"/><path d="M48 810L380 494h440l332 316v344H48z" fill="#101412" opacity=".92"/><rect x="332" y="104" width="536" height="384" fill="#090d0c" stroke="#303936" stroke-width="7"/><rect x="350" y="315" width="42" height="155" fill="#121817" stroke="#28312e" stroke-width="3"/><rect x="422" y="230" width="42" height="240" fill="#121817" stroke="#28312e" stroke-width="3"/><rect x="494" y="193" width="42" height="277" fill="#121817" stroke="#28312e" stroke-width="3"/><rect x="566" y="310" width="42" height="160" fill="#121817" stroke="#28312e" stroke-width="3"/><rect x="638" y="367" width="42" height="103" fill="#121817" stroke="#28312e" stroke-width="3"/><rect x="710" y="346" width="42" height="124" fill="#121817" stroke="#28312e" stroke-width="3"/><rect x="782" y="309" width="42" height="161" fill="#121817" stroke="#28312e" stroke-width="3"/><path d="M350 258l-18 54" stroke="#a9c7c1" stroke-width="3" opacity=".18"/><path d="M393 202l-18 54" stroke="#a9c7c1" stroke-width="3" opacity=".18"/><path d="M436 265l-18 54" stroke="#a9c7c1" stroke-width="3" opacity=".18"/><path d="M479 120l-18 54" stroke="#a9c7c1" stroke-width="3" opacity=".18"/><path d="M522 267l-18 54" stroke="#a9c7c1" stroke-width="3" opacity=".18"/><path d="M565 240l-18 54" stroke="#a9c7c1" stroke-width="3" opacity=".18"/><path d="M608 193l-18 54" stroke="#a9c7c1" stroke-width="3" opacity=".18"/><path d="M651 184l-18 54" stroke="#a9c7c1" stroke-width="3" opacity=".18"/><path d="M694 161l-18 54" stroke="#a9c7c1" stroke-width="3" opacity=".18"/><path d="M737 174l-18 54" stroke="#a9c7c1" stroke-width="3" opacity=".18"/><path d="M780 230l-18 54" stroke="#a9c7c1" stroke-width="3" opacity=".18"/><path d="M823 212l-18 54" stroke="#a9c7c1" stroke-width="3" opacity=".18"/><path d="M366 142l-18 54" stroke="#a9c7c1" stroke-width="3" opacity=".18"/><path d="M409 146l-18 54" stroke="#a9c7c1" stroke-width="3" opacity=".18"/><path d="M452 122l-18 54" stroke="#a9c7c1" stroke-width="3" opacity=".18"/><path d="M495 325l-18 54" stroke="#a9c7c1" stroke-width="3" opacity=".18"/><path d="M538 279l-18 54" stroke="#a9c7c1" stroke-width="3" opacity=".18"/><path d="M581 156l-18 54" stroke="#a9c7c1" stroke-width="3" opacity=".18"/><path d="M624 310l-18 54" stroke="#a9c7c1" stroke-width="3" opacity=".18"/><path d="M667 328l-18 54" stroke="#a9c7c1" stroke-width="3" opacity=".18"/><path d="M710 297l-18 54" stroke="#a9c7c1" stroke-width="3" opacity=".18"/><path d="M753 275l-18 54" stroke="#a9c7c1" stroke-width="3" opacity=".18"/><path d="M796 243l-18 54" stroke="#a9c7c1" stroke-width="3" opacity=".18"/><path d="M839 182l-18 54" stroke="#a9c7c1" stroke-width="3" opacity=".18"/><path d="M76 742h1048" stroke="#f2bd55" stroke-width="3" opacity=".2"/><rect x="92" y="770" width="1016" height="12" fill="#f2bd55" opacity=".08"/><ellipse cx="600" cy="570" rx="420" ry="210" fill="#f2bd55" opacity=".055"/><path d="M48 890h1110M210 1154l170-336M990 1154L820 818" stroke="#252d2a" stroke-width="4" opacity=".58"/><g><rect x="88" y="154" width="238" height="184" rx="8" fill="#070a09" stroke="#3b4541" stroke-width="6"/><rect x="100" y="166" width="214" height="160" rx="3" fill="#0b100e"/><rect x="110" y="184" width="182" height="5" fill="#f2bd55" opacity=".62"/><rect x="110" y="204" width="157" height="5" fill="#87918c" opacity=".34"/><rect x="110" y="224" width="102" height="5" fill="#f2bd55" opacity=".62"/><rect x="110" y="244" width="54" height="5" fill="#87918c" opacity=".34"/><polyline points="112.0,267.4 139.1,229.4 166.3,226.4 193.4,239.4 220.6,246.4 247.7,235.4 274.9,230.4 302.0,255.4" fill="none" stroke="#f2bd55" stroke-width="5" stroke-linejoin="miter" opacity=".82"/><rect x="200" y="338" width="14" height="42" fill="#2b312f"/><rect x="163" y="376" width="88" height="8" fill="#343c39"/></g><g><rect x="346" y="154" width="238" height="184" rx="8" fill="#070a09" stroke="#3b4541" stroke-width="6"/><rect x="358" y="166" width="214" height="160" rx="3" fill="#0b100e"/><rect x="368" y="184" width="54" height="5" fill="#f2bd55" opacity=".62"/><rect x="368" y="204" width="126" height="5" fill="#87918c" opacity=".34"/><rect x="368" y="224" width="98" height="5" fill="#f2bd55" opacity=".62"/><rect x="368" y="244" width="52" height="5" fill="#87918c" opacity=".34"/><polyline points="370.0,239.4 397.1,246.4 424.3,235.4 451.4,230.4 478.6,255.4 505.7,252.4 532.9,249.4 560.0,227.4" fill="none" stroke="#f2bd55" stroke-width="5" stroke-linejoin="miter" opacity=".82"/><rect x="458" y="338" width="14" height="42" fill="#2b312f"/><rect x="421" y="376" width="88" height="8" fill="#343c39"/></g><g><rect x="604" y="154" width="238" height="184" rx="8" fill="#070a09" stroke="#3b4541" stroke-width="6"/><rect x="616" y="166" width="214" height="160" rx="3" fill="#0b100e"/><rect x="626" y="184" width="52" height="5" fill="#f2bd55" opacity=".62"/><rect x="626" y="204" width="96" height="5" fill="#87918c" opacity=".34"/><rect x="626" y="224" width="151" height="5" fill="#f2bd55" opacity=".62"/><rect x="626" y="244" width="95" height="5" fill="#87918c" opacity=".34"/><polyline points="628.0,230.4 655.1,255.4 682.3,252.4 709.4,249.4 736.6,227.4 763.7,235.4 790.9,217.4 818.0,223.4" fill="none" stroke="#f2bd55" stroke-width="5" stroke-linejoin="miter" opacity=".82"/><rect x="716" y="338" width="14" height="42" fill="#2b312f"/><rect x="679" y="376" width="88" height="8" fill="#343c39"/></g><g><rect x="862" y="154" width="238" height="184" rx="8" fill="#070a09" stroke="#3b4541" stroke-width="6"/><rect x="874" y="166" width="214" height="160" rx="3" fill="#0b100e"/><rect x="884" y="184" width="95" height="5" fill="#f2bd55" opacity=".62"/><rect x="884" y="204" width="58" height="5" fill="#87918c" opacity=".34"/><rect x="884" y="224" width="84" height="5" fill="#f2bd55" opacity=".62"/><rect x="884" y="244" width="156" height="5" fill="#87918c" opacity=".34"/><polyline points="886.0,249.4 913.1,227.4 940.3,235.4 967.4,217.4 994.6,223.4 1021.7,271.4 1048.9,224.4 1076.0,250.4" fill="none" stroke="#f2bd55" stroke-width="5" stroke-linejoin="miter" opacity=".82"/><rect x="974" y="338" width="14" height="42" fill="#2b312f"/><rect x="937" y="376" width="88" height="8" fill="#343c39"/></g><g><rect x="218" y="390" width="270" height="194" rx="8" fill="#070a09" stroke="#3b4541" stroke-width="6"/><rect x="230" y="402" width="246" height="170" rx="3" fill="#0b100e"/><rect x="240" y="420" width="162" height="5" fill="#f2bd55" opacity=".62"/><rect x="240" y="440" width="151" height="5" fill="#87918c" opacity=".34"/><rect x="240" y="460" width="119" height="5" fill="#f2bd55" opacity=".62"/><rect x="240" y="480" width="177" height="5" fill="#87918c" opacity=".34"/><polyline points="242.0,516.0 273.7,462.0 305.4,496.0 337.1,513.0 368.9,504.0 400.6,497.0 432.3,518.0 464.0,495.0" fill="none" stroke="#f2bd55" stroke-width="5" stroke-linejoin="miter" opacity=".82"/><rect x="346" y="584" width="14" height="42" fill="#2b312f"/><rect x="309" y="622" width="88" height="8" fill="#343c39"/></g><g><rect x="508" y="390" width="270" height="194" rx="8" fill="#070a09" stroke="#3b4541" stroke-width="6"/><rect x="520" y="402" width="246" height="170" rx="3" fill="#0b100e"/><rect x="530" y="420" width="177" height="5" fill="#f2bd55" opacity=".62"/><rect x="530" y="440" width="126" height="5" fill="#87918c" opacity=".34"/><rect x="530" y="460" width="110" height="5" fill="#f2bd55" opacity=".62"/><rect x="530" y="480" width="189" height="5" fill="#87918c" opacity=".34"/><polyline points="532.0,513.0 563.7,504.0 595.4,497.0 627.1,518.0 658.9,495.0 690.6,496.0 722.3,478.0 754.0,460.0" fill="none" stroke="#f2bd55" stroke-width="5" stroke-linejoin="miter" opacity=".82"/><rect x="636" y="584" width="14" height="42" fill="#2b312f"/><rect x="599" y="622" width="88" height="8" fill="#343c39"/></g><g><rect x="798" y="390" width="270" height="194" rx="8" fill="#070a09" stroke="#3b4541" stroke-width="6"/><rect x="810" y="402" width="246" height="170" rx="3" fill="#0b100e"/><rect x="820" y="420" width="189" height="5" fill="#f2bd55" opacity=".62"/><rect x="820" y="440" width="164" height="5" fill="#87918c" opacity=".34"/><rect x="820" y="460" width="122" height="5" fill="#f2bd55" opacity=".62"/><rect x="820" y="480" width="52" height="5" fill="#87918c" opacity=".34"/><polyline points="822.0,518.0 853.7,495.0 885.4,496.0 917.1,478.0 948.9,460.0 980.6,511.0 1012.3,472.0 1044.0,518.0" fill="none" stroke="#f2bd55" stroke-width="5" stroke-linejoin="miter" opacity=".82"/><rect x="926" y="584" width="14" height="42" fill="#2b312f"/><rect x="889" y="622" width="88" height="8" fill="#343c39"/></g><g><path d="M116 754H1084l70 300H16z" fill="#231b17" stroke="#6d4c37" stroke-width="10"/><path d="M148 790H1052l34 176H84z" fill="#151a18" stroke="#343c38" stroke-width="4"/><path d="M182 816H1018" stroke="#f2bd55" stroke-width="5" opacity=".55"/><rect x="450" y="840" width="300" height="94" rx="8" fill="#080b0a" stroke="#3a423f" stroke-width="6"/><rect x="478" y="868" width="13" height="8" fill="#f2bd55" opacity=".65"/><rect x="499" y="883" width="13" height="8" fill="#69716d" opacity=".65"/><rect x="520" y="898" width="13" height="8" fill="#69716d" opacity=".65"/><rect x="541" y="868" width="13" height="8" fill="#69716d" opacity=".65"/><rect x="562" y="883" width="13" height="8" fill="#f2bd55" opacity=".65"/><rect x="583" y="898" width="13" height="8" fill="#69716d" opacity=".65"/><rect x="604" y="868" width="13" height="8" fill="#69716d" opacity=".65"/><rect x="625" y="883" width="13" height="8" fill="#69716d" opacity=".65"/><rect x="646" y="898" width="13" height="8" fill="#f2bd55" opacity=".65"/><rect x="667" y="868" width="13" height="8" fill="#69716d" opacity=".65"/><rect x="688" y="883" width="13" height="8" fill="#69716d" opacity=".65"/><rect x="709" y="898" width="13" height="8" fill="#69716d" opacity=".65"/><g transform="rotate(4 212 900)"><rect x="212" y="878" width="96" height="68" fill="#d8d5ca" stroke="#171a18" stroke-width="4"/><path d="M226 900h62m-62 16h46" stroke="#545954" stroke-width="4"/></g><g transform="rotate(2 346 900)"><rect x="346" y="900" width="96" height="68" fill="#d8d5ca" stroke="#171a18" stroke-width="4"/><path d="M360 922h62m-62 16h46" stroke="#545954" stroke-width="4"/></g><g transform="rotate(-2 455 900)"><rect x="455" y="878" width="96" height="68" fill="#d8d5ca" stroke="#171a18" stroke-width="4"/><path d="M469 900h62m-62 16h46" stroke="#545954" stroke-width="4"/></g><g transform="rotate(-2 544 900)"><rect x="544" y="900" width="96" height="68" fill="#d8d5ca" stroke="#171a18" stroke-width="4"/><path d="M558 922h62m-62 16h46" stroke="#545954" stroke-width="4"/></g><g transform="rotate(3 661 900)"><rect x="661" y="878" width="96" height="68" fill="#d8d5ca" stroke="#171a18" stroke-width="4"/><path d="M675 900h62m-62 16h46" stroke="#545954" stroke-width="4"/></g><rect x="947" y="864" width="78" height="116" rx="7" fill="#111715" stroke="#414a46" stroke-width="5"/><circle cx="986" cy="890" r="8" fill="#f2bd55" opacity=".7"/><path d="M154 994h238" stroke="#727a75" stroke-width="7"/><circle cx="178" cy="1025" r="18" fill="#f2bd55" opacity=".28"/><rect x="966" y="988" width="128" height="72" fill="#0a0e0c" stroke="#f2bd55" stroke-width="3"/><path d="M984 1016h82m-82 18h54" stroke="#f2bd55" stroke-width="4" opacity=".55"/><text x="82" y="1110" font-family="ui-monospace, SFMono-Regular, Menlo, monospace" font-size="18" fill="#8e9691">DARK WALNUT / CANTILEVER</text></g><rect x="498" y="774" width="4" height="4" fill="#f2bd55" opacity=".10"/><rect x="502" y="1100" width="4" height="4" fill="#f2bd55" opacity=".10"/><rect x="325" y="632" width="4" height="4" fill="#f2bd55" opacity=".10"/><rect x="210" y="262" width="4" height="4" fill="#f2bd55" opacity=".10"/><rect x="147" y="926" width="4" height="4" fill="#f2bd55" opacity=".10"/><rect x="930" y="362" width="4" height="4" fill="#f2bd55" opacity=".10"/><rect x="373" y="1015" width="4" height="4" fill="#f2bd55" opacity=".10"/><rect x="994" y="399" width="4" height="4" fill="#f2bd55" opacity=".10"/><rect x="431" y="996" width="4" height="4" fill="#f2bd55" opacity=".10"/><rect x="774" y="40" width="4" height="4" fill="#f2bd55" opacity=".10"/><rect x="1100" y="418" width="4" height="4" fill="#f2bd55" opacity=".10"/><rect x="632" y="207" width="4" height="4" fill="#f2bd55" opacity=".10"/><rect x="262" y="1175" width="4" height="4" fill="#f2bd55" opacity=".10"/><rect x="926" y="813" width="4" height="4" fill="#f2bd55" opacity=".10"/><rect x="362" y="482" width="4" height="4" fill="#f2bd55" opacity=".10"/><rect x="1015" y="486" width="4" height="4" fill="#f2bd55" opacity=".10"/><rect x="399" y="85" width="4" height="4" fill="#f2bd55" opacity=".10"/><rect x="996" y="170" width="4" height="4" fill="#f2bd55" opacity=".10"/><rect x="40" y="1008" width="4" height="4" fill="#f2bd55" opacity=".10"/><rect x="418" y="498" width="4" height="4" fill="#f2bd55" opacity=".10"/><rect x="207" y="502" width="4" height="4" fill="#f2bd55" opacity=".10"/><rect x="1175" y="325" width="4" height="4" fill="#f2bd55" opacity=".10"/><rect x="813" y="210" width="4" height="4" fill="#f2bd55" opacity=".10"/><rect x="482" y="147" width="4" height="4" fill="#f2bd55" opacity=".10"/><rect x="486" y="930" width="4" height="4" fill="#f2bd55" opacity=".10"/><rect x="85" y="373" width="4" height="4" fill="#f2bd55" opacity=".10"/><rect x="170" y="994" width="4" height="4" fill="#f2bd55" opacity=".10"/><rect x="1008" y="431" width="4" height="4" fill="#f2bd55" opacity=".10"/><rect x="498" y="774" width="4" height="4" fill="#f2bd55" opacity=".10"/><rect x="502" y="1100" width="4" height="4" fill="#f2bd55" opacity=".10"/><rect x="325" y="632" width="4" height="4" fill="#f2bd55" opacity=".10"/><rect x="210" y="262" width="4" height="4" fill="#f2bd55" opacity=".10"/><rect x="147" y="926" width="4" height="4" fill="#f2bd55" opacity=".10"/><rect x="930" y="362" width="4" height="4" fill="#f2bd55" opacity=".10"/><rect x="373" y="1015" width="4" height="4" fill="#f2bd55" opacity=".10"/><rect x="994" y="399" width="4" height="4" fill="#f2bd55" opacity=".10"/><rect x="431" y="996" width="4" height="4" fill="#f2bd55" opacity=".10"/><rect x="774" y="40" width="4" height="4" fill="#f2bd55" opacity=".10"/><g><rect x="58" y="62" width="188" height="52" rx="5" fill="#090c0b" stroke="#f2bd55" stroke-width="3"/><text x="82" y="96" font-family="ui-monospace, SFMono-Regular, Menlo, monospace" font-weight="800" font-size="22" fill="#f1efe7">IPO #1076</text></g><g><rect x="956" y="62" width="186" height="52" rx="5" fill="#090c0b" stroke="#39423e" stroke-width="3"/><text x="1049" y="95" text-anchor="middle" font-family="ui-monospace, SFMono-Regular, Menlo, monospace" font-size="17" fill="#f2bd55">A9F4FAD2</text></g></svg>