<svg xmlns="http://www.w3.org/2000/svg" width="1200" height="1200" viewBox="0 0 1200 1200"><title>IPO-0863 Rare Researcher launch console</title><desc>An architectural IPO launch chamber and research workspace with no people or company affiliation.</desc><defs><linearGradient id="wall" x1="0" y1="0" x2="0" y2="1"><stop stop-color="#050706"/><stop offset="1" stop-color="#17201c"/></linearGradient><linearGradient id="desk" x1="0" y1="0" x2="1" y2="1"><stop stop-color="#aeb7b0" stop-opacity=".34"/><stop offset=".16" stop-color="#1b1f1d"/><stop offset="1" stop-color="#0a0d0c"/></linearGradient><radialGradient id="pool"><stop stop-color="#ff7b68" stop-opacity=".28"/><stop offset="1" stop-color="#ff7b68" stop-opacity="0"/></radialGradient><filter id="glow"><feGaussianBlur stdDeviation="10" result="b"/><feMerge><feMergeNode in="b"/><feMergeNode in="SourceGraphic"/></feMerge></filter></defs><rect width="1200" height="1200" fill="#050706"/><rect x="34" y="34" width="1132" height="1132" fill="url(#wall)" stroke="#303a35" stroke-width="7"/><path d="M34 728L412 470h376l378 258v438H34z" fill="#0b100e"/><path d="M94 116L407.72 546" stroke="#323b37" stroke-width="9" opacity=".58"/><path d="M220 116L455.6 546" stroke="#323b37" stroke-width="5" opacity=".58"/><path d="M346 116L503.48 546" stroke="#323b37" stroke-width="9" opacity=".58"/><path d="M472 116L551.36 546" stroke="#323b37" stroke-width="5" opacity=".58"/><path d="M598 116L599.24 546" stroke="#323b37" stroke-width="9" opacity=".58"/><path d="M724 116L647.12 546" stroke="#323b37" stroke-width="5" opacity=".58"/><path d="M850 116L695 546" stroke="#323b37" stroke-width="9" opacity=".58"/><path d="M976 116L742.88 546" stroke="#323b37" stroke-width="5" opacity=".58"/><path d="M1102 116L790.76 546" stroke="#323b37" stroke-width="9" opacity=".58"/><path d="M70 188h270M860 188h270" stroke="#4a4035" stroke-width="6"/><rect x="95" y="160" width="16" height="25" fill="#89b8ff" opacity=".38"/><path d="M70 234h270M860 234h270" stroke="#4a4035" stroke-width="6"/><rect x="126" y="206" width="16" height="25" fill="#ff7b68" opacity=".38"/><path d="M70 280h270M860 280h270" stroke="#4a4035" stroke-width="6"/><rect x="157" y="252" width="16" height="25" fill="#89b8ff" opacity=".38"/><path d="M70 326h270M860 326h270" stroke="#4a4035" stroke-width="6"/><rect x="188" y="298" width="16" height="25" fill="#ff7b68" opacity=".38"/><path d="M70 372h270M860 372h270" stroke="#4a4035" stroke-width="6"/><rect x="219" y="344" width="16" height="25" fill="#89b8ff" opacity=".38"/><path d="M70 418h270M860 418h270" stroke="#4a4035" stroke-width="6"/><rect x="250" y="390" width="16" height="25" fill="#ff7b68" opacity=".38"/><ellipse cx="600" cy="650" rx="470" ry="260" fill="url(#pool)"/><path d="M34 772h1132M78 1166L414 486M1122 1166L786 486" stroke="#34403a" stroke-width="4" opacity=".48"/><path d="M122 1114L600 758l478 356" fill="none" stroke="#89b8ff" stroke-width="3" opacity=".16"/><g transform="translate(112 360) scale(0.78 0.78)"><path d="M0 24L220 0V168L0 192Z" fill="#070a09" stroke="#5b6560" stroke-width="6"/><path d="M14 34L206 14V154L14 174Z" fill="#0d1512" stroke="#ff7b68" stroke-width="2" opacity=".96"/><path d="M26 48H116" stroke="#89b8ff" stroke-width="6" opacity=".7"/><path d="M26 57H82" stroke="#88908b" stroke-width="4" opacity=".38"/><polyline points="26,86 50,100 74,83 98,67 122,106 146,67 170,108 194,74" fill="none" stroke="#ff7b68" stroke-width="5" stroke-linejoin="bevel"/><rect x="30" y="98" width="12" height="44" fill="#ff7b68" opacity=".58"/><rect x="55" y="128" width="12" height="14" fill="#89b8ff" opacity=".32"/><rect x="80" y="103" width="12" height="39" fill="#ff7b68" opacity=".58"/><rect x="105" y="126" width="12" height="16" fill="#89b8ff" opacity=".32"/><rect x="130" y="106" width="12" height="36" fill="#ff7b68" opacity=".58"/><rect x="155" y="127" width="12" height="15" fill="#89b8ff" opacity=".32"/><path d="M84 184h54l18 45H62z" fill="#1f2522" stroke="#4f5954" stroke-width="4"/></g><g transform="translate(1088 360) scale(-0.78 0.78)"><path d="M0 24L220 0V168L0 192Z" fill="#070a09" stroke="#5b6560" stroke-width="6"/><path d="M14 34L206 14V154L14 174Z" fill="#0d1512" stroke="#ff7b68" stroke-width="2" opacity=".96"/><path d="M26 48H116" stroke="#89b8ff" stroke-width="6" opacity=".7"/><path d="M26 57H82" stroke="#88908b" stroke-width="4" opacity=".38"/><polyline points="26,67 50,106 74,67 98,108 122,74 146,79 170,80 194,88" fill="none" stroke="#ff7b68" stroke-width="5" stroke-linejoin="bevel"/><rect x="30" y="128" width="12" height="14" fill="#ff7b68" opacity=".58"/><rect x="55" y="103" width="12" height="39" fill="#89b8ff" opacity=".32"/><rect x="80" y="126" width="12" height="16" fill="#ff7b68" opacity=".58"/><rect x="105" y="106" width="12" height="36" fill="#89b8ff" opacity=".32"/><rect x="130" y="127" width="12" height="15" fill="#ff7b68" opacity=".58"/><rect x="155" y="114" width="12" height="28" fill="#89b8ff" opacity=".32"/><path d="M84 184h54l18 45H62z" fill="#1f2522" stroke="#4f5954" stroke-width="4"/></g><g transform="translate(250 238) scale(0.66 0.66)"><path d="M0 24L220 0V168L0 192Z" fill="#070a09" stroke="#5b6560" stroke-width="6"/><path d="M14 34L206 14V154L14 174Z" fill="#0d1512" stroke="#ff7b68" stroke-width="2" opacity=".96"/><path d="M26 48H116" stroke="#89b8ff" stroke-width="6" opacity=".7"/><path d="M26 57H82" stroke="#88908b" stroke-width="4" opacity=".38"/><polyline points="26,108 50,74 74,79 98,80 122,88 146,77 170,120 194,107" fill="none" stroke="#ff7b68" stroke-width="5" stroke-linejoin="bevel"/><rect x="30" y="103" width="12" height="39" fill="#ff7b68" opacity=".58"/><rect x="55" y="126" width="12" height="16" fill="#89b8ff" opacity=".32"/><rect x="80" y="106" width="12" height="36" fill="#ff7b68" opacity=".58"/><rect x="105" y="127" width="12" height="15" fill="#89b8ff" opacity=".32"/><rect x="130" y="114" width="12" height="28" fill="#ff7b68" opacity=".58"/><rect x="155" y="105" width="12" height="37" fill="#89b8ff" opacity=".32"/><path d="M84 184h54l18 45H62z" fill="#1f2522" stroke="#4f5954" stroke-width="4"/></g><g><path d="M600 646C688 584 796 404 1014 168" fill="none" stroke="#202724" stroke-width="38"/><path d="M600 646C688 584 796 404 1014 168" fill="none" stroke="#ff7b68" stroke-width="10" filter="url(#glow)"/><g transform="translate(646 602)"><ellipse rx="24" ry="10" fill="#111613" stroke="#ff7b68" stroke-width="4"/><path d="M0-18v36" stroke="#ff7b68" stroke-width="3" opacity=".75"/></g><g transform="translate(749.3333333333334 488.6666666666667)"><ellipse rx="24" ry="10" fill="#111613" stroke="#ff7b68" stroke-width="4"/><path d="M0-18v36" stroke="#ff7b68" stroke-width="3" opacity=".75"/></g><g transform="translate(852.6666666666666 375.33333333333337)"><ellipse rx="24" ry="10" fill="#111613" stroke="#ff7b68" stroke-width="4"/><path d="M0-18v36" stroke="#ff7b68" stroke-width="3" opacity=".75"/></g><g transform="translate(956 262)"><ellipse rx="24" ry="10" fill="#111613" stroke="#ff7b68" stroke-width="4"/><path d="M0-18v36" stroke="#ff7b68" stroke-width="3" opacity=".75"/></g></g><g><path d="M104 688L600 566l496 122 76 392H28z" fill="url(#desk)" stroke="#5c6460" stroke-width="10"/><path d="M142 742L600 632l458 110 42 252H100z" fill="#0a0d0c" stroke="#3c4540" stroke-width="5"/><ellipse cx="600" cy="700" rx="256" ry="151.2" fill="#070a09" stroke="#5c6460" stroke-width="8"/><ellipse cx="600" cy="690" rx="202" ry="74" fill="none" stroke="#ff7b68" stroke-width="8" opacity="0.52"/><ellipse cx="600" cy="680" rx="226" ry="85" fill="none" stroke="#89b8ff" stroke-width="7" opacity="0.44"/><ellipse cx="600" cy="676" rx="160" ry="86.4" fill="#0c1511" stroke="#ff7b68" stroke-width="9" filter="url(#glow)"/><ellipse cx="600" cy="664" rx="122" ry="54.400000000000006" fill="#ff7b68" opacity=".12"/><g transform="translate(600 646)"><ellipse rx="58" ry="24" fill="#dfe4dc" fill-opacity=".16" stroke="#eff5ee" stroke-width="5"/><path d="M-46 0h92M0-22v44" stroke="#ff7b68" stroke-width="5"/><ellipse cy="-18" rx="38" ry="15" fill="#ff7b68" opacity=".18"/></g><path d="M420 834h360l34 102H386z" fill="#090c0b" stroke="#56605b" stroke-width="6"/><rect x="430" y="858" width="15" height="10" fill="#ff7b68" opacity=".72"/><rect x="454" y="876" width="15" height="10" fill="#707873" opacity=".72"/><rect x="478" y="894" width="15" height="10" fill="#707873" opacity=".72"/><rect x="502" y="858" width="15" height="10" fill="#707873" opacity=".72"/><rect x="526" y="876" width="15" height="10" fill="#707873" opacity=".72"/><rect x="550" y="894" width="15" height="10" fill="#ff7b68" opacity=".72"/><rect x="574" y="858" width="15" height="10" fill="#707873" opacity=".72"/><rect x="598" y="876" width="15" height="10" fill="#707873" opacity=".72"/><rect x="622" y="894" width="15" height="10" fill="#707873" opacity=".72"/><rect x="646" y="858" width="15" height="10" fill="#707873" opacity=".72"/><rect x="670" y="876" width="15" height="10" fill="#ff7b68" opacity=".72"/><rect x="694" y="894" width="15" height="10" fill="#707873" opacity=".72"/><rect x="718" y="858" width="15" height="10" fill="#707873" opacity=".72"/><rect x="742" y="876" width="15" height="10" fill="#707873" opacity=".72"/><g transform="translate(182 904) rotate(2)"><path d="M0 0h88l16 58H14z" fill="#dedbd0" stroke="#292d2a" stroke-width="4"/><path d="M17 18h52M21 31h61M25 44h37" stroke="#626862" stroke-width="4"/></g><g transform="translate(290 924) rotate(-4)"><path d="M0 0h88l16 58H14z" fill="#dedbd0" stroke="#292d2a" stroke-width="4"/><path d="M17 18h52M21 31h61M25 44h37" stroke="#626862" stroke-width="4"/></g><g transform="translate(398 904) rotate(-1)"><path d="M0 0h88l16 58H14z" fill="#dedbd0" stroke="#292d2a" stroke-width="4"/><path d="M17 18h52M21 31h61M25 44h37" stroke="#626862" stroke-width="4"/></g><g transform="translate(918 888)"><path d="M0 0h104l20 126H16z" fill="#101714" stroke="#89b8ff" stroke-width="5"/><circle cx="58" cy="38" r="12" fill="#ff7b68" opacity=".72"/><path d="M32 72h58M38 89h42" stroke="#8d9690" stroke-width="5"/></g></g><rect x="101" y="1078" width="8" height="4" fill="#89b8ff" opacity=".12"/><rect x="960" y="268" width="4" height="4" fill="#ff7b68" opacity=".12"/><rect x="924" y="235" width="4" height="4" fill="#ff7b68" opacity=".12"/><rect x="666" y="166" width="4" height="4" fill="#89b8ff" opacity=".12"/><rect x="108" y="898" width="8" height="4" fill="#ff7b68" opacity=".12"/><rect x="1143" y="349" width="4" height="4" fill="#ff7b68" opacity=".12"/><rect x="137" y="726" width="4" height="4" fill="#89b8ff" opacity=".12"/><rect x="702" y="629" width="4" height="4" fill="#ff7b68" opacity=".12"/><rect x="107" y="639" width="8" height="4" fill="#ff7b68" opacity=".12"/><rect x="1078" y="1074" width="4" height="4" fill="#89b8ff" opacity=".12"/><rect x="268" y="363" width="4" height="4" fill="#ff7b68" opacity=".12"/><rect x="235" y="1087" width="4" height="4" fill="#ff7b68" opacity=".12"/><rect x="166" y="744" width="8" height="4" fill="#89b8ff" opacity=".12"/><rect x="898" y="123" width="4" height="4" fill="#ff7b68" opacity=".12"/><rect x="349" y="993" width="4" height="4" fill="#ff7b68" opacity=".12"/><rect x="726" y="968" width="4" height="4" fill="#89b8ff" opacity=".12"/><rect x="629" y="1118" width="8" height="4" fill="#ff7b68" opacity=".12"/><rect x="639" y="160" width="4" height="4" fill="#ff7b68" opacity=".12"/><rect x="1074" y="60" width="4" height="4" fill="#89b8ff" opacity=".12"/><rect x="363" y="101" width="4" height="4" fill="#ff7b68" opacity=".12"/><rect x="1087" y="960" width="8" height="4" fill="#ff7b68" opacity=".12"/><rect x="744" y="924" width="4" height="4" fill="#89b8ff" opacity=".12"/><rect x="123" y="666" width="4" height="4" fill="#ff7b68" opacity=".12"/><rect x="993" y="108" width="4" height="4" fill="#ff7b68" opacity=".12"/><rect x="968" y="1143" width="8" height="4" fill="#89b8ff" opacity=".12"/><rect x="1118" y="137" width="4" height="4" fill="#ff7b68" opacity=".12"/><rect x="160" y="702" width="4" height="4" fill="#ff7b68" opacity=".12"/><rect x="60" y="107" width="4" height="4" fill="#89b8ff" opacity=".12"/><rect x="101" y="1078" width="8" height="4" fill="#ff7b68" opacity=".12"/><rect x="960" y="268" width="4" height="4" fill="#ff7b68" opacity=".12"/><rect x="924" y="235" width="4" height="4" fill="#89b8ff" opacity=".12"/><rect x="666" y="166" width="4" height="4" fill="#ff7b68" opacity=".12"/><rect x="108" y="898" width="8" height="4" fill="#ff7b68" opacity=".12"/><rect x="1143" y="349" width="4" height="4" fill="#89b8ff" opacity=".12"/><rect x="137" y="726" width="4" height="4" fill="#ff7b68" opacity=".12"/><rect x="702" y="629" width="4" height="4" fill="#ff7b68" opacity=".12"/><rect x="107" y="639" width="8" height="4" fill="#89b8ff" opacity=".12"/><rect x="1078" y="1074" width="4" height="4" fill="#ff7b68" opacity=".12"/><rect x="268" y="363" width="4" height="4" fill="#ff7b68" opacity=".12"/><rect x="235" y="1087" width="4" height="4" fill="#89b8ff" opacity=".12"/><rect x="166" y="744" width="8" height="4" fill="#ff7b68" opacity=".12"/><rect x="898" y="123" width="4" height="4" fill="#ff7b68" opacity=".12"/><rect x="349" y="993" width="4" height="4" fill="#89b8ff" opacity=".12"/><rect x="726" y="968" width="4" height="4" fill="#ff7b68" opacity=".12"/><g><path d="M58 58h216v58H58z" fill="#070a09" stroke="#ff7b68" stroke-width="3"/><text x="82" y="96" font-family="ui-monospace, SFMono-Regular, Menlo, monospace" font-weight="800" font-size="22" fill="#f1efe7">IPO #0863</text></g><g><path d="M942 58h200v58H942z" fill="#070a09" stroke="#46504b" stroke-width="3"/><text x="1042" y="95" text-anchor="middle" font-family="ui-monospace, SFMono-Regular, Menlo, monospace" font-size="17" fill="#ff7b68">7B3D4FD5</text></g><text x="82" y="1130" font-family="ui-monospace, SFMono-Regular, Menlo, monospace" font-size="17" fill="#89918c">BLACK TITANIUM / CRESCENT GATE</text></svg>