<svg xmlns="http://www.w3.org/2000/svg" width="1200" height="1200" viewBox="0 0 1200 1200"><title>IPO-0290 Rare Analyst research desk</title><desc>An architectural IPO research workspace with no people or company affiliation.</desc><rect width="1200" height="1200" fill="#070908"/><rect x="42" y="42" width="1116" height="1116" rx="18" fill="#0c0f0e" stroke="#27302d" stroke-width="6"/><path d="M48 810L380 494h440l332 316v344H48z" fill="#101412" opacity=".92"/><rect x="332" y="104" width="536" height="384" fill="#090d0c" stroke="#303936" stroke-width="7"/><rect x="350" y="246" width="42" height="224" fill="#121817" stroke="#28312e" stroke-width="3"/><rect x="422" y="274" width="42" height="196" fill="#121817" stroke="#28312e" stroke-width="3"/><rect x="494" y="345" width="42" height="125" fill="#121817" stroke="#28312e" stroke-width="3"/><rect x="566" y="238" width="42" height="232" fill="#121817" stroke="#28312e" stroke-width="3"/><rect x="638" y="205" width="42" height="265" fill="#121817" stroke="#28312e" stroke-width="3"/><rect x="710" y="305" width="42" height="165" fill="#121817" stroke="#28312e" stroke-width="3"/><rect x="782" y="337" width="42" height="133" fill="#121817" stroke="#28312e" stroke-width="3"/><ellipse cx="600" cy="570" rx="364" ry="210" fill="#e8eadf" opacity=".055"/><path d="M48 890h1110M210 1154l170-336M990 1154L820 818" stroke="#252d2a" stroke-width="4" opacity=".58"/><g><rect x="88" y="154" width="238" height="184" rx="8" fill="#070a09" stroke="#3b4541" stroke-width="6"/><rect x="100" y="166" width="214" height="160" rx="3" fill="#0b100e"/><rect x="110" y="184" width="73" height="5" fill="#e8eadf" opacity=".62"/><rect x="110" y="204" width="135" height="5" fill="#87918c" opacity=".34"/><rect x="110" y="224" width="189" height="5" fill="#e8eadf" opacity=".62"/><rect x="110" y="244" width="138" height="5" fill="#87918c" opacity=".34"/><polyline points="112.0,269.4 139.1,234.4 166.3,261.4 193.4,227.4 220.6,252.4 247.7,229.4 274.9,224.4 302.0,220.4" fill="none" stroke="#e8eadf" stroke-width="5" stroke-linejoin="miter" opacity=".82"/><rect x="200" y="338" width="14" height="42" fill="#2b312f"/><rect x="163" y="376" width="88" height="8" fill="#343c39"/></g><g><rect x="346" y="154" width="238" height="184" rx="8" fill="#070a09" stroke="#3b4541" stroke-width="6"/><rect x="358" y="166" width="214" height="160" rx="3" fill="#0b100e"/><rect x="368" y="184" width="138" height="5" fill="#e8eadf" opacity=".62"/><rect x="368" y="204" width="160" height="5" fill="#87918c" opacity=".34"/><rect x="368" y="224" width="34" height="5" fill="#e8eadf" opacity=".62"/><rect x="368" y="244" width="181" height="5" fill="#87918c" opacity=".34"/><polyline points="370.0,227.4 397.1,252.4 424.3,229.4 451.4,224.4 478.6,220.4 505.7,232.4 532.9,228.4 560.0,217.4" fill="none" stroke="#e8eadf" stroke-width="5" stroke-linejoin="miter" opacity=".82"/><rect x="458" y="338" width="14" height="42" fill="#2b312f"/><rect x="421" y="376" width="88" height="8" fill="#343c39"/></g><g><rect x="604" y="154" width="238" height="184" rx="8" fill="#070a09" stroke="#3b4541" stroke-width="6"/><rect x="616" y="166" width="214" height="160" rx="3" fill="#0b100e"/><rect x="626" y="184" width="181" height="5" fill="#e8eadf" opacity=".62"/><rect x="626" y="204" width="84" height="5" fill="#87918c" opacity=".34"/><rect x="626" y="224" width="112" height="5" fill="#e8eadf" opacity=".62"/><rect x="626" y="244" width="102" height="5" fill="#87918c" opacity=".34"/><polyline points="628.0,224.4 655.1,220.4 682.3,232.4 709.4,228.4 736.6,217.4 763.7,233.4 790.9,247.4 818.0,272.4" fill="none" stroke="#e8eadf" stroke-width="5" stroke-linejoin="miter" opacity=".82"/><rect x="716" y="338" width="14" height="42" fill="#2b312f"/><rect x="679" y="376" width="88" height="8" fill="#343c39"/></g><g><rect x="862" y="154" width="238" height="184" rx="8" fill="#070a09" stroke="#3b4541" stroke-width="6"/><rect x="874" y="166" width="214" height="160" rx="3" fill="#0b100e"/><rect x="884" y="184" width="102" height="5" fill="#e8eadf" opacity=".62"/><rect x="884" y="204" width="104" height="5" fill="#87918c" opacity=".34"/><rect x="884" y="224" width="120" height="5" fill="#e8eadf" opacity=".62"/><rect x="884" y="244" width="71" height="5" fill="#87918c" opacity=".34"/><polyline points="886.0,228.4 913.1,217.4 940.3,233.4 967.4,247.4 994.6,272.4 1021.7,251.4 1048.9,273.4 1076.0,249.4" fill="none" stroke="#e8eadf" stroke-width="5" stroke-linejoin="miter" opacity=".82"/><rect x="974" y="338" width="14" height="42" fill="#2b312f"/><rect x="937" y="376" width="88" height="8" fill="#343c39"/></g><g><rect x="218" y="390" width="270" height="194" rx="8" fill="#070a09" stroke="#3b4541" stroke-width="6"/><rect x="230" y="402" width="246" height="170" rx="3" fill="#0b100e"/><rect x="240" y="420" width="219" height="5" fill="#e8eadf" opacity=".62"/><rect x="240" y="440" width="57" height="5" fill="#87918c" opacity=".34"/><rect x="240" y="460" width="137" height="5" fill="#e8eadf" opacity=".62"/><rect x="240" y="480" width="162" height="5" fill="#87918c" opacity=".34"/><polyline points="242.0,459.0 273.7,472.0 305.4,517.0 337.1,507.0 368.9,468.0 400.6,499.0 432.3,454.0 464.0,473.0" fill="none" stroke="#e8eadf" stroke-width="5" stroke-linejoin="miter" opacity=".82"/><rect x="346" y="584" width="14" height="42" fill="#2b312f"/><rect x="309" y="622" width="88" height="8" fill="#343c39"/></g><g><path d="M150 754H1050l70 300H16z" fill="#111514" stroke="#252d2a" stroke-width="10"/><path d="M182 790H1018l34 176H84z" fill="#151a18" stroke="#343c38" stroke-width="4"/><path d="M216 816H984" stroke="#e8eadf" stroke-width="5" opacity=".55"/><rect x="450" y="840" width="300" height="94" rx="8" fill="#080b0a" stroke="#3a423f" stroke-width="6"/><rect x="478" y="868" width="13" height="8" fill="#e8eadf" opacity=".65"/><rect x="499" y="883" width="13" height="8" fill="#69716d" opacity=".65"/><rect x="520" y="898" width="13" height="8" fill="#69716d" opacity=".65"/><rect x="541" y="868" width="13" height="8" fill="#69716d" opacity=".65"/><rect x="562" y="883" width="13" height="8" fill="#e8eadf" opacity=".65"/><rect x="583" y="898" width="13" height="8" fill="#69716d" opacity=".65"/><rect x="604" y="868" width="13" height="8" fill="#69716d" opacity=".65"/><rect x="625" y="883" width="13" height="8" fill="#69716d" opacity=".65"/><rect x="646" y="898" width="13" height="8" fill="#e8eadf" opacity=".65"/><rect x="667" y="868" width="13" height="8" fill="#69716d" opacity=".65"/><rect x="688" y="883" width="13" height="8" fill="#69716d" opacity=".65"/><rect x="709" y="898" width="13" height="8" fill="#69716d" opacity=".65"/><g transform="rotate(2 238 900)"><rect x="238" y="878" width="96" height="68" fill="#d8d5ca" stroke="#171a18" stroke-width="4"/><path d="M252 900h62m-62 16h46" stroke="#545954" stroke-width="4"/></g><g transform="rotate(2 333 900)"><rect x="333" y="900" width="96" height="68" fill="#d8d5ca" stroke="#171a18" stroke-width="4"/><path d="M347 922h62m-62 16h46" stroke="#545954" stroke-width="4"/></g><g transform="rotate(-2 446 900)"><rect x="446" y="878" width="96" height="68" fill="#d8d5ca" stroke="#171a18" stroke-width="4"/><path d="M460 900h62m-62 16h46" stroke="#545954" stroke-width="4"/></g><g transform="rotate(3 548 900)"><rect x="548" y="900" width="96" height="68" fill="#d8d5ca" stroke="#171a18" stroke-width="4"/><path d="M562 922h62m-62 16h46" stroke="#545954" stroke-width="4"/></g><rect x="955" y="864" width="78" height="116" rx="7" fill="#111715" stroke="#414a46" stroke-width="5"/><circle cx="994" cy="890" r="8" fill="#e8eadf" opacity=".7"/><path d="M154 994h238" stroke="#727a75" stroke-width="7"/><circle cx="178" cy="1025" r="18" fill="#e8eadf" opacity=".28"/><text x="82" y="1110" font-family="ui-monospace, SFMono-Regular, Menlo, monospace" font-size="18" fill="#8e9691">MATTE BLACK / CRESCENT</text></g><rect x="1112" y="807" width="4" height="4" fill="#e8eadf" opacity=".10"/><rect x="455" y="38" width="4" height="4" fill="#e8eadf" opacity=".10"/><rect x="144" y="322" width="4" height="4" fill="#e8eadf" opacity=".10"/><rect x="416" y="994" width="4" height="4" fill="#e8eadf" opacity=".10"/><rect x="295" y="911" width="4" height="4" fill="#e8eadf" opacity=".10"/><rect x="252" y="986" width="4" height="4" fill="#e8eadf" opacity=".10"/><rect x="885" y="1086" width="4" height="4" fill="#e8eadf" opacity=".10"/><rect x="435" y="820" width="4" height="4" fill="#e8eadf" opacity=".10"/><rect x="753" y="1104" width="4" height="4" fill="#e8eadf" opacity=".10"/><rect x="807" y="954" width="4" height="4" fill="#e8eadf" opacity=".10"/><rect x="38" y="585" width="4" height="4" fill="#e8eadf" opacity=".10"/><rect x="322" y="873" width="4" height="4" fill="#e8eadf" opacity=".10"/><rect x="994" y="123" width="4" height="4" fill="#e8eadf" opacity=".10"/><rect x="911" y="748" width="4" height="4" fill="#e8eadf" opacity=".10"/><rect x="986" y="800" width="4" height="4" fill="#e8eadf" opacity=".10"/><rect x="1086" y="941" width="4" height="4" fill="#e8eadf" opacity=".10"/><rect x="820" y="641" width="4" height="4" fill="#e8eadf" opacity=".10"/><rect x="1104" y="392" width="4" height="4" fill="#e8eadf" opacity=".10"/><rect x="954" y="38" width="4" height="4" fill="#e8eadf" opacity=".10"/><rect x="585" y="1112" width="4" height="4" fill="#e8eadf" opacity=".10"/><rect x="873" y="455" width="4" height="4" fill="#e8eadf" opacity=".10"/><rect x="123" y="144" width="4" height="4" fill="#e8eadf" opacity=".10"/><rect x="748" y="416" width="4" height="4" fill="#e8eadf" opacity=".10"/><rect x="800" y="295" width="4" height="4" fill="#e8eadf" opacity=".10"/><rect x="941" y="252" width="4" height="4" fill="#e8eadf" opacity=".10"/><rect x="641" y="885" width="4" height="4" fill="#e8eadf" opacity=".10"/><rect x="392" y="435" width="4" height="4" fill="#e8eadf" opacity=".10"/><rect x="38" y="753" width="4" height="4" fill="#e8eadf" opacity=".10"/><rect x="1112" y="807" width="4" height="4" fill="#e8eadf" opacity=".10"/><rect x="455" y="38" width="4" height="4" fill="#e8eadf" opacity=".10"/><rect x="144" y="322" width="4" height="4" fill="#e8eadf" opacity=".10"/><rect x="416" y="994" width="4" height="4" fill="#e8eadf" opacity=".10"/><rect x="295" y="911" width="4" height="4" fill="#e8eadf" opacity=".10"/><rect x="252" y="986" width="4" height="4" fill="#e8eadf" opacity=".10"/><rect x="885" y="1086" width="4" height="4" fill="#e8eadf" opacity=".10"/><rect x="435" y="820" width="4" height="4" fill="#e8eadf" opacity=".10"/><rect x="753" y="1104" width="4" height="4" fill="#e8eadf" opacity=".10"/><rect x="807" y="954" width="4" height="4" fill="#e8eadf" opacity=".10"/><g><rect x="58" y="62" width="188" height="52" rx="5" fill="#090c0b" stroke="#e8eadf" stroke-width="3"/><text x="82" y="96" font-family="ui-monospace, SFMono-Regular, Menlo, monospace" font-weight="800" font-size="22" fill="#f1efe7">IPO #0290</text></g><g><rect x="956" y="62" width="186" height="52" rx="5" fill="#090c0b" stroke="#39423e" stroke-width="3"/><text x="1049" y="95" text-anchor="middle" font-family="ui-monospace, SFMono-Regular, Menlo, monospace" font-size="17" fill="#e8eadf">ED853478</text></g></svg>