<svg xmlns="http://www.w3.org/2000/svg" width="1200" height="1200" viewBox="0 0 1200 1200"><title>IPO-0113 Common Director research desk</title><desc>An architectural IPO research workspace with no people or company affiliation.</desc><rect width="1200" height="1200" fill="#070908"/><rect x="42" y="42" width="1116" height="1116" rx="18" fill="#0c0f0e" stroke="#27302d" stroke-width="6"/><path d="M48 810L380 494h440l332 316v344H48z" fill="#101412" opacity=".92"/><rect x="332" y="104" width="536" height="384" fill="#090d0c" stroke="#303936" stroke-width="7"/><rect x="350" y="351" width="42" height="119" fill="#121817" stroke="#28312e" stroke-width="3"/><rect x="422" y="389" width="42" height="81" fill="#121817" stroke="#28312e" stroke-width="3"/><rect x="494" y="153" width="42" height="317" fill="#121817" stroke="#28312e" stroke-width="3"/><rect x="566" y="221" width="42" height="249" fill="#121817" stroke="#28312e" stroke-width="3"/><rect x="638" y="361" width="42" height="109" fill="#121817" stroke="#28312e" stroke-width="3"/><rect x="710" y="234" width="42" height="236" fill="#121817" stroke="#28312e" stroke-width="3"/><rect x="782" y="167" width="42" height="303" fill="#121817" stroke="#28312e" stroke-width="3"/><path d="M76 742h1048" stroke="#b8ff38" stroke-width="3" opacity=".2"/><rect x="92" y="770" width="1016" height="12" fill="#b8ff38" opacity=".08"/><ellipse cx="600" cy="570" rx="420" ry="210" fill="#b8ff38" opacity=".055"/><path d="M48 890h1110M210 1154l170-336M990 1154L820 818" stroke="#252d2a" stroke-width="4" opacity=".58"/><g><rect x="88" y="154" width="238" height="184" rx="8" fill="#070a09" stroke="#3b4541" stroke-width="6"/><rect x="100" y="166" width="214" height="160" rx="3" fill="#0b100e"/><rect x="110" y="184" width="68" height="5" fill="#b8ff38" opacity=".62"/><rect x="110" y="204" width="93" height="5" fill="#87918c" opacity=".34"/><rect x="110" y="224" width="59" height="5" fill="#b8ff38" opacity=".62"/><rect x="110" y="244" width="189" height="5" fill="#87918c" opacity=".34"/><polyline points="112.0,230.4 139.1,217.4 166.3,256.4 193.4,252.4 220.6,226.4 247.7,270.4 274.9,252.4 302.0,237.4" fill="none" stroke="#b8ff38" stroke-width="5" stroke-linejoin="miter" opacity=".82"/><rect x="200" y="338" width="14" height="42" fill="#2b312f"/><rect x="163" y="376" width="88" height="8" fill="#343c39"/></g><g><rect x="346" y="154" width="238" height="184" rx="8" fill="#070a09" stroke="#3b4541" stroke-width="6"/><rect x="358" y="166" width="214" height="160" rx="3" fill="#0b100e"/><rect x="368" y="184" width="189" height="5" fill="#b8ff38" opacity=".62"/><rect x="368" y="204" width="65" height="5" fill="#87918c" opacity=".34"/><rect x="368" y="224" width="155" height="5" fill="#b8ff38" opacity=".62"/><rect x="368" y="244" width="134" height="5" fill="#87918c" opacity=".34"/><polyline points="370.0,252.4 397.1,226.4 424.3,270.4 451.4,252.4 478.6,237.4 505.7,226.4 532.9,250.4 560.0,226.4" fill="none" stroke="#b8ff38" stroke-width="5" stroke-linejoin="miter" opacity=".82"/><rect x="458" y="338" width="14" height="42" fill="#2b312f"/><rect x="421" y="376" width="88" height="8" fill="#343c39"/></g><g><rect x="604" y="154" width="238" height="184" rx="8" fill="#070a09" stroke="#3b4541" stroke-width="6"/><rect x="616" y="166" width="214" height="160" rx="3" fill="#0b100e"/><rect x="626" y="184" width="134" height="5" fill="#b8ff38" opacity=".62"/><rect x="626" y="204" width="69" height="5" fill="#87918c" opacity=".34"/><rect x="626" y="224" width="133" height="5" fill="#b8ff38" opacity=".62"/><rect x="626" y="244" width="65" height="5" fill="#87918c" opacity=".34"/><polyline points="628.0,252.4 655.1,237.4 682.3,226.4 709.4,250.4 736.6,226.4 763.7,234.4 790.9,268.4 818.0,247.4" fill="none" stroke="#b8ff38" stroke-width="5" stroke-linejoin="miter" opacity=".82"/><rect x="716" y="338" width="14" height="42" fill="#2b312f"/><rect x="679" y="376" width="88" height="8" fill="#343c39"/></g><g><rect x="862" y="154" width="238" height="184" rx="8" fill="#070a09" stroke="#3b4541" stroke-width="6"/><rect x="874" y="166" width="214" height="160" rx="3" fill="#0b100e"/><rect x="884" y="184" width="65" height="5" fill="#b8ff38" opacity=".62"/><rect x="884" y="204" width="131" height="5" fill="#87918c" opacity=".34"/><rect x="884" y="224" width="98" height="5" fill="#b8ff38" opacity=".62"/><rect x="884" y="244" width="100" height="5" fill="#87918c" opacity=".34"/><polyline points="886.0,250.4 913.1,226.4 940.3,234.4 967.4,268.4 994.6,247.4 1021.7,254.4 1048.9,222.4 1076.0,218.4" fill="none" stroke="#b8ff38" stroke-width="5" stroke-linejoin="miter" opacity=".82"/><rect x="974" y="338" width="14" height="42" fill="#2b312f"/><rect x="937" y="376" width="88" height="8" fill="#343c39"/></g><g><rect x="218" y="390" width="270" height="194" rx="8" fill="#070a09" stroke="#3b4541" stroke-width="6"/><rect x="230" y="402" width="246" height="170" rx="3" fill="#0b100e"/><rect x="240" y="420" width="210" height="5" fill="#b8ff38" opacity=".62"/><rect x="240" y="440" width="114" height="5" fill="#87918c" opacity=".34"/><rect x="240" y="460" width="187" height="5" fill="#b8ff38" opacity=".62"/><rect x="240" y="480" width="97" height="5" fill="#87918c" opacity=".34"/><polyline points="242.0,505.0 273.7,497.0 305.4,473.0 337.1,501.0 368.9,507.0 400.6,486.0 432.3,511.0 464.0,467.0" fill="none" stroke="#b8ff38" stroke-width="5" stroke-linejoin="miter" opacity=".82"/><rect x="346" y="584" width="14" height="42" fill="#2b312f"/><rect x="309" y="622" width="88" height="8" fill="#343c39"/></g><g><rect x="508" y="390" width="270" height="194" rx="8" fill="#070a09" stroke="#3b4541" stroke-width="6"/><rect x="520" y="402" width="246" height="170" rx="3" fill="#0b100e"/><rect x="530" y="420" width="97" height="5" fill="#b8ff38" opacity=".62"/><rect x="530" y="440" width="51" height="5" fill="#87918c" opacity=".34"/><rect x="530" y="460" width="73" height="5" fill="#b8ff38" opacity=".62"/><rect x="530" y="480" width="98" height="5" fill="#87918c" opacity=".34"/><polyline points="532.0,501.0 563.7,507.0 595.4,486.0 627.1,511.0 658.9,467.0 690.6,458.0 722.3,465.0 754.0,475.0" fill="none" stroke="#b8ff38" stroke-width="5" stroke-linejoin="miter" opacity=".82"/><rect x="636" y="584" width="14" height="42" fill="#2b312f"/><rect x="599" y="622" width="88" height="8" fill="#343c39"/></g><g><path d="M86 754H1114l70 300H16z" fill="#10191a" stroke="#496164" stroke-width="10"/><path d="M118 790H1082l34 176H84z" fill="#151a18" stroke="#343c38" stroke-width="4"/><path d="M152 816H1048" stroke="#b8ff38" stroke-width="5" opacity=".55"/><rect x="450" y="840" width="300" height="94" rx="8" fill="#080b0a" stroke="#3a423f" stroke-width="6"/><rect x="478" y="868" width="13" height="8" fill="#b8ff38" opacity=".65"/><rect x="499" y="883" width="13" height="8" fill="#69716d" opacity=".65"/><rect x="520" y="898" width="13" height="8" fill="#69716d" opacity=".65"/><rect x="541" y="868" width="13" height="8" fill="#69716d" opacity=".65"/><rect x="562" y="883" width="13" height="8" fill="#b8ff38" opacity=".65"/><rect x="583" y="898" width="13" height="8" fill="#69716d" opacity=".65"/><rect x="604" y="868" width="13" height="8" fill="#69716d" opacity=".65"/><rect x="625" y="883" width="13" height="8" fill="#69716d" opacity=".65"/><rect x="646" y="898" width="13" height="8" fill="#b8ff38" opacity=".65"/><rect x="667" y="868" width="13" height="8" fill="#69716d" opacity=".65"/><rect x="688" y="883" width="13" height="8" fill="#69716d" opacity=".65"/><rect x="709" y="898" width="13" height="8" fill="#69716d" opacity=".65"/><g transform="rotate(-4 231 900)"><rect x="231" y="878" width="96" height="68" fill="#d8d5ca" stroke="#171a18" stroke-width="4"/><path d="M245 900h62m-62 16h46" stroke="#545954" stroke-width="4"/></g><g transform="rotate(1 344 900)"><rect x="344" y="900" width="96" height="68" fill="#d8d5ca" stroke="#171a18" stroke-width="4"/><path d="M358 922h62m-62 16h46" stroke="#545954" stroke-width="4"/></g><g transform="rotate(-2 453 900)"><rect x="453" y="878" width="96" height="68" fill="#d8d5ca" stroke="#171a18" stroke-width="4"/><path d="M467 900h62m-62 16h46" stroke="#545954" stroke-width="4"/></g><g transform="rotate(2 571 900)"><rect x="571" y="900" width="96" height="68" fill="#d8d5ca" stroke="#171a18" stroke-width="4"/><path d="M585 922h62m-62 16h46" stroke="#545954" stroke-width="4"/></g><g transform="rotate(4 655 900)"><rect x="655" y="878" width="96" height="68" fill="#d8d5ca" stroke="#171a18" stroke-width="4"/><path d="M669 900h62m-62 16h46" stroke="#545954" stroke-width="4"/></g><rect x="933" y="864" width="78" height="116" rx="7" fill="#111715" stroke="#414a46" stroke-width="5"/><circle cx="972" cy="890" r="8" fill="#b8ff38" opacity=".7"/><path d="M154 994h238" stroke="#727a75" stroke-width="7"/><circle cx="178" cy="1025" r="18" fill="#b8ff38" opacity=".28"/><rect x="966" y="988" width="128" height="72" fill="#0a0e0c" stroke="#b8ff38" stroke-width="3"/><path d="M984 1016h82m-82 18h54" stroke="#b8ff38" stroke-width="4" opacity=".55"/><text x="82" y="1110" font-family="ui-monospace, SFMono-Regular, Menlo, monospace" font-size="18" fill="#8e9691">SMOKED GLASS / MODULAR</text></g><rect x="309" y="227" width="4" height="4" fill="#b8ff38" opacity=".10"/><rect x="578" y="497" width="4" height="4" fill="#b8ff38" opacity=".10"/><rect x="489" y="1095" width="4" height="4" fill="#b8ff38" opacity=".10"/><rect x="951" y="953" width="4" height="4" fill="#b8ff38" opacity=".10"/><rect x="437" y="1116" width="4" height="4" fill="#b8ff38" opacity=".10"/><rect x="519" y="915" width="4" height="4" fill="#b8ff38" opacity=".10"/><rect x="1079" y="137" width="4" height="4" fill="#b8ff38" opacity=".10"/><rect x="206" y="901" width="4" height="4" fill="#b8ff38" opacity=".10"/><rect x="723" y="1187" width="4" height="4" fill="#b8ff38" opacity=".10"/><rect x="227" y="172" width="4" height="4" fill="#b8ff38" opacity=".10"/><rect x="497" y="1006" width="4" height="4" fill="#b8ff38" opacity=".10"/><rect x="1095" y="1150" width="4" height="4" fill="#b8ff38" opacity=".10"/><rect x="953" y="643" width="4" height="4" fill="#b8ff38" opacity=".10"/><rect x="1116" y="583" width="4" height="4" fill="#b8ff38" opacity=".10"/><rect x="915" y="17" width="4" height="4" fill="#b8ff38" opacity=".10"/><rect x="137" y="169" width="4" height="4" fill="#b8ff38" opacity=".10"/><rect x="901" y="874" width="4" height="4" fill="#b8ff38" opacity=".10"/><rect x="1187" y="124" width="4" height="4" fill="#b8ff38" opacity=".10"/><rect x="172" y="187" width="4" height="4" fill="#b8ff38" opacity=".10"/><rect x="1006" y="309" width="4" height="4" fill="#b8ff38" opacity=".10"/><rect x="1150" y="578" width="4" height="4" fill="#b8ff38" opacity=".10"/><rect x="643" y="489" width="4" height="4" fill="#b8ff38" opacity=".10"/><rect x="583" y="951" width="4" height="4" fill="#b8ff38" opacity=".10"/><rect x="17" y="437" width="4" height="4" fill="#b8ff38" opacity=".10"/><rect x="169" y="519" width="4" height="4" fill="#b8ff38" opacity=".10"/><rect x="874" y="1079" width="4" height="4" fill="#b8ff38" opacity=".10"/><rect x="124" y="206" width="4" height="4" fill="#b8ff38" opacity=".10"/><rect x="187" y="723" width="4" height="4" fill="#b8ff38" opacity=".10"/><rect x="309" y="227" width="4" height="4" fill="#b8ff38" opacity=".10"/><rect x="578" y="497" width="4" height="4" fill="#b8ff38" opacity=".10"/><rect x="489" y="1095" width="4" height="4" fill="#b8ff38" opacity=".10"/><rect x="951" y="953" width="4" height="4" fill="#b8ff38" opacity=".10"/><rect x="437" y="1116" width="4" height="4" fill="#b8ff38" opacity=".10"/><rect x="519" y="915" width="4" height="4" fill="#b8ff38" opacity=".10"/><rect x="1079" y="137" width="4" height="4" fill="#b8ff38" opacity=".10"/><rect x="206" y="901" width="4" height="4" fill="#b8ff38" opacity=".10"/><rect x="723" y="1187" width="4" height="4" fill="#b8ff38" opacity=".10"/><rect x="227" y="172" width="4" height="4" fill="#b8ff38" opacity=".10"/><g><rect x="58" y="62" width="188" height="52" rx="5" fill="#090c0b" stroke="#b8ff38" stroke-width="3"/><text x="82" y="96" font-family="ui-monospace, SFMono-Regular, Menlo, monospace" font-weight="800" font-size="22" fill="#f1efe7">IPO #0113</text></g><g><rect x="956" y="62" width="186" height="52" rx="5" fill="#090c0b" stroke="#39423e" stroke-width="3"/><text x="1049" y="95" text-anchor="middle" font-family="ui-monospace, SFMono-Regular, Menlo, monospace" font-size="17" fill="#b8ff38">B28A3E15</text></g></svg>