<svg xmlns="http://www.w3.org/2000/svg" width="1200" height="1200" viewBox="0 0 1200 1200"><title>IPO-0558 Common Analyst research desk</title><desc>An architectural IPO research workspace with no people or company affiliation.</desc><rect width="1200" height="1200" fill="#070908"/><rect x="42" y="42" width="1116" height="1116" rx="18" fill="#0c0f0e" stroke="#27302d" stroke-width="6"/><path d="M48 810L380 494h440l332 316v344H48z" fill="#101412" opacity=".92"/><rect x="332" y="104" width="536" height="384" fill="#090d0c" stroke="#303936" stroke-width="7"/><rect x="350" y="386" width="42" height="84" fill="#121817" stroke="#28312e" stroke-width="3"/><rect x="422" y="142" width="42" height="328" fill="#121817" stroke="#28312e" stroke-width="3"/><rect x="494" y="269" width="42" height="201" fill="#121817" stroke="#28312e" stroke-width="3"/><rect x="566" y="297" width="42" height="173" fill="#121817" stroke="#28312e" stroke-width="3"/><rect x="638" y="168" width="42" height="302" fill="#121817" stroke="#28312e" stroke-width="3"/><rect x="710" y="226" width="42" height="244" fill="#121817" stroke="#28312e" stroke-width="3"/><rect x="782" y="271" width="42" height="199" fill="#121817" stroke="#28312e" stroke-width="3"/><path d="M350 282l-18 54" stroke="#a9c7c1" stroke-width="3" opacity=".18"/><path d="M393 204l-18 54" stroke="#a9c7c1" stroke-width="3" opacity=".18"/><path d="M436 244l-18 54" stroke="#a9c7c1" stroke-width="3" opacity=".18"/><path d="M479 268l-18 54" stroke="#a9c7c1" stroke-width="3" opacity=".18"/><path d="M522 261l-18 54" stroke="#a9c7c1" stroke-width="3" opacity=".18"/><path d="M565 253l-18 54" stroke="#a9c7c1" stroke-width="3" opacity=".18"/><path d="M608 312l-18 54" stroke="#a9c7c1" stroke-width="3" opacity=".18"/><path d="M651 134l-18 54" stroke="#a9c7c1" stroke-width="3" opacity=".18"/><path d="M694 299l-18 54" stroke="#a9c7c1" stroke-width="3" opacity=".18"/><path d="M737 312l-18 54" stroke="#a9c7c1" stroke-width="3" opacity=".18"/><path d="M780 281l-18 54" stroke="#a9c7c1" stroke-width="3" opacity=".18"/><path d="M823 125l-18 54" stroke="#a9c7c1" stroke-width="3" opacity=".18"/><path d="M366 308l-18 54" stroke="#a9c7c1" stroke-width="3" opacity=".18"/><path d="M409 286l-18 54" stroke="#a9c7c1" stroke-width="3" opacity=".18"/><path d="M452 309l-18 54" stroke="#a9c7c1" stroke-width="3" opacity=".18"/><path d="M495 244l-18 54" stroke="#a9c7c1" stroke-width="3" opacity=".18"/><path d="M538 295l-18 54" stroke="#a9c7c1" stroke-width="3" opacity=".18"/><path d="M581 256l-18 54" stroke="#a9c7c1" stroke-width="3" opacity=".18"/><path d="M624 230l-18 54" stroke="#a9c7c1" stroke-width="3" opacity=".18"/><path d="M667 135l-18 54" stroke="#a9c7c1" stroke-width="3" opacity=".18"/><path d="M710 258l-18 54" stroke="#a9c7c1" stroke-width="3" opacity=".18"/><path d="M753 292l-18 54" stroke="#a9c7c1" stroke-width="3" opacity=".18"/><path d="M796 326l-18 54" stroke="#a9c7c1" stroke-width="3" opacity=".18"/><path d="M839 212l-18 54" stroke="#a9c7c1" stroke-width="3" opacity=".18"/><ellipse cx="600" cy="570" rx="364" ry="210" fill="#b8ff38" opacity=".055"/><path d="M48 890h1110M210 1154l170-336M990 1154L820 818" stroke="#252d2a" stroke-width="4" opacity=".58"/><g><rect x="164" y="322" width="276" height="210" rx="8" fill="#070a09" stroke="#3b4541" stroke-width="6"/><rect x="176" y="334" width="252" height="186" rx="3" fill="#0b100e"/><rect x="186" y="352" width="188" height="5" fill="#b8ff38" opacity=".62"/><rect x="186" y="372" width="101" height="5" fill="#87918c" opacity=".34"/><rect x="186" y="392" width="44" height="5" fill="#b8ff38" opacity=".62"/><rect x="186" y="412" width="41" height="5" fill="#87918c" opacity=".34"/><polyline points="188.0,459.6 220.6,451.6 253.1,406.6 285.7,454.6 318.3,417.6 350.9,459.6 383.4,403.6 416.0,399.6" fill="none" stroke="#b8ff38" stroke-width="5" stroke-linejoin="miter" opacity=".82"/><rect x="295" y="532" width="14" height="42" fill="#2b312f"/><rect x="258" y="570" width="88" height="8" fill="#343c39"/></g><g><rect x="458" y="288" width="276" height="210" rx="8" fill="#070a09" stroke="#3b4541" stroke-width="6"/><rect x="470" y="300" width="252" height="186" rx="3" fill="#0b100e"/><rect x="480" y="318" width="179" height="5" fill="#b8ff38" opacity=".62"/><rect x="480" y="338" width="180" height="5" fill="#87918c" opacity=".34"/><rect x="480" y="358" width="214" height="5" fill="#b8ff38" opacity=".62"/><rect x="480" y="378" width="139" height="5" fill="#87918c" opacity=".34"/><polyline points="482.0,383.6 514.6,425.6 547.1,369.6 579.7,365.6 612.3,409.6 644.9,404.6 677.4,409.6 710.0,423.6" fill="none" stroke="#b8ff38" stroke-width="5" stroke-linejoin="miter" opacity=".82"/><rect x="589" y="498" width="14" height="42" fill="#2b312f"/><rect x="552" y="536" width="88" height="8" fill="#343c39"/></g><g><rect x="752" y="322" width="276" height="210" rx="8" fill="#070a09" stroke="#3b4541" stroke-width="6"/><rect x="764" y="334" width="252" height="186" rx="3" fill="#0b100e"/><rect x="774" y="352" width="186" height="5" fill="#b8ff38" opacity=".62"/><rect x="774" y="372" width="125" height="5" fill="#87918c" opacity=".34"/><rect x="774" y="392" width="156" height="5" fill="#b8ff38" opacity=".62"/><rect x="774" y="412" width="228" height="5" fill="#87918c" opacity=".34"/><polyline points="776.0,443.6 808.6,438.6 841.1,443.6 873.7,457.6 906.3,457.6 938.9,413.6 971.4,390.6 1004.0,425.6" fill="none" stroke="#b8ff38" stroke-width="5" stroke-linejoin="miter" opacity=".82"/><rect x="883" y="532" width="14" height="42" fill="#2b312f"/><rect x="846" y="570" width="88" height="8" fill="#343c39"/></g><g><rect x="460" y="118" width="280" height="150" rx="8" fill="#070a09" stroke="#3b4541" stroke-width="6"/><rect x="472" y="130" width="256" height="126" rx="3" fill="#0b100e"/><rect x="482" y="148" width="229" height="5" fill="#b8ff38" opacity=".62"/><rect x="482" y="168" width="168" height="5" fill="#87918c" opacity=".34"/><rect x="482" y="188" width="224" height="5" fill="#b8ff38" opacity=".62"/><rect x="482" y="208" width="56" height="5" fill="#87918c" opacity=".34"/><polyline points="484.0,179.0 517.1,217.0 550.3,190.0 583.4,177.0 616.6,197.0 649.7,194.0 682.9,174.0 716.0,215.0" fill="none" stroke="#b8ff38" stroke-width="5" stroke-linejoin="miter" opacity=".82"/><rect x="593" y="268" width="14" height="42" fill="#2b312f"/><rect x="556" y="306" width="88" height="8" fill="#343c39"/></g><g><path d="M86 754H1114l70 300H16z" fill="#111313" stroke="#414846" stroke-width="10"/><path d="M118 790H1082l34 176H84z" fill="#151a18" stroke="#343c38" stroke-width="4"/><path d="M152 816H1048" stroke="#b8ff38" stroke-width="5" opacity=".55"/><rect x="450" y="840" width="300" height="94" rx="8" fill="#080b0a" stroke="#3a423f" stroke-width="6"/><rect x="478" y="868" width="13" height="8" fill="#b8ff38" opacity=".65"/><rect x="499" y="883" width="13" height="8" fill="#69716d" opacity=".65"/><rect x="520" y="898" width="13" height="8" fill="#69716d" opacity=".65"/><rect x="541" y="868" width="13" height="8" fill="#69716d" opacity=".65"/><rect x="562" y="883" width="13" height="8" fill="#b8ff38" opacity=".65"/><rect x="583" y="898" width="13" height="8" fill="#69716d" opacity=".65"/><rect x="604" y="868" width="13" height="8" fill="#69716d" opacity=".65"/><rect x="625" y="883" width="13" height="8" fill="#69716d" opacity=".65"/><rect x="646" y="898" width="13" height="8" fill="#b8ff38" opacity=".65"/><rect x="667" y="868" width="13" height="8" fill="#69716d" opacity=".65"/><rect x="688" y="883" width="13" height="8" fill="#69716d" opacity=".65"/><rect x="709" y="898" width="13" height="8" fill="#69716d" opacity=".65"/><g transform="rotate(4 208 900)"><rect x="208" y="878" width="96" height="68" fill="#d8d5ca" stroke="#171a18" stroke-width="4"/><path d="M222 900h62m-62 16h46" stroke="#545954" stroke-width="4"/></g><g transform="rotate(2 346 900)"><rect x="346" y="900" width="96" height="68" fill="#d8d5ca" stroke="#171a18" stroke-width="4"/><path d="M360 922h62m-62 16h46" stroke="#545954" stroke-width="4"/></g><g transform="rotate(4 458 900)"><rect x="458" y="878" width="96" height="68" fill="#d8d5ca" stroke="#171a18" stroke-width="4"/><path d="M472 900h62m-62 16h46" stroke="#545954" stroke-width="4"/></g><rect x="946" y="864" width="78" height="116" rx="7" fill="#111715" stroke="#414a46" stroke-width="5"/><circle cx="985" cy="890" r="8" fill="#b8ff38" opacity=".7"/><path d="M154 994h238" stroke="#727a75" stroke-width="7"/><circle cx="178" cy="1025" r="18" fill="#b8ff38" opacity=".28"/><text x="82" y="1110" font-family="ui-monospace, SFMono-Regular, Menlo, monospace" font-size="18" fill="#8e9691">CARBON COMPOSITE / CONSOLE</text></g><rect x="222" y="882" width="4" height="4" fill="#b8ff38" opacity=".10"/><rect x="894" y="611" width="4" height="4" fill="#b8ff38" opacity=".10"/><rect x="754" y="5" width="4" height="4" fill="#b8ff38" opacity=".10"/><rect x="898" y="458" width="4" height="4" fill="#b8ff38" opacity=".10"/><rect x="321" y="76" width="4" height="4" fill="#b8ff38" opacity=".10"/><rect x="943" y="429" width="4" height="4" fill="#b8ff38" opacity=".10"/><rect x="972" y="724" width="4" height="4" fill="#b8ff38" opacity=".10"/><rect x="614" y="1075" width="4" height="4" fill="#b8ff38" opacity=".10"/><rect x="719" y="586" width="4" height="4" fill="#b8ff38" opacity=".10"/><rect x="882" y="170" width="4" height="4" fill="#b8ff38" opacity=".10"/><rect x="611" y="375" width="4" height="4" fill="#b8ff38" opacity=".10"/><rect x="5" y="498" width="4" height="4" fill="#b8ff38" opacity=".10"/><rect x="458" y="682" width="4" height="4" fill="#b8ff38" opacity=".10"/><rect x="76" y="1106" width="4" height="4" fill="#b8ff38" opacity=".10"/><rect x="429" y="452" width="4" height="4" fill="#b8ff38" opacity=".10"/><rect x="724" y="73" width="4" height="4" fill="#b8ff38" opacity=".10"/><rect x="1075" y="395" width="4" height="4" fill="#b8ff38" opacity=".10"/><rect x="586" y="734" width="4" height="4" fill="#b8ff38" opacity=".10"/><rect x="170" y="1190" width="4" height="4" fill="#b8ff38" opacity=".10"/><rect x="375" y="222" width="4" height="4" fill="#b8ff38" opacity=".10"/><rect x="498" y="894" width="4" height="4" fill="#b8ff38" opacity=".10"/><rect x="682" y="754" width="4" height="4" fill="#b8ff38" opacity=".10"/><rect x="1106" y="898" width="4" height="4" fill="#b8ff38" opacity=".10"/><rect x="452" y="321" width="4" height="4" fill="#b8ff38" opacity=".10"/><rect x="73" y="943" width="4" height="4" fill="#b8ff38" opacity=".10"/><rect x="395" y="972" width="4" height="4" fill="#b8ff38" opacity=".10"/><rect x="734" y="614" width="4" height="4" fill="#b8ff38" opacity=".10"/><rect x="1190" y="719" width="4" height="4" fill="#b8ff38" opacity=".10"/><rect x="222" y="882" width="4" height="4" fill="#b8ff38" opacity=".10"/><rect x="894" y="611" width="4" height="4" fill="#b8ff38" opacity=".10"/><rect x="754" y="5" width="4" height="4" fill="#b8ff38" opacity=".10"/><rect x="898" y="458" width="4" height="4" fill="#b8ff38" opacity=".10"/><rect x="321" y="76" width="4" height="4" fill="#b8ff38" opacity=".10"/><rect x="943" y="429" width="4" height="4" fill="#b8ff38" opacity=".10"/><rect x="972" y="724" width="4" height="4" fill="#b8ff38" opacity=".10"/><rect x="614" y="1075" width="4" height="4" fill="#b8ff38" opacity=".10"/><rect x="719" y="586" width="4" height="4" fill="#b8ff38" opacity=".10"/><rect x="882" y="170" width="4" height="4" fill="#b8ff38" opacity=".10"/><g><rect x="58" y="62" width="188" height="52" rx="5" fill="#090c0b" stroke="#b8ff38" stroke-width="3"/><text x="82" y="96" font-family="ui-monospace, SFMono-Regular, Menlo, monospace" font-weight="800" font-size="22" fill="#f1efe7">IPO #0558</text></g><g><rect x="956" y="62" width="186" height="52" rx="5" fill="#090c0b" stroke="#39423e" stroke-width="3"/><text x="1049" y="95" text-anchor="middle" font-family="ui-monospace, SFMono-Regular, Menlo, monospace" font-size="17" fill="#b8ff38">3C8D9EEE</text></g></svg>