<svg xmlns="http://www.w3.org/2000/svg" width="1200" height="1200" viewBox="0 0 1200 1200"><title>IPO-0528 Common Researcher launch console</title><desc>An architectural IPO launch chamber and research workspace with no people or company affiliation.</desc><defs><linearGradient id="wall" x1="0" y1="0" x2="0" y2="1"><stop stop-color="#050706"/><stop offset="1" stop-color="#17201c"/></linearGradient><linearGradient id="desk" x1="0" y1="0" x2="1" y2="1"><stop stop-color="#9fcbd0" stop-opacity=".34"/><stop offset=".16" stop-color="#102124"/><stop offset="1" stop-color="#081012"/></linearGradient><radialGradient id="pool"><stop stop-color="#ff7b68" stop-opacity=".28"/><stop offset="1" stop-color="#ff7b68" stop-opacity="0"/></radialGradient><filter id="glow"><feGaussianBlur stdDeviation="10" result="b"/><feMerge><feMergeNode in="b"/><feMergeNode in="SourceGraphic"/></feMerge></filter></defs><rect width="1200" height="1200" fill="#050706"/><rect x="34" y="34" width="1132" height="1132" fill="url(#wall)" stroke="#303a35" stroke-width="7"/><path d="M34 728L412 470h376l378 258v438H34z" fill="#0b100e"/><path d="M94 116L407.72 546" stroke="#323b37" stroke-width="9" opacity=".58"/><path d="M220 116L455.6 546" stroke="#323b37" stroke-width="5" opacity=".58"/><path d="M346 116L503.48 546" stroke="#323b37" stroke-width="9" opacity=".58"/><path d="M472 116L551.36 546" stroke="#323b37" stroke-width="5" opacity=".58"/><path d="M598 116L599.24 546" stroke="#323b37" stroke-width="9" opacity=".58"/><path d="M724 116L647.12 546" stroke="#323b37" stroke-width="5" opacity=".58"/><path d="M850 116L695 546" stroke="#323b37" stroke-width="9" opacity=".58"/><path d="M976 116L742.88 546" stroke="#323b37" stroke-width="5" opacity=".58"/><path d="M1102 116L790.76 546" stroke="#323b37" stroke-width="9" opacity=".58"/><path d="M72 430v-125h52v125" fill="#111816" stroke="#27312d" stroke-width="4"/><rect x="83" y="323" width="8" height="8" fill="#ff7b68" opacity=".34"/><path d="M164 430v-90h62v90" fill="#111816" stroke="#27312d" stroke-width="4"/><rect x="175" y="358" width="8" height="8" fill="#66706a" opacity=".34"/><path d="M256 430v-194h72v194" fill="#111816" stroke="#27312d" stroke-width="4"/><rect x="267" y="254" width="8" height="8" fill="#66706a" opacity=".34"/><path d="M348 430v-194h52v194" fill="#111816" stroke="#27312d" stroke-width="4"/><rect x="359" y="254" width="8" height="8" fill="#ff7b68" opacity=".34"/><path d="M440 430v-60h62v60" fill="#111816" stroke="#27312d" stroke-width="4"/><rect x="451" y="388" width="8" height="8" fill="#66706a" opacity=".34"/><path d="M532 430v-174h72v174" fill="#111816" stroke="#27312d" stroke-width="4"/><rect x="543" y="274" width="8" height="8" fill="#66706a" opacity=".34"/><path d="M624 430v-148h52v148" fill="#111816" stroke="#27312d" stroke-width="4"/><rect x="635" y="300" width="8" height="8" fill="#ff7b68" opacity=".34"/><path d="M716 430v-84h62v84" fill="#111816" stroke="#27312d" stroke-width="4"/><rect x="727" y="364" width="8" height="8" fill="#66706a" opacity=".34"/><path d="M808 430v-185h72v185" fill="#111816" stroke="#27312d" stroke-width="4"/><rect x="819" y="263" width="8" height="8" fill="#66706a" opacity=".34"/><path d="M900 430v-162h52v162" fill="#111816" stroke="#27312d" stroke-width="4"/><rect x="911" y="286" width="8" height="8" fill="#ff7b68" opacity=".34"/><path d="M992 430v-56h62v56" fill="#111816" stroke="#27312d" stroke-width="4"/><rect x="1003" y="392" width="8" height="8" fill="#66706a" opacity=".34"/><path d="M1084 430v-132h72v132" fill="#111816" stroke="#27312d" stroke-width="4"/><rect x="1095" y="316" width="8" height="8" fill="#66706a" opacity=".34"/><ellipse cx="600" cy="650" rx="470" ry="260" fill="url(#pool)"/><path d="M34 772h1132M78 1166L414 486M1122 1166L786 486" stroke="#34403a" stroke-width="4" opacity=".48"/><path d="M122 1114L600 758l478 356" fill="none" stroke="#89b8ff" stroke-width="3" opacity=".16"/><g transform="translate(112 360) scale(0.78 0.78)"><path d="M0 24L220 0V168L0 192Z" fill="#070a09" stroke="#5b6560" stroke-width="6"/><path d="M14 34L206 14V154L14 174Z" fill="#0d1512" stroke="#ff7b68" stroke-width="2" opacity=".96"/><path d="M26 48H116" stroke="#89b8ff" stroke-width="6" opacity=".7"/><path d="M26 57H82" stroke="#88908b" stroke-width="4" opacity=".38"/><polyline points="26,74 50,108 74,77 98,83 122,105 146,63 170,95 194,117" fill="none" stroke="#ff7b68" stroke-width="5" stroke-linejoin="bevel"/><rect x="30" y="117" width="12" height="25" fill="#ff7b68" opacity=".58"/><rect x="55" y="117" width="12" height="25" fill="#89b8ff" opacity=".32"/><rect x="80" y="107" width="12" height="35" fill="#ff7b68" opacity=".58"/><rect x="105" y="114" width="12" height="28" fill="#89b8ff" opacity=".32"/><rect x="130" y="103" width="12" height="39" fill="#ff7b68" opacity=".58"/><rect x="155" y="131" width="12" height="11" fill="#89b8ff" opacity=".32"/><path d="M84 184h54l18 45H62z" fill="#1f2522" stroke="#4f5954" stroke-width="4"/></g><g transform="translate(1088 360) scale(-0.78 0.78)"><path d="M0 24L220 0V168L0 192Z" fill="#070a09" stroke="#5b6560" stroke-width="6"/><path d="M14 34L206 14V154L14 174Z" fill="#0d1512" stroke="#ff7b68" stroke-width="2" opacity=".96"/><path d="M26 48H116" stroke="#89b8ff" stroke-width="6" opacity=".7"/><path d="M26 57H82" stroke="#88908b" stroke-width="4" opacity=".38"/><polyline points="26,83 50,105 74,63 98,95 122,117 146,83 170,100 194,73" fill="none" stroke="#ff7b68" stroke-width="5" stroke-linejoin="bevel"/><rect x="30" y="117" width="12" height="25" fill="#ff7b68" opacity=".58"/><rect x="55" y="107" width="12" height="35" fill="#89b8ff" opacity=".32"/><rect x="80" y="114" width="12" height="28" fill="#ff7b68" opacity=".58"/><rect x="105" y="103" width="12" height="39" fill="#89b8ff" opacity=".32"/><rect x="130" y="131" width="12" height="11" fill="#ff7b68" opacity=".58"/><rect x="155" y="115" width="12" height="27" fill="#89b8ff" opacity=".32"/><path d="M84 184h54l18 45H62z" fill="#1f2522" stroke="#4f5954" stroke-width="4"/></g><g><path d="M600 646C688 584 796 404 1014 168" fill="none" stroke="#202724" stroke-width="38"/><path d="M600 646C688 584 796 404 1014 168" fill="none" stroke="#ff7b68" stroke-width="10" filter="url(#glow)"/><path d="M600 646C512 584 404 404 186 168" fill="none" stroke="#202724" stroke-width="30"/><path d="M600 646C512 584 404 404 186 168" fill="none" stroke="#89b8ff" stroke-width="7" opacity=".82"/><g transform="translate(646 602)"><ellipse rx="24" ry="10" fill="#111613" stroke="#ff7b68" stroke-width="4"/><path d="M0-18v36" stroke="#ff7b68" stroke-width="3" opacity=".75"/></g><g transform="translate(749.3333333333334 488.6666666666667)"><ellipse rx="24" ry="10" fill="#111613" stroke="#ff7b68" stroke-width="4"/><path d="M0-18v36" stroke="#ff7b68" stroke-width="3" opacity=".75"/></g><g transform="translate(852.6666666666666 375.33333333333337)"><ellipse rx="24" ry="10" fill="#111613" stroke="#ff7b68" stroke-width="4"/><path d="M0-18v36" stroke="#ff7b68" stroke-width="3" opacity=".75"/></g><g transform="translate(956 262)"><ellipse rx="24" ry="10" fill="#111613" stroke="#ff7b68" stroke-width="4"/><path d="M0-18v36" stroke="#ff7b68" stroke-width="3" opacity=".75"/></g></g><g><path d="M104 688L600 566l496 122 76 392H28z" fill="url(#desk)" stroke="#527277" stroke-width="10"/><path d="M142 742L600 632l458 110 42 252H100z" fill="#081012" stroke="#3c4540" stroke-width="5"/><ellipse cx="600" cy="700" rx="248" ry="146.24" fill="#070a09" stroke="#527277" stroke-width="8"/><ellipse cx="600" cy="690" rx="194" ry="74" fill="none" stroke="#ff7b68" stroke-width="8" opacity="0.52"/><ellipse cx="600" cy="680" rx="218" ry="85" fill="none" stroke="#89b8ff" stroke-width="7" opacity="0.44"/><ellipse cx="600" cy="676" rx="152" ry="82.08000000000001" fill="#0c1511" stroke="#ff7b68" stroke-width="9" filter="url(#glow)"/><ellipse cx="600" cy="664" rx="114" ry="51.68000000000001" fill="#ff7b68" opacity=".12"/><g transform="translate(600 646)"><ellipse rx="58" ry="24" fill="#dfe4dc" fill-opacity=".16" stroke="#eff5ee" stroke-width="5"/><path d="M-46 0h92M0-22v44" stroke="#ff7b68" stroke-width="5"/><ellipse cy="-18" rx="38" ry="15" fill="#ff7b68" opacity=".18"/></g><path d="M420 834h360l34 102H386z" fill="#090c0b" stroke="#56605b" stroke-width="6"/><rect x="430" y="858" width="15" height="10" fill="#ff7b68" opacity=".72"/><rect x="454" y="876" width="15" height="10" fill="#707873" opacity=".72"/><rect x="478" y="894" width="15" height="10" fill="#707873" opacity=".72"/><rect x="502" y="858" width="15" height="10" fill="#707873" opacity=".72"/><rect x="526" y="876" width="15" height="10" fill="#707873" opacity=".72"/><rect x="550" y="894" width="15" height="10" fill="#ff7b68" opacity=".72"/><rect x="574" y="858" width="15" height="10" fill="#707873" opacity=".72"/><rect x="598" y="876" width="15" height="10" fill="#707873" opacity=".72"/><rect x="622" y="894" width="15" height="10" fill="#707873" opacity=".72"/><rect x="646" y="858" width="15" height="10" fill="#707873" opacity=".72"/><rect x="670" y="876" width="15" height="10" fill="#ff7b68" opacity=".72"/><rect x="694" y="894" width="15" height="10" fill="#707873" opacity=".72"/><rect x="718" y="858" width="15" height="10" fill="#707873" opacity=".72"/><rect x="742" y="876" width="15" height="10" fill="#707873" opacity=".72"/><g transform="translate(182 904) rotate(-1)"><path d="M0 0h88l16 58H14z" fill="#dedbd0" stroke="#292d2a" stroke-width="4"/><path d="M17 18h52M21 31h61M25 44h37" stroke="#626862" stroke-width="4"/></g><g transform="translate(290 924) rotate(2)"><path d="M0 0h88l16 58H14z" fill="#dedbd0" stroke="#292d2a" stroke-width="4"/><path d="M17 18h52M21 31h61M25 44h37" stroke="#626862" stroke-width="4"/></g><g transform="translate(398 904) rotate(1)"><path d="M0 0h88l16 58H14z" fill="#dedbd0" stroke="#292d2a" stroke-width="4"/><path d="M17 18h52M21 31h61M25 44h37" stroke="#626862" stroke-width="4"/></g><g transform="translate(918 888)"><path d="M0 0h104l20 126H16z" fill="#101714" stroke="#89b8ff" stroke-width="5"/><circle cx="58" cy="38" r="12" fill="#ff7b68" opacity=".72"/><path d="M32 72h58M38 89h42" stroke="#8d9690" stroke-width="5"/></g></g><rect x="1022" y="669" width="8" height="4" fill="#89b8ff" opacity=".12"/><rect x="291" y="553" width="4" height="4" fill="#ff7b68" opacity=".12"/><rect x="1163" y="219" width="4" height="4" fill="#ff7b68" opacity=".12"/><rect x="998" y="20" width="4" height="4" fill="#89b8ff" opacity=".12"/><rect x="880" y="497" width="8" height="4" fill="#ff7b68" opacity=".12"/><rect x="475" y="511" width="4" height="4" fill="#ff7b68" opacity=".12"/><rect x="99" y="887" width="4" height="4" fill="#89b8ff" opacity=".12"/><rect x="619" y="763" width="4" height="4" fill="#ff7b68" opacity=".12"/><rect x="15" y="729" width="8" height="4" fill="#ff7b68" opacity=".12"/><rect x="669" y="828" width="4" height="4" fill="#89b8ff" opacity=".12"/><rect x="553" y="1067" width="4" height="4" fill="#ff7b68" opacity=".12"/><rect x="219" y="1167" width="4" height="4" fill="#ff7b68" opacity=".12"/><rect x="20" y="759" width="8" height="4" fill="#89b8ff" opacity=".12"/><rect x="497" y="261" width="4" height="4" fill="#ff7b68" opacity=".12"/><rect x="511" y="392" width="4" height="4" fill="#ff7b68" opacity=".12"/><rect x="887" y="828" width="4" height="4" fill="#89b8ff" opacity=".12"/><rect x="763" y="930" width="8" height="4" fill="#ff7b68" opacity=".12"/><rect x="729" y="239" width="4" height="4" fill="#ff7b68" opacity=".12"/><rect x="828" y="708" width="4" height="4" fill="#89b8ff" opacity=".12"/><rect x="1067" y="1022" width="4" height="4" fill="#ff7b68" opacity=".12"/><rect x="1167" y="291" width="8" height="4" fill="#ff7b68" opacity=".12"/><rect x="759" y="1163" width="4" height="4" fill="#89b8ff" opacity=".12"/><rect x="261" y="998" width="4" height="4" fill="#ff7b68" opacity=".12"/><rect x="392" y="880" width="4" height="4" fill="#ff7b68" opacity=".12"/><rect x="828" y="475" width="8" height="4" fill="#89b8ff" opacity=".12"/><rect x="930" y="99" width="4" height="4" fill="#ff7b68" opacity=".12"/><rect x="239" y="619" width="4" height="4" fill="#ff7b68" opacity=".12"/><rect x="708" y="15" width="4" height="4" fill="#89b8ff" opacity=".12"/><rect x="1022" y="669" width="8" height="4" fill="#ff7b68" opacity=".12"/><rect x="291" y="553" width="4" height="4" fill="#ff7b68" opacity=".12"/><rect x="1163" y="219" width="4" height="4" fill="#89b8ff" opacity=".12"/><rect x="998" y="20" width="4" height="4" fill="#ff7b68" opacity=".12"/><rect x="880" y="497" width="8" height="4" fill="#ff7b68" opacity=".12"/><rect x="475" y="511" width="4" height="4" fill="#89b8ff" opacity=".12"/><rect x="99" y="887" width="4" height="4" fill="#ff7b68" opacity=".12"/><rect x="619" y="763" width="4" height="4" fill="#ff7b68" opacity=".12"/><rect x="15" y="729" width="8" height="4" fill="#89b8ff" opacity=".12"/><rect x="669" y="828" width="4" height="4" fill="#ff7b68" opacity=".12"/><rect x="553" y="1067" width="4" height="4" fill="#ff7b68" opacity=".12"/><rect x="219" y="1167" width="4" height="4" fill="#89b8ff" opacity=".12"/><rect x="20" y="759" width="8" height="4" fill="#ff7b68" opacity=".12"/><rect x="497" y="261" width="4" height="4" fill="#ff7b68" opacity=".12"/><rect x="511" y="392" width="4" height="4" fill="#89b8ff" opacity=".12"/><rect x="887" y="828" width="4" height="4" fill="#ff7b68" opacity=".12"/><g><path d="M58 58h216v58H58z" fill="#070a09" stroke="#ff7b68" stroke-width="3"/><text x="82" y="96" font-family="ui-monospace, SFMono-Regular, Menlo, monospace" font-weight="800" font-size="22" fill="#f1efe7">IPO #0528</text></g><g><path d="M942 58h200v58H942z" fill="#070a09" stroke="#46504b" stroke-width="3"/><text x="1042" y="95" text-anchor="middle" font-family="ui-monospace, SFMono-Regular, Menlo, monospace" font-size="17" fill="#ff7b68">6320EE9E</text></g><text x="82" y="1130" font-family="ui-monospace, SFMono-Regular, Menlo, monospace" font-size="17" fill="#89918c">SMOKED GLASS / SPLIT ARC</text></svg>